<?xml version="1.0" encoding="utf-8" standalone="no"?>
<!DOCTYPE svg PUBLIC "-//W3C//DTD SVG 1.1//EN"
  "http://www.w3.org/Graphics/SVG/1.1/DTD/svg11.dtd">
<!-- Created with matplotlib (https://matplotlib.org/) -->
<svg height="345.6pt" version="1.1" viewBox="0 0 460.8 345.6" width="460.8pt" xmlns="http://www.w3.org/2000/svg" xmlns:xlink="http://www.w3.org/1999/xlink">
 <metadata>
  <rdf:RDF xmlns:cc="http://creativecommons.org/ns#" xmlns:dc="http://purl.org/dc/elements/1.1/" xmlns:rdf="http://www.w3.org/1999/02/22-rdf-syntax-ns#">
   <cc:Work>
    <dc:type rdf:resource="http://purl.org/dc/dcmitype/StillImage"/>
    <dc:date>2021-07-15T21:52:42.496027</dc:date>
    <dc:format>image/svg+xml</dc:format>
    <dc:creator>
     <cc:Agent>
      <dc:title>Matplotlib v3.3.4, https://matplotlib.org/</dc:title>
     </cc:Agent>
    </dc:creator>
   </cc:Work>
  </rdf:RDF>
 </metadata>
 <defs>
  <style type="text/css">*{stroke-linecap:butt;stroke-linejoin:round;}</style>
 </defs>
 <g id="figure_1">
  <g id="patch_1">
   <path d="M 0 345.6 
L 460.8 345.6 
L 460.8 0 
L 0 0 
z
" style="fill:#ffffff;"/>
  </g>
  <g id="axes_1">
   <g id="patch_2">
    <path d="M 96.997986 233.497325 
L 363.802014 233.497325 
L 363.802014 30.48 
L 96.997986 30.48 
z
" style="fill:#ffffff;"/>
   </g>
   <g id="PatchCollection_1">
    <path clip-path="url(#p725f292287)" d="M 149.129604 54.834926 
L 148.74843 55.421219 
L 148.116523 55.802323 
L 147.025062 56.417501 
L 145.199789 59.032755 
L 144.538159 59.815395 
L 143.697259 61.122548 
L 142.731935 62.25757 
L 142.257356 62.742795 
L 141.78181 63.090354 
L 140.92287 63.838286 
L 140.543866 64.631791 
L 140.325926 65.254101 
L 140.178833 65.4963 
L 139.929932 65.166229 
L 139.77934 64.744234 
L 139.575369 64.140407 
L 139.359911 62.709152 
L 139.352456 61.518423 
L 139.326005 60.48942 
L 139.25108 58.649898 
L 139.202261 57.078691 
L 139.111254 55.811052 
L 140.612028 55.98486 
L 140.877669 55.975797 
L 141.12377 55.86165 
L 141.642474 55.781039 
L 142.028893 56.191038 
L 142.274114 56.345115 
L 142.586287 56.439808 
L 142.928433 56.490604 
L 143.266812 56.390953 
L 143.635675 56.091294 
L 144.087135 55.726626 
L 144.875397 55.310553 
L 145.710716 55.270723 
L 146.095814 55.21806 
L 146.54922 55.125885 
L 146.913256 54.999354 
L 147.294251 54.898426 
L 147.889692 54.808137 
L 149.129604 54.834926 
" style="fill:#08306b;stroke:#000000;stroke-width:0.25;"/>
    <path clip-path="url(#p725f292287)" d="M 123.82764 70.283609 
L 123.464455 71.45893 
L 123.184725 72.30527 
L 123.010483 73.034163 
L 123.05345 73.794986 
L 123.097517 74.653738 
L 123.141544 75.959533 
L 123.166642 77.407186 
L 123.046074 79.097043 
L 123.07488 80.713589 
L 123.065409 81.873033 
L 122.934829 81.845642 
L 121.944974 81.811187 
L 120.469446 81.753857 
L 119.037825 81.733573 
L 118.522254 81.731891 
L 118.025234 81.703305 
L 117.127688 81.673414 
L 116.340371 81.814185 
L 115.714058 82.235061 
L 115.47316 81.628284 
L 115.474811 81.121642 
L 115.724285 80.840037 
L 115.856983 80.217448 
L 116.309751 79.442631 
L 116.265642 78.595235 
L 116.280337 77.572052 
L 116.282288 76.973164 
L 116.521474 76.362275 
L 116.70078 75.820731 
L 116.713441 75.421983 
L 116.714976 74.950819 
L 116.729904 74.292367 
L 116.695162 73.62098 
L 116.863983 72.809757 
L 117.031807 72.305074 
L 117.021283 71.611061 
L 117.047995 70.823501 
L 117.111594 69.611726 
L 116.748407 68.61002 
L 117.707551 68.483997 
L 117.519601 67.753925 
L 117.744589 68.014368 
L 118.099214 68.156022 
L 118.536409 68.239759 
L 119.104427 68.277088 
L 119.602543 68.407858 
L 119.933365 68.444414 
L 120.643337 68.506335 
L 121.175851 68.542132 
L 121.187019 69.037463 
L 121.279192 69.518868 
L 121.941566 69.803446 
L 122.544475 70.029644 
L 123.326578 70.18547 
L 123.82764 70.283609 
" style="fill:#08306b;stroke:#000000;stroke-width:0.25;"/>
    <path clip-path="url(#p725f292287)" d="M 166.24247 165.863133 
L 166.243319 165.781921 
L 166.244024 165.714421 
L 166.244625 165.656702 
L 166.245011 165.619993 
L 166.211363 165.544831 
L 165.999456 165.071495 
L 165.814603 164.843374 
L 165.535887 164.56924 
L 165.11347 164.076775 
L 165.110072 164.074968 
L 164.567651 163.786452 
L 164.545837 163.774852 
L 164.304303 163.672654 
L 164.061671 163.569995 
L 164.031752 163.558116 
L 163.450667 163.326821 
L 162.616216 163.014069 
L 162.500089 162.619707 
L 162.504178 162.590731 
L 162.50536 162.582642 
L 162.59588 161.962933 
L 162.632231 161.887215 
L 162.804093 161.52923 
L 162.847162 161.439519 
L 162.865475 161.102943 
L 162.866718 161.085882 
L 162.88319 160.85975 
L 163.055717 160.698254 
L 163.369561 160.641455 
L 163.553088 160.60824 
L 163.695696 160.348293 
L 163.90028 159.975277 
L 163.902013 159.972117 
L 163.957762 159.870471 
L 163.957636 159.870397 
L 163.649804 159.687462 
L 163.531698 159.617275 
L 163.188671 159.504859 
L 163.013467 159.116697 
L 162.899393 158.863968 
L 163.193573 158.2537 
L 163.114689 157.975696 
L 162.931668 157.878292 
L 162.725912 157.928645 
L 162.725711 157.928694 
L 162.695388 157.962218 
L 162.56791 158.103154 
L 162.524746 158.235281 
L 162.449673 158.465082 
L 162.410641 158.797189 
L 162.286817 158.848864 
L 161.90932 159.006404 
L 161.678328 159.026635 
L 161.358356 158.814816 
L 161.076192 158.628025 
L 161.068954 158.5262 
L 161.030672 157.97936 
L 160.918408 157.132122 
L 160.917639 157.126321 
L 160.914058 157.07662 
L 160.917922 157.126322 
L 161.92172 157.211996 
L 162.863048 157.291786 
L 163.141353 157.312389 
L 163.145599 157.312603 
L 163.864083 157.366927 
L 164.508653 157.415095 
L 166.997916 157.521369 
L 168.261744 157.570754 
L 168.233772 157.86187 
L 168.217679 158.002319 
L 168.212852 158.171189 
L 168.232133 158.350075 
L 168.268816 158.422578 
L 168.258602 158.503439 
L 168.246827 158.626871 
L 168.269369 158.680877 
L 168.283408 158.729177 
L 168.322979 158.787498 
L 168.341293 158.831554 
L 168.30667 158.991809 
L 168.250424 159.247079 
L 168.220853 159.594688 
L 168.215869 159.810391 
L 168.417511 159.818165 
L 168.749944 159.786639 
L 169.262742 159.755719 
L 169.559623 159.738267 
L 169.839505 159.707985 
L 170.029967 159.66179 
L 170.268539 159.668269 
L 170.338255 160.476037 
L 170.396805 161.225579 
L 170.42158 161.882758 
L 170.501097 162.731717 
L 170.522037 162.839648 
L 170.582967 162.881009 
L 171.026168 162.851277 
L 171.076168 163.18638 
L 171.127307 163.60522 
L 171.191445 164.381747 
L 171.22179 164.648661 
L 171.237083 164.746639 
L 171.271072 164.775138 
L 171.472832 164.747432 
L 171.500491 164.968923 
L 171.508206 165.208796 
L 171.508215 165.20908 
L 171.514672 165.397573 
L 170.325707 165.475888 
L 168.633518 165.695855 
L 168.639459 166.192038 
L 168.642389 166.436715 
L 168.675319 166.780275 
L 168.226535 166.781605 
L 167.986498 166.799769 
L 167.526204 166.834601 
L 167.525886 166.834439 
L 167.215715 166.676026 
L 167.075138 166.686903 
L 166.934445 166.697788 
L 166.544334 166.642583 
L 166.544078 166.642547 
L 166.429927 166.665993 
L 166.293416 166.694031 
L 166.293385 166.693932 
L 166.277853 166.488099 
L 166.266998 166.344238 
L 166.254518 166.178843 
L 166.244325 166.04376 
L 166.241253 166.003055 
L 166.241037 166.000187 
L 166.24247 165.863133 
" style="fill:#c6dbef;stroke:#000000;stroke-width:0.25;"/>
    <path clip-path="url(#p725f292287)" d="M 177.231696 189.571943 
L 176.354226 190.358062 
L 175.985529 191.038041 
L 175.871199 191.670627 
L 175.852954 192.446878 
L 176.00091 193.629587 
L 175.964527 195.149448 
L 175.83362 196.484491 
L 172.077322 196.495922 
L 171.734915 196.5416 
L 170.692611 196.519632 
L 170.692763 196.519067 
L 170.830672 196.00776 
L 170.779243 195.868197 
L 170.740607 195.763351 
L 170.357252 194.897754 
L 170.263273 194.772098 
L 170.159325 194.633113 
L 169.837809 194.226737 
L 169.689841 194.039715 
L 169.481625 193.878642 
L 169.482998 193.471332 
L 169.518663 193.420588 
L 169.634258 193.256122 
L 170.19733 192.979767 
L 170.544655 192.809301 
L 170.734668 192.816656 
L 170.825806 192.820184 
L 171.293913 192.8412 
L 171.304322 192.841668 
L 171.412853 192.945094 
L 171.652556 193.17352 
L 172.060357 193.211107 
L 172.148032 193.219188 
L 172.731533 192.850743 
L 173.019525 192.5182 
L 173.019489 192.51784 
L 172.981056 192.134881 
L 172.823017 191.833472 
L 172.613023 191.357327 
L 172.447599 190.71954 
L 172.329318 190.197553 
L 172.286679 190.009387 
L 172.296668 189.153633 
L 172.403068 188.345038 
L 172.403496 188.345146 
L 172.513438 188.372745 
L 173.148015 188.532051 
L 173.526577 188.658438 
L 173.620393 188.689759 
L 174.563003 188.799384 
L 175.160338 188.823553 
L 175.366699 188.831902 
L 175.486291 188.847284 
L 176.0353 188.917896 
L 176.365625 189.08648 
L 176.642064 189.241433 
L 177.231696 189.571943 
" style="fill:#08306b;stroke:#000000;stroke-width:0.25;"/>
    <path clip-path="url(#p725f292287)" d="M 174.830562 208.368477 
L 174.350385 208.84087 
L 173.838264 209.520363 
L 173.371668 210.595971 
L 173.017904 211.481785 
L 172.550129 212.906516 
L 172.281823 214.13749 
L 172.171676 213.954037 
L 171.024997 213.72876 
L 169.845654 213.503374 
L 168.925511 213.478976 
L 168.925238 213.478552 
L 168.645803 213.043751 
L 168.370425 212.587252 
L 167.903181 212.17552 
L 167.728217 211.841413 
L 167.704972 211.575941 
L 167.745848 211.235765 
L 167.745884 211.235468 
L 167.593017 210.665846 
L 166.784972 210.145561 
L 166.653529 210.060928 
L 166.552488 209.995417 
L 166.383185 209.885647 
L 166.382881 209.88545 
L 166.192395 209.52149 
L 166.27878 209.14402 
L 166.290406 209.093217 
L 166.435225 208.682134 
L 166.466619 208.643975 
L 166.632007 208.442951 
L 166.756642 208.44798 
L 167.821843 208.49096 
L 167.821897 208.490962 
L 168.198592 208.803042 
L 168.198724 208.803193 
L 168.662538 209.331064 
L 168.662604 209.331138 
L 168.747499 209.338699 
L 169.159356 209.375381 
L 169.159492 209.375393 
L 169.511066 209.136733 
L 169.943334 208.552057 
L 169.943414 208.551822 
L 170.028445 208.298976 
L 170.260365 207.609349 
L 171.899378 207.549605 
L 172.632359 207.489639 
L 173.461806 207.459802 
L 174.830562 208.368477 
" style="fill:#08306b;stroke:#000000;stroke-width:0.25;"/>
    <path clip-path="url(#p725f292287)" d="M 172.281823 214.13749 
L 171.988213 216.131915 
L 171.79487 217.452554 
L 171.428523 219.959071 
L 171.197422 221.526524 
L 170.715285 224.258306 
L 167.243152 224.269265 
L 163.832669 223.687216 
L 163.085101 223.901799 
L 163.084983 223.901833 
L 162.899091 223.648512 
L 162.673633 223.341274 
L 162.538247 223.136828 
L 162.40236 222.931625 
L 162.55023 222.805266 
L 162.996245 222.424131 
L 163.867938 222.07369 
L 164.755163 220.908672 
L 165.158884 220.365057 
L 165.281012 220.323813 
L 166.065933 220.058732 
L 166.315234 220.024099 
L 166.564617 219.989455 
L 166.896631 219.944465 
L 167.095973 219.917452 
L 167.366144 219.722569 
L 167.851882 219.37219 
L 167.836854 219.059182 
L 167.831982 218.957712 
L 166.027843 217.881527 
L 165.660442 217.762492 
L 165.641609 217.031533 
L 165.350089 216.729675 
L 165.138187 216.44113 
L 165.109778 216.402445 
L 165.061139 216.087215 
L 165.277336 215.934536 
L 165.53516 215.752461 
L 165.694654 215.793207 
L 165.70968 215.797046 
L 166.101645 215.730975 
L 166.617638 215.643998 
L 166.867537 215.495922 
L 167.069633 215.376172 
L 167.070134 215.375875 
L 167.18383 214.929206 
L 167.63971 214.500725 
L 168.219602 214.775173 
L 168.446294 214.766794 
L 168.676931 214.758269 
L 168.765234 214.676731 
L 168.921952 214.532022 
L 168.957876 213.987165 
L 168.925511 213.478976 
L 169.845654 213.503374 
L 171.024997 213.72876 
L 172.171676 213.954037 
L 172.281823 214.13749 
" style="fill:#08306b;stroke:#000000;stroke-width:0.25;"/>
    <path clip-path="url(#p725f292287)" d="M 253.793411 165.83079 
L 254.014569 168.397582 
L 252.319325 168.481827 
L 251.452025 168.524928 
L 249.691755 168.644 
L 248.179044 168.746329 
L 247.929783 166.087194 
L 247.910451 165.92817 
L 247.920393 165.928205 
L 247.926071 165.928934 
L 249.330497 165.982769 
L 249.969419 166.036078 
L 250.658028 166.095238 
L 251.670443 166.156942 
L 252.194371 166.197082 
L 252.311312 165.649653 
L 253.793411 165.83079 
" style="fill:#c6dbef;stroke:#000000;stroke-width:0.25;"/>
    <path clip-path="url(#p725f292287)" d="M 137.690263 41.685424 
L 137.636306 42.113844 
L 137.596674 42.505411 
L 137.543914 43.001956 
L 137.515988 43.288541 
L 137.480793 43.626194 
L 137.455964 43.834734 
L 137.420593 44.226315 
L 137.389835 44.510053 
L 135.034829 44.677476 
L 133.15364 44.811259 
L 132.310295 44.871232 
L 131.080086 44.95861 
L 130.566635 44.99511 
L 129.521548 45.06947 
L 127.534662 45.210727 
L 127.179055 45.235964 
L 125.93922 45.445227 
L 125.611497 45.500501 
L 124.62642 45.72862 
L 122.81182 46.398244 
L 122.181679 46.677192 
L 121.623936 46.925295 
L 121.244285 47.09422 
L 120.820019 47.223973 
L 119.835278 47.525328 
L 119.104653 47.693254 
L 118.877228 47.743606 
L 118.903351 46.698179 
L 118.936344 45.374614 
L 118.950718 44.797621 
L 119.493302 44.799384 
L 119.49948 42.898125 
L 119.502364 42.010719 
L 120.26795 42.013207 
L 120.407507 39.717422 
L 120.420501 39.717414 
L 121.184469 39.716972 
L 121.670318 39.716708 
L 122.122789 39.716469 
L 122.236909 39.716382 
L 122.618085 39.716092 
L 123.10571 39.715833 
L 124.397428 39.715069 
L 125.225526 39.714642 
L 125.261623 39.714242 
L 125.816863 39.708089 
L 125.819419 39.70806 
L 125.81952 39.708066 
L 126.048609 39.721099 
L 126.401535 39.741178 
L 127.043486 39.763564 
L 127.613004 39.783443 
L 127.694939 39.786045 
L 128.907428 39.824561 
L 129.92318 39.86908 
L 129.991896 39.872092 
L 131.363843 39.923402 
L 137.882664 40.185967 
L 137.853035 40.559118 
L 137.826878 40.73927 
L 137.795086 40.905211 
L 137.958175 41.418073 
L 137.690263 41.685424 
" style="fill:#c6dbef;stroke:#000000;stroke-width:0.25;"/>
    <path clip-path="url(#p725f292287)" d="M 122.446559 51.571119 
L 122.446877 51.573811 
L 122.513323 52.13603 
L 122.639801 53.206791 
L 122.35888 53.241356 
L 122.440391 53.901116 
L 121.991934 53.958126 
L 121.518284 54.031375 
L 120.975143 54.071898 
L 121.032725 54.534456 
L 120.644657 54.628278 
L 120.709046 55.224829 
L 121.102456 55.191482 
L 121.130776 55.349245 
L 121.185839 55.887295 
L 121.201575 56.42025 
L 121.222683 57.134878 
L 121.349934 58.229484 
L 121.395868 58.473875 
L 121.479469 59.05871 
L 120.756588 59.163362 
L 119.983119 59.275229 
L 120.403325 60.651787 
L 120.804664 60.843265 
L 121.168472 60.783425 
L 122.727566 60.490477 
L 123.102326 59.685602 
L 123.103842 59.220681 
L 123.104884 58.9008 
L 123.467579 58.834288 
L 123.697673 58.792027 
L 123.832139 58.767327 
L 123.98533 58.739187 
L 124.115371 58.715343 
L 125.263355 57.962519 
L 125.78219 57.62233 
L 127.190989 56.816572 
L 126.713424 55.608704 
L 126.630679 55.284859 
L 126.025503 55.314107 
L 125.96206 54.733453 
L 127.7994 54.49109 
L 127.689737 53.449616 
L 127.640968 52.986234 
L 128.272023 52.861986 
L 129.007007 52.750993 
L 129.494158 52.7198 
L 129.558373 53.237446 
L 129.616225 53.702845 
L 128.941084 53.800125 
L 128.989232 54.279684 
L 129.051963 54.903765 
L 131.239291 54.573287 
L 131.288129 54.812367 
L 131.306535 54.902475 
L 131.332393 55.204421 
L 131.643943 55.140096 
L 131.838532 55.09992 
L 131.967958 55.438537 
L 131.963673 55.879891 
L 131.870519 56.133621 
L 131.55336 56.260311 
L 131.397478 56.150524 
L 130.903011 56.204255 
L 130.408056 55.972729 
L 130.250303 56.000597 
L 129.834124 56.437766 
L 129.210532 56.887031 
L 129.144523 57.092598 
L 128.834078 57.338522 
L 129.05677 57.867188 
L 128.987651 58.155057 
L 128.776947 58.304803 
L 128.408787 58.39159 
L 128.216115 58.239107 
L 128.19569 57.969395 
L 128.116864 57.750582 
L 127.868366 57.729902 
L 127.746062 57.776336 
L 127.476602 57.650568 
L 127.333586 57.515278 
L 127.110303 57.602539 
L 126.933094 57.93405 
L 127.061388 58.228241 
L 127.202696 58.451514 
L 127.153134 58.84021 
L 126.984819 59.058215 
L 126.700873 59.01897 
L 126.484027 58.874924 
L 126.549263 58.470669 
L 126.510183 58.259083 
L 126.390896 58.251597 
L 126.102161 58.374124 
L 125.621558 58.532924 
L 125.646618 59.123387 
L 125.262882 59.195933 
L 125.096173 59.357176 
L 125.084659 60.273933 
L 124.840237 60.745725 
L 124.58172 60.749139 
L 124.394525 60.65912 
L 124.501072 59.78241 
L 124.473165 59.629047 
L 124.034401 59.153608 
L 123.787473 59.08752 
L 123.592509 59.201838 
L 123.438589 59.361704 
L 123.323406 59.838175 
L 123.262094 60.346044 
L 123.464172 60.663181 
L 123.84174 60.739629 
L 124.126083 61.092515 
L 124.179306 61.322597 
L 124.061522 61.725261 
L 123.9459 61.900863 
L 123.75388 61.983969 
L 123.546616 61.950651 
L 123.405137 61.779888 
L 123.361661 61.609444 
L 123.407099 61.178159 
L 123.366478 61.003467 
L 123.000458 60.870289 
L 122.811478 60.89238 
L 122.569722 60.98242 
L 121.881344 61.265432 
L 121.679229 61.395339 
L 121.391773 61.561866 
L 121.076595 61.518263 
L 120.800168 61.351318 
L 120.688673 61.1324 
L 120.432399 60.883208 
L 120.274639 60.913917 
L 120.107908 61.082257 
L 119.98506 61.296153 
L 119.934729 61.48616 
L 119.976784 61.656599 
L 120.091324 61.813082 
L 120.397051 62.14191 
L 120.406286 62.359075 
L 120.117105 62.619263 
L 120.070109 62.657428 
L 119.937675 62.762016 
L 119.762973 62.761447 
L 119.41353 62.335973 
L 119.308373 62.351242 
L 118.568293 62.810067 
L 118.520659 63.044077 
L 118.556886 63.259911 
L 118.370142 63.467923 
L 118.138566 63.485618 
L 117.832368 63.301547 
L 117.392834 63.063113 
L 117.095368 63.250897 
L 116.899073 63.775356 
L 116.583056 63.990043 
L 116.296944 64.180702 
L 116.065949 64.456691 
L 115.940013 64.747214 
L 115.888595 64.835036 
L 115.661341 64.834297 
L 115.388793 64.785158 
L 115.149622 64.954682 
L 114.961395 65.182559 
L 114.830791 66.035062 
L 114.624976 66.430344 
L 114.69524 66.661899 
L 115.048192 66.881601 
L 115.031636 67.168222 
L 114.709718 67.451011 
L 114.298527 67.669647 
L 113.607277 67.965428 
L 113.345272 68.168938 
L 113.587502 68.805519 
L 113.756506 69.247433 
L 113.686103 69.495561 
L 113.381548 69.680484 
L 113.112526 69.421318 
L 112.847625 69.204742 
L 112.540032 69.013572 
L 112.277811 68.846676 
L 112.04454 68.949518 
L 111.842439 69.076588 
L 111.699636 69.313127 
L 111.491909 69.423148 
L 110.933153 69.158785 
L 110.812429 69.156974 
L 110.551911 69.340621 
L 110.336796 69.538608 
L 109.941732 69.734307 
L 109.824052 67.788515 
L 109.70049 66.035428 
L 109.54367 62.317807 
L 109.527744 62.206922 
L 109.125442 59.406 
L 110.151745 59.333543 
L 110.686756 59.213939 
L 111.675025 57.687553 
L 112.129915 57.616225 
L 112.845114 56.726876 
L 113.226566 56.275434 
L 113.563597 55.876564 
L 113.677864 55.111429 
L 113.682327 55.086219 
L 113.804613 54.395439 
L 113.97648 54.001039 
L 114.28663 53.275283 
L 114.433854 52.858947 
L 114.558345 52.488662 
L 114.664792 52.522685 
L 115.028002 52.638775 
L 115.289501 52.111404 
L 115.531052 51.90953 
L 115.517247 51.393187 
L 115.505605 50.954054 
L 115.281515 50.913485 
L 115.255765 50.908823 
L 115.369701 50.639548 
L 115.437437 50.50664 
L 115.573689 50.239292 
L 115.818832 49.89395 
L 116.289246 49.461349 
L 116.363709 48.882139 
L 116.411982 48.232027 
L 118.877228 47.743606 
L 119.104653 47.693254 
L 119.835278 47.525328 
L 120.820019 47.223973 
L 121.244285 47.09422 
L 121.623936 46.925295 
L 122.181679 46.677192 
L 122.417228 47.317017 
L 121.605499 47.659095 
L 121.422159 47.736412 
L 120.663243 47.999189 
L 120.167112 48.170858 
L 119.242016 48.359527 
L 119.160243 48.376204 
L 119.448252 49.482258 
L 119.547925 49.843339 
L 119.663306 50.397195 
L 119.779515 51.13271 
L 119.855619 51.316174 
L 119.937359 51.513565 
L 120.19539 51.66058 
L 120.974263 51.505585 
L 121.435956 51.484381 
L 121.526166 51.697552 
L 122.446559 51.571119 
" style="fill:#c6dbef;stroke:#000000;stroke-width:0.25;"/>
    <path clip-path="url(#p725f292287)" d="M 125.96206 54.733453 
L 126.025503 55.314107 
L 126.630679 55.284859 
L 126.713424 55.608704 
L 127.190989 56.816572 
L 125.78219 57.62233 
L 125.263355 57.962519 
L 124.115371 58.715343 
L 123.98533 58.739187 
L 123.832139 58.767327 
L 123.697673 58.792027 
L 123.467579 58.834288 
L 123.104884 58.9008 
L 123.103842 59.220681 
L 123.102326 59.685602 
L 122.727566 60.490477 
L 121.168472 60.783425 
L 120.804664 60.843265 
L 120.403325 60.651787 
L 119.983119 59.275229 
L 120.756588 59.163362 
L 121.479469 59.05871 
L 121.395868 58.473875 
L 121.349934 58.229484 
L 121.222683 57.134878 
L 121.201575 56.42025 
L 121.185839 55.887295 
L 121.130776 55.349245 
L 122.633873 55.157591 
L 122.971494 55.114547 
L 123.574483 55.037703 
L 123.971569 54.987099 
L 124.220238 54.95541 
L 124.694699 54.894938 
L 125.154098 54.836405 
L 125.625149 54.776348 
L 125.96206 54.733453 
" style="fill:#c6dbef;stroke:#000000;stroke-width:0.25;"/>
    <path clip-path="url(#p725f292287)" d="M 225.834674 168.123608 
L 225.914423 168.225926 
L 226.127033 168.390154 
L 226.066536 168.471411 
L 226.330388 168.561163 
L 226.540594 168.185644 
L 226.681735 168.317835 
L 226.923813 168.54447 
L 227.512381 168.990009 
L 227.530229 169.003553 
L 228.391904 168.211315 
L 228.509335 168.052337 
L 229.74606 168.919356 
L 229.744677 169.362014 
L 229.426486 169.586437 
L 229.39093 169.697719 
L 229.344364 169.843464 
L 229.310472 169.993645 
L 229.304276 170.021691 
L 229.25121 170.261894 
L 229.2506 170.264657 
L 229.24164 170.269518 
L 228.980999 170.410921 
L 228.951654 170.426841 
L 228.848745 170.396652 
L 228.551699 170.309512 
L 228.535651 170.318766 
L 228.367966 170.415457 
L 228.34422 170.42915 
L 228.27854 170.613284 
L 228.22578 171.004956 
L 228.005082 170.962755 
L 227.66485 170.906375 
L 227.501917 170.999059 
L 227.454364 171.049487 
L 227.210704 171.307878 
L 226.892276 171.519102 
L 226.666535 171.662946 
L 226.308282 171.891489 
L 225.891969 172.318528 
L 225.646745 172.594153 
L 225.36979 172.845968 
L 224.837081 173.048933 
L 224.71382 173.556794 
L 224.713764 173.557025 
L 224.71354 173.557569 
L 224.29944 174.562696 
L 222.933364 174.143865 
L 222.03186 173.718116 
L 221.430714 173.255223 
L 220.679027 172.37853 
L 219.89193 171.307707 
L 220.512672 170.572115 
L 221.149905 169.790454 
L 222.070351 168.79617 
L 222.619843 168.048554 
L 222.842734 167.659311 
L 223.343647 167.493135 
L 223.52404 168.064574 
L 224.089852 167.982925 
L 224.753575 168.008055 
L 224.721775 167.797756 
L 224.88561 167.81464 
L 225.137702 167.813803 
L 225.182315 167.973764 
L 225.231791 168.247706 
L 225.648595 168.173919 
L 225.834674 168.123608 
" style="fill:#c6dbef;stroke:#000000;stroke-width:0.25;"/>
    <path clip-path="url(#p725f292287)" d="M 236.55599 159.256731 
L 235.562606 160.800431 
L 234.652936 162.244504 
L 234.652765 162.244381 
L 234.28869 161.984519 
L 234.179886 162.168516 
L 233.927121 162.595963 
L 233.702269 163.098738 
L 233.838862 163.397109 
L 233.989831 163.727037 
L 234.067905 163.94431 
L 234.035622 164.03943 
L 233.940391 164.061816 
L 233.939821 164.06195 
L 233.885431 164.060485 
L 233.839601 164.047696 
L 233.798495 164.02442 
L 233.750237 164.015738 
L 233.703375 164.014157 
L 233.622655 164.028781 
L 233.562642 164.051992 
L 233.505658 164.185063 
L 233.502342 164.207822 
L 233.498094 164.236982 
L 233.491969 164.28337 
L 233.491749 164.347236 
L 233.494271 164.405454 
L 233.499116 164.517287 
L 233.530837 164.626395 
L 233.565974 164.733243 
L 233.59682 164.844056 
L 233.596977 164.84462 
L 233.600959 164.856753 
L 233.626492 164.93456 
L 233.626343 164.934984 
L 233.601965 165.004444 
L 233.55324 165.131441 
L 233.4833 165.232534 
L 233.465315 165.258729 
L 233.43948 165.296108 
L 233.411008 165.315737 
L 233.387794 165.334391 
L 233.299868 165.297188 
L 233.234919 165.186262 
L 233.196994 165.064076 
L 233.011563 164.884611 
L 232.885474 164.794197 
L 232.703545 164.79357 
L 232.569697 164.811842 
L 232.501614 164.832224 
L 232.411746 164.859127 
L 232.29133 164.936061 
L 232.249032 164.970119 
L 232.224277 165.023823 
L 232.202625 165.083641 
L 232.197977 165.119864 
L 232.194015 165.150742 
L 232.196246 165.327446 
L 232.205674 165.4765 
L 232.233321 165.696437 
L 232.233314 165.696578 
L 232.220541 165.943058 
L 232.216064 165.958565 
L 232.169945 166.118303 
L 232.11906 166.295108 
L 232.043528 166.411794 
L 231.961982 166.477333 
L 231.946115 166.490085 
L 231.937633 166.60246 
L 231.926149 166.637902 
L 231.845328 166.682046 
L 231.572043 166.774349 
L 231.491953 166.812392 
L 231.467498 166.820256 
L 231.394362 166.859885 
L 231.394281 166.860276 
L 231.387573 166.892788 
L 231.405292 166.944084 
L 231.443378 167.019435 
L 231.462836 167.060519 
L 231.509536 167.191392 
L 231.3361 167.240469 
L 231.266378 167.278548 
L 231.129779 167.353298 
L 231.014166 167.437629 
L 230.908065 167.522986 
L 230.620494 167.351118 
L 230.485 167.270038 
L 230.228033 167.11928 
L 230.145844 167.065917 
L 229.854356 166.876437 
L 229.530766 166.688692 
L 229.414773 166.635923 
L 229.254861 166.551779 
L 229.08338 166.445596 
L 228.8579 166.265569 
L 229.036843 166.101978 
L 229.232669 165.943697 
L 229.412546 166.003924 
L 229.570604 165.883832 
L 229.460653 165.602585 
L 228.898625 165.656711 
L 228.44634 165.392594 
L 228.510703 165.219667 
L 228.61144 164.876981 
L 228.569037 164.773181 
L 228.568767 164.77252 
L 228.573621 164.769967 
L 228.973269 164.559747 
L 229.280142 164.777097 
L 229.489479 164.860985 
L 229.738223 164.966724 
L 229.957179 164.73174 
L 230.101522 164.511544 
L 230.172883 164.45133 
L 230.306773 164.338251 
L 230.372864 164.28256 
L 230.638984 164.044049 
L 230.872454 163.718426 
L 230.91275 163.647318 
L 231.065357 163.378045 
L 231.36239 162.947474 
L 231.484243 162.865719 
L 231.655562 162.524696 
L 231.798851 162.239637 
L 231.883261 162.060534 
L 232.192465 161.560321 
L 232.357743 161.571108 
L 232.476262 161.426753 
L 232.864334 160.954628 
L 233.095806 160.632405 
L 233.270481 160.389321 
L 233.693326 160.047746 
L 234.091212 159.984257 
L 234.636576 159.945262 
L 235.055176 159.064073 
L 235.63845 158.945873 
L 236.177779 159.092355 
L 236.55599 159.256731 
" style="fill:#c6dbef;stroke:#000000;stroke-width:0.25;"/>
    <path clip-path="url(#p725f292287)" d="M 230.908065 167.522986 
L 230.894705 167.564729 
L 230.860832 167.670567 
L 230.875142 167.769184 
L 230.876924 167.781465 
L 230.900039 167.997697 
L 230.900325 167.998263 
L 230.977904 168.151953 
L 230.979276 168.372083 
L 230.953231 168.496895 
L 230.938553 168.567232 
L 230.938125 168.567511 
L 230.935403 168.569284 
L 230.815001 168.647703 
L 230.783315 168.664317 
L 230.594753 168.763181 
L 230.592619 168.764309 
L 230.341368 168.768269 
L 230.25446 168.723404 
L 230.167558 168.678542 
L 229.970369 168.65558 
L 229.884017 168.780035 
L 229.850878 168.876288 
L 229.844934 168.87873 
L 229.74606 168.919356 
L 228.509335 168.052337 
L 228.391904 168.211315 
L 227.530229 169.003553 
L 227.512381 168.990009 
L 226.923813 168.54447 
L 226.681735 168.317835 
L 226.540594 168.185644 
L 226.330388 168.561163 
L 226.066536 168.471411 
L 226.127033 168.390154 
L 225.914423 168.225926 
L 225.834674 168.123608 
L 226.086919 168.036908 
L 226.314645 167.976805 
L 226.401161 167.886981 
L 226.712036 167.60122 
L 226.901159 167.409421 
L 227.084733 167.179141 
L 227.562152 166.824978 
L 227.894454 167.081302 
L 228.125104 166.873324 
L 228.52005 166.589414 
L 228.685928 166.425636 
L 228.691315 166.420622 
L 228.8579 166.265569 
L 229.08338 166.445596 
L 229.254861 166.551779 
L 229.414773 166.635923 
L 229.530766 166.688692 
L 229.854356 166.876437 
L 230.145844 167.065917 
L 230.228033 167.11928 
L 230.485 167.270038 
L 230.620494 167.351118 
L 230.908065 167.522986 
" style="fill:#c6dbef;stroke:#000000;stroke-width:0.25;"/>
    <path clip-path="url(#p725f292287)" d="M 299.432188 124.645537 
L 299.405117 124.669569 
L 299.359581 124.693537 
L 298.896091 124.985414 
L 298.88877 124.990087 
L 298.737082 125.086901 
L 298.335361 125.342946 
L 298.059929 125.51215 
L 297.911317 125.605584 
L 297.873379 125.629391 
L 297.843844 125.647925 
L 297.698364 125.739383 
L 297.546388 125.658517 
L 297.41781 125.669135 
L 297.353366 125.698146 
L 297.142428 125.82443 
L 297.101074 125.855324 
L 297.044531 125.897567 
L 296.994751 125.934756 
L 296.846623 125.971279 
L 296.796442 125.983592 
L 296.737313 125.995732 
L 296.446493 126.057868 
L 296.357087 126.076998 
L 296.132493 126.128296 
L 296.035849 126.11444 
L 295.982297 126.106762 
L 295.917939 126.111362 
L 295.917444 126.122223 
L 295.90609 126.371049 
L 295.911014 126.626963 
L 295.594329 126.6531 
L 295.683639 127.226946 
L 295.425867 127.26209 
L 295.144094 127.382075 
L 295.143223 127.382445 
L 294.95884 127.299076 
L 294.858189 127.253566 
L 294.857463 127.253762 
L 294.814226 127.265436 
L 294.764784 127.278785 
L 294.646214 127.311154 
L 294.580775 127.340729 
L 294.436535 127.564469 
L 294.275197 127.803761 
L 294.065688 127.604325 
L 294.406051 127.347212 
L 294.366866 127.155873 
L 294.366115 127.152204 
L 294.240109 126.875427 
L 294.143802 126.797028 
L 294.162002 126.467818 
L 294.271138 126.128993 
L 294.285777 126.045449 
L 294.439145 125.608707 
L 294.568364 125.617676 
L 294.616466 125.388631 
L 294.620086 125.353459 
L 294.627691 125.279555 
L 294.63073 125.250017 
L 294.603056 125.073379 
L 294.602449 125.069506 
L 294.602252 125.068249 
L 294.603648 125.068463 
L 294.916688 125.116474 
L 295.187109 124.957897 
L 295.359326 124.856881 
L 295.430204 124.815545 
L 295.556098 124.742008 
L 296.184248 124.375095 
L 296.266606 124.341038 
L 297.167119 124.071146 
L 297.175588 124.068608 
L 297.311237 124.026506 
L 297.565471 123.947779 
L 298.690606 123.480533 
L 298.731806 123.47784 
L 299.217317 124.355246 
L 299.432188 124.645537 
" style="fill:#08306b;stroke:#000000;stroke-width:0.25;"/>
    <path clip-path="url(#p725f292287)" d="M 297.367991 134.343243 
L 297.104174 134.759683 
L 297.104125 134.759644 
L 296.853289 134.561024 
L 296.784781 134.506777 
L 296.851392 134.023178 
L 296.874366 133.871821 
L 296.982883 133.708985 
L 297.035909 133.645023 
L 297.18115 133.469824 
L 297.181271 133.469631 
L 297.32399 133.240403 
L 297.361417 133.142082 
L 297.433051 132.9539 
L 297.433086 132.953807 
L 297.731934 132.426266 
L 297.745225 132.402804 
L 297.761477 132.374989 
L 297.88869 132.157206 
L 298.048873 131.88328 
L 298.258634 131.566524 
L 298.31216 131.485839 
L 298.530081 131.156881 
L 298.547487 131.134801 
L 298.558947 131.120329 
L 298.897022 130.693357 
L 299.075213 130.468459 
L 299.1487 130.373631 
L 299.554055 129.850629 
L 299.65322 129.722676 
L 299.746816 129.601796 
L 299.958698 129.328478 
L 300.265035 128.933292 
L 300.690957 128.580823 
L 300.874716 128.428754 
L 300.973755 128.375732 
L 301.084327 128.316518 
L 301.17092 128.249265 
L 301.269762 128.172546 
L 301.421706 127.992745 
L 301.461455 127.945709 
L 301.594099 127.788778 
L 301.757813 127.60505 
L 301.758372 127.604423 
L 301.758271 127.603974 
L 301.757672 127.601299 
L 301.66674 127.368215 
L 301.618317 127.241513 
L 301.609601 127.218705 
L 301.91444 127.208992 
L 301.932949 127.196284 
L 301.941014 127.187423 
L 301.958187 127.168555 
L 302.114219 127.347651 
L 302.206814 127.537643 
L 302.246631 127.619343 
L 302.283968 127.946904 
L 302.329482 128.251502 
L 302.354288 128.426871 
L 302.419953 128.857147 
L 302.435217 128.959389 
L 302.462898 129.165283 
L 302.425949 129.17083 
L 302.309383 129.198805 
L 301.910902 129.462523 
L 301.735075 129.578846 
L 301.56054 129.694336 
L 301.49861 129.735561 
L 301.22313 129.918813 
L 301.000796 130.135181 
L 300.75448 130.346074 
L 300.616145 130.464519 
L 300.500263 130.580776 
L 300.403053 130.678081 
L 300.225591 130.857279 
L 300.095881 130.987822 
L 299.992555 131.08766 
L 299.945666 131.133054 
L 299.716783 131.354082 
L 299.485832 131.597386 
L 299.417457 131.653916 
L 299.031453 131.9648 
L 298.938108 132.056022 
L 298.841897 132.150059 
L 298.742106 132.254734 
L 298.578729 132.46762 
L 298.455304 132.628416 
L 298.402318 132.751707 
L 298.338567 132.866587 
L 298.267778 133.003724 
L 298.243795 133.042967 
L 298.242502 133.045084 
L 298.192921 133.126229 
L 297.960434 133.403022 
L 297.885553 133.492174 
L 297.691327 133.793798 
L 297.594066 133.986478 
L 297.534794 134.079942 
L 297.367991 134.343243 
" style="fill:#08306b;stroke:#000000;stroke-width:0.25;"/>
    <path clip-path="url(#p725f292287)" d="M 301.272313 126.440315 
L 301.381315 126.54374 
L 301.432578 126.59199 
L 301.534488 126.687911 
L 301.744845 126.928653 
L 301.852377 127.046123 
L 301.958187 127.168555 
L 301.941014 127.187423 
L 301.932949 127.196284 
L 301.91444 127.208992 
L 301.609601 127.218705 
L 301.582092 127.207769 
L 301.455426 127.157416 
L 301.28422 127.078289 
L 301.249953 127.062452 
L 301.098616 127.042333 
L 301.024028 127.057816 
L 300.939279 127.075408 
L 300.82455 127.106087 
L 300.616273 127.161983 
L 300.130825 127.276229 
L 299.590498 127.527101 
L 298.914654 127.903814 
L 298.318933 128.235817 
L 297.340001 128.690234 
L 297.117737 128.633269 
L 297.093512 128.62706 
L 296.463025 128.465741 
L 295.811411 127.970958 
L 295.440998 127.64464 
L 295.385013 127.595344 
L 295.143223 127.382445 
L 295.144094 127.382075 
L 295.425867 127.26209 
L 295.683639 127.226946 
L 295.594329 126.6531 
L 295.911014 126.626963 
L 295.90609 126.371049 
L 295.917444 126.122223 
L 295.917939 126.111362 
L 295.982297 126.106762 
L 296.035849 126.11444 
L 296.132493 126.128296 
L 296.357087 126.076998 
L 296.446493 126.057868 
L 296.737313 125.995732 
L 296.796442 125.983592 
L 296.846623 125.971279 
L 296.994751 125.934756 
L 297.044531 125.897567 
L 297.101074 125.855324 
L 297.142428 125.82443 
L 297.353366 125.698146 
L 297.41781 125.669135 
L 297.546388 125.658517 
L 297.698364 125.739383 
L 297.843844 125.647925 
L 297.873379 125.629391 
L 297.911317 125.605584 
L 298.059929 125.51215 
L 298.335361 125.342946 
L 298.737082 125.086901 
L 298.88877 124.990087 
L 298.896091 124.985414 
L 299.359581 124.693537 
L 299.405117 124.669569 
L 299.432188 124.645537 
L 299.57072 124.83337 
L 299.866359 125.177878 
L 300.479516 125.703753 
L 300.84198 126.028626 
L 301.272313 126.440315 
" style="fill:#08306b;stroke:#000000;stroke-width:0.25;"/>
    <path clip-path="url(#p725f292287)" d="M 298.731806 123.47784 
L 298.690606 123.480533 
L 297.565471 123.947779 
L 297.311237 124.026506 
L 297.175588 124.068608 
L 297.167119 124.071146 
L 296.266606 124.341038 
L 296.184248 124.375095 
L 295.556098 124.742008 
L 295.430204 124.815545 
L 295.359326 124.856881 
L 295.187109 124.957897 
L 294.916688 125.116474 
L 294.603648 125.068463 
L 294.602252 125.068249 
L 294.725483 124.96252 
L 294.758141 124.601427 
L 294.759479 124.389601 
L 294.760381 124.246756 
L 294.748478 124.076968 
L 294.773232 123.903903 
L 294.127786 123.552067 
L 294.282786 123.338157 
L 294.258963 123.246246 
L 294.228837 123.129333 
L 294.077384 122.939611 
L 295.890404 122.228151 
L 295.919553 122.216712 
L 296.572798 121.966233 
L 297.041576 121.786496 
L 297.075995 121.773276 
L 297.130041 121.752602 
L 297.204567 121.724053 
L 297.821261 121.487639 
L 297.92945 121.418474 
L 297.864907 121.597077 
L 298.245681 122.370507 
L 298.273393 122.447104 
L 298.473563 123.000051 
L 298.601838 123.237239 
L 298.731806 123.47784 
" style="fill:#08306b;stroke:#000000;stroke-width:0.25;"/>
    <path clip-path="url(#p725f292287)" d="M 294.602252 125.068249 
L 294.602449 125.069506 
L 294.603056 125.073379 
L 294.63073 125.250017 
L 294.627691 125.279555 
L 294.620086 125.353459 
L 294.616466 125.388631 
L 294.568364 125.617676 
L 294.439145 125.608707 
L 294.285777 126.045449 
L 294.271138 126.128993 
L 293.765898 126.015095 
L 293.724131 126.179585 
L 293.616422 126.192832 
L 293.473842 126.146347 
L 293.261371 126.102738 
L 293.062114 126.097923 
L 292.902855 126.086676 
L 292.882344 126.085228 
L 292.505445 126.06886 
L 291.74888 126.035267 
L 291.748807 126.035264 
L 291.859554 125.601353 
L 291.880668 125.554238 
L 291.977227 125.338773 
L 292.077722 125.114453 
L 292.190893 124.961142 
L 292.321418 124.80037 
L 292.368586 124.720379 
L 292.461884 124.562158 
L 292.469161 124.549818 
L 292.521171 124.461437 
L 292.546632 124.413748 
L 292.607241 124.300225 
L 292.889524 123.999477 
L 293.135942 123.719466 
L 293.309255 123.751156 
L 293.489625 123.774314 
L 293.513833 123.777422 
L 293.609928 123.754767 
L 293.611969 123.753949 
L 293.803433 123.67726 
L 293.927821 123.627438 
L 294.103236 123.56132 
L 294.127786 123.552067 
L 294.773232 123.903903 
L 294.748478 124.076968 
L 294.760381 124.246756 
L 294.759479 124.389601 
L 294.758141 124.601427 
L 294.725483 124.96252 
L 294.602252 125.068249 
" style="fill:#08306b;stroke:#000000;stroke-width:0.25;"/>
    <path clip-path="url(#p725f292287)" d="M 294.271138 126.128993 
L 294.162002 126.467818 
L 294.143802 126.797028 
L 294.240109 126.875427 
L 294.366115 127.152204 
L 294.366866 127.155873 
L 294.406051 127.347212 
L 294.065688 127.604325 
L 294.275197 127.803761 
L 294.07949 128.122696 
L 294.073539 128.133063 
L 293.96102 128.329069 
L 293.739532 128.66906 
L 293.603939 128.857349 
L 293.335572 129.118689 
L 292.967865 128.992643 
L 292.852269 128.946962 
L 292.750921 128.847824 
L 292.575216 128.680509 
L 292.268768 128.388696 
L 292.02134 128.147827 
L 291.600515 127.575799 
L 291.593514 127.56624 
L 291.388622 127.286515 
L 291.436216 127.108156 
L 291.440004 127.093957 
L 291.447484 127.066327 
L 291.511666 126.829229 
L 291.664424 126.403981 
L 291.747892 126.039265 
L 291.748807 126.035264 
L 291.74888 126.035267 
L 292.505445 126.06886 
L 292.882344 126.085228 
L 292.902855 126.086676 
L 293.062114 126.097923 
L 293.261371 126.102738 
L 293.473842 126.146347 
L 293.616422 126.192832 
L 293.724131 126.179585 
L 293.765898 126.015095 
L 294.271138 126.128993 
" style="fill:#08306b;stroke:#000000;stroke-width:0.25;"/>
    <path clip-path="url(#p725f292287)" d="M 305.638952 139.169701 
L 302.287847 139.704101 
L 301.896581 139.766497 
L 301.896655 139.52419 
L 301.896675 139.458087 
L 301.899455 139.451117 
L 302.03152 139.120062 
L 302.16834 139.107488 
L 302.236315 139.102942 
L 302.263098 139.101151 
L 302.50599 139.096189 
L 303.238589 139.176836 
L 304.108329 139.03372 
L 304.491828 138.627738 
L 304.526907 137.985208 
L 304.518161 137.686417 
L 304.508783 137.365767 
L 304.306967 137.122352 
L 304.009818 136.76393 
L 303.494502 136.126696 
L 303.353652 135.95262 
L 303.204997 135.776671 
L 302.795239 135.291958 
L 302.433163 134.899383 
L 302.346996 134.805973 
L 302.127258 134.567752 
L 302.118627 134.558354 
L 301.908512 134.330528 
L 301.682564 134.042464 
L 301.605215 133.943838 
L 301.537466 133.581113 
L 301.481149 133.279316 
L 301.341445 132.900726 
L 301.333731 132.88395 
L 301.12311 132.425914 
L 300.86471 132.033693 
L 300.856314 131.998904 
L 300.852631 131.956029 
L 300.848577 131.816499 
L 300.829193 131.674502 
L 300.992513 131.556984 
L 301.119677 131.465471 
L 301.395613 131.35432 
L 301.536599 131.24837 
L 301.662167 131.084176 
L 301.790231 131.01792 
L 301.891841 130.961935 
L 302.158812 130.814842 
L 302.641015 130.613584 
L 302.692291 130.572606 
L 302.921476 131.233383 
L 303.138447 131.732318 
L 303.272134 132.165672 
L 303.314122 132.30193 
L 303.732907 133.207494 
L 303.916717 133.604691 
L 303.979195 133.729951 
L 304.115347 134.027914 
L 304.365524 134.575223 
L 304.914526 136.372562 
L 305.035625 136.870734 
L 305.508118 138.814416 
L 305.638952 139.169701 
" style="fill:#08306b;stroke:#000000;stroke-width:0.25;"/>
    <path clip-path="url(#p725f292287)" d="M 300.848577 131.816499 
L 300.852631 131.956029 
L 300.856314 131.998904 
L 300.86471 132.033693 
L 300.529829 131.985264 
L 300.184268 131.933394 
L 300.184161 131.933378 
L 299.823777 132.0272 
L 299.509836 132.121613 
L 299.134607 132.241766 
L 299.014726 132.280154 
L 299.014435 132.280247 
L 298.669216 132.78671 
L 298.470664 133.106769 
L 298.540496 133.201114 
L 298.759178 133.496953 
L 298.759385 133.497377 
L 299.086055 134.165452 
L 299.082174 134.501242 
L 299.057573 134.711067 
L 299.001393 134.78716 
L 299.001344 134.787227 
L 298.917644 134.839871 
L 298.739213 134.971662 
L 298.537792 135.017363 
L 298.051678 135.12082 
L 297.366196 134.96924 
L 297.104174 134.759683 
L 297.367991 134.343243 
L 297.534794 134.079942 
L 297.594066 133.986478 
L 297.691327 133.793798 
L 297.885553 133.492174 
L 297.960434 133.403022 
L 298.192921 133.126229 
L 298.242502 133.045084 
L 298.243795 133.042967 
L 298.267778 133.003724 
L 298.338567 132.866587 
L 298.402318 132.751707 
L 298.455304 132.628416 
L 298.578729 132.46762 
L 298.742106 132.254734 
L 298.841897 132.150059 
L 298.938108 132.056022 
L 299.031453 131.9648 
L 299.417457 131.653916 
L 299.485832 131.597386 
L 299.716783 131.354082 
L 299.945666 131.133054 
L 299.992555 131.08766 
L 300.095881 130.987822 
L 300.225591 130.857279 
L 300.403053 130.678081 
L 300.500263 130.580776 
L 300.616145 130.464519 
L 300.75448 130.346074 
L 301.000796 130.135181 
L 301.22313 129.918813 
L 301.56054 129.694336 
L 301.735075 129.578846 
L 302.309383 129.198805 
L 302.425949 129.17083 
L 302.462898 129.165283 
L 302.555697 129.835514 
L 302.692291 130.572606 
L 302.641015 130.613584 
L 302.158812 130.814842 
L 301.891841 130.961935 
L 301.790231 131.01792 
L 301.662167 131.084176 
L 301.536599 131.24837 
L 301.395613 131.35432 
L 301.119677 131.465471 
L 300.992513 131.556984 
L 300.829193 131.674502 
L 300.848577 131.816499 
" style="fill:#08306b;stroke:#000000;stroke-width:0.25;"/>
    <path clip-path="url(#p725f292287)" d="M 306.235833 150.164358 
L 306.451016 150.957504 
L 307.113325 150.910599 
L 307.125171 151.014675 
L 307.171317 151.419904 
L 307.178574 151.694988 
L 307.188847 152.084904 
L 307.267108 152.445113 
L 307.298273 152.58843 
L 307.365459 152.987772 
L 307.638528 153.925329 
L 307.713775 154.093782 
L 308.144408 155.055884 
L 308.578141 156.024242 
L 308.873928 156.842377 
L 308.952373 157.030001 
L 309.065179 157.300493 
L 309.077307 157.352725 
L 309.242843 158.065695 
L 309.327464 158.43416 
L 309.020355 158.485797 
L 308.708277 158.538269 
L 308.139541 158.633475 
L 307.919411 158.549524 
L 307.891513 158.326029 
L 307.859539 158.090739 
L 307.465532 158.016107 
L 306.66598 158.157191 
L 306.245928 158.380712 
L 306.23781 158.385032 
L 306.013945 157.671045 
L 305.946581 157.442443 
L 305.895913 157.270389 
L 305.662951 156.479444 
L 305.364611 156.020525 
L 304.864864 155.243256 
L 304.34808 154.74496 
L 304.244356 154.567681 
L 304.064741 154.26069 
L 304.057536 154.212087 
L 304.012999 153.911646 
L 304.140423 153.663863 
L 304.519736 153.636819 
L 305.023386 153.753137 
L 305.258234 153.684477 
L 305.471383 153.622161 
L 305.679453 153.422351 
L 305.707275 153.065498 
L 305.645214 152.708621 
L 305.635728 152.654077 
L 305.552305 152.508305 
L 305.320816 152.104006 
L 304.985558 151.518474 
L 304.884141 151.37969 
L 304.263283 150.530081 
L 304.051659 150.248739 
L 305.036515 150.081907 
L 305.231043 150.096788 
L 305.945259 150.151829 
L 306.232864 150.153414 
L 306.235833 150.164358 
" style="fill:#c6dbef;stroke:#000000;stroke-width:0.25;"/>
    <path clip-path="url(#p725f292287)" d="M 304.734502 158.086909 
L 304.63677 158.853973 
L 304.516349 158.84858 
L 304.37563 158.83985 
L 304.26631 159.309815 
L 304.261246 159.416244 
L 304.485077 159.417746 
L 304.448515 159.836023 
L 304.373936 159.840159 
L 304.333049 160.236564 
L 304.446821 160.274436 
L 304.556478 160.311441 
L 304.624706 160.456309 
L 304.665243 160.560202 
L 304.665773 160.561186 
L 304.796184 160.803081 
L 304.910526 160.800505 
L 305.468015 160.751952 
L 305.609056 160.749755 
L 305.957554 160.720475 
L 306.586921 160.66863 
L 306.881574 160.644268 
L 307.271145 160.607186 
L 308.142778 160.52526 
L 308.480371 160.487285 
L 309.267579 160.409995 
L 309.673254 160.370165 
L 309.737146 161.617099 
L 309.737068 161.639179 
L 309.735228 162.157559 
L 309.202953 162.024953 
L 309.044923 162.051785 
L 308.7285 162.327851 
L 308.211458 162.262782 
L 308.183073 162.25921 
L 308.105278 162.248999 
L 308.016162 162.22711 
L 307.850295 162.180962 
L 307.412861 162.057778 
L 307.300005 161.841646 
L 307.176729 161.760309 
L 306.49789 161.74513 
L 306.051326 161.913863 
L 305.598208 161.92787 
L 305.499574 161.906515 
L 305.145533 161.816981 
L 304.645547 161.830823 
L 304.238911 161.95428 
L 303.503715 161.811168 
L 303.208551 161.739585 
L 302.54722 161.593471 
L 302.245682 161.476874 
L 301.768553 161.292666 
L 301.429077 161.3014 
L 301.001143 161.021706 
L 300.625281 160.475371 
L 300.625455 160.474767 
L 301.028631 159.071702 
L 301.105656 158.80348 
L 301.105707 158.803304 
L 301.34302 158.164753 
L 301.580196 157.525209 
L 301.952395 157.099319 
L 302.445084 156.739853 
L 302.638108 156.617341 
L 302.963421 156.517722 
L 303.272379 156.424432 
L 303.389419 156.381983 
L 303.843936 156.37465 
L 304.145654 156.522196 
L 304.149772 156.531198 
L 304.197798 156.636199 
L 304.30776 156.867791 
L 304.456656 157.495927 
L 304.457359 157.497917 
L 304.648776 157.829431 
L 304.653986 157.846042 
L 304.664506 157.879587 
L 304.734502 158.086909 
" style="fill:#c6dbef;stroke:#000000;stroke-width:0.25;"/>
    <path clip-path="url(#p725f292287)" d="M 301.001143 161.021706 
L 301.429077 161.3014 
L 301.768553 161.292666 
L 302.245682 161.476874 
L 302.54722 161.593471 
L 303.208551 161.739585 
L 303.503715 161.811168 
L 304.238911 161.95428 
L 304.645547 161.830823 
L 305.145533 161.816981 
L 305.499574 161.906515 
L 305.598208 161.92787 
L 306.051326 161.913863 
L 306.49789 161.74513 
L 307.176729 161.760309 
L 307.300005 161.841646 
L 307.412861 162.057778 
L 307.333526 162.521889 
L 307.277992 162.842878 
L 307.23974 163.056488 
L 307.189578 163.330309 
L 307.10273 163.804394 
L 307.00119 164.403969 
L 306.945771 164.731203 
L 306.862151 165.242419 
L 306.793899 165.585361 
L 306.658711 166.260039 
L 306.588285 166.638849 
L 306.58791 166.640868 
L 305.997208 166.434248 
L 305.44861 166.242357 
L 305.375794 166.216887 
L 304.543736 165.954776 
L 303.931651 165.780023 
L 303.392111 165.654208 
L 302.673877 165.535284 
L 302.573509 165.522722 
L 301.948441 165.44472 
L 301.162368 165.391838 
L 300.805604 165.3497 
L 300.482101 165.34518 
L 300.140686 165.340409 
L 300.139248 165.340389 
L 300.138538 165.316109 
L 300.096291 163.872694 
L 300.155615 163.161841 
L 300.207251 162.617017 
L 300.322945 161.910195 
L 300.466946 161.030462 
L 300.467678 161.027899 
L 300.625281 160.475371 
L 301.001143 161.021706 
" style="fill:#c6dbef;stroke:#000000;stroke-width:0.25;"/>
    <path clip-path="url(#p725f292287)" d="M 304.291757 148.020027 
L 304.315856 148.354497 
L 304.312454 148.424455 
L 304.299314 148.694642 
L 303.842827 148.695441 
L 303.850278 148.757348 
L 303.84568 149.134011 
L 303.658017 149.145696 
L 303.280703 149.169058 
L 302.846363 149.172633 
L 302.559171 149.17474 
L 302.363865 149.05852 
L 301.973788 148.800664 
L 301.971217 148.798965 
L 301.552348 148.523989 
L 301.511237 148.461537 
L 301.414846 148.309011 
L 301.357426 148.218153 
L 301.326161 147.8249 
L 301.320709 147.75633 
L 301.352141 147.663619 
L 301.36666 147.663421 
L 302.286886 147.650882 
L 302.42893 147.646984 
L 302.779111 147.665395 
L 303.364945 147.636524 
L 303.397515 147.864861 
L 303.539551 147.863234 
L 303.829034 147.856167 
L 304.190969 147.884271 
L 304.291757 148.020027 
" style="fill:#c6dbef;stroke:#000000;stroke-width:0.25;"/>
    <path clip-path="url(#p725f292287)" d="M 304.515157 145.331548 
L 305.058757 145.398331 
L 305.20811 145.376008 
L 305.294506 145.36425 
L 305.897149 145.282075 
L 306.040634 145.272647 
L 306.33897 145.252413 
L 306.890664 145.199465 
L 306.890947 145.199438 
L 306.941955 145.635767 
L 306.911843 146.077769 
L 306.909189 146.185626 
L 306.888771 146.617444 
L 306.136934 146.677375 
L 306.110902 146.799401 
L 306.109493 146.806007 
L 306.10874 146.806039 
L 305.682059 146.824082 
L 305.194099 146.84833 
L 305.20063 146.991118 
L 305.202273 147.027047 
L 304.409901 147.14304 
L 304.101831 147.18524 
L 303.923767 147.213422 
L 303.716545 147.253565 
L 303.565691 147.342138 
L 303.538496 147.358105 
L 303.043367 147.361323 
L 302.760321 147.35564 
L 302.300354 147.376298 
L 302.185174 147.285812 
L 301.930681 147.085883 
L 301.794043 146.921138 
L 301.793496 146.920478 
L 301.823987 146.882746 
L 301.833867 146.870519 
L 301.833985 146.870367 
L 302.093968 146.536486 
L 302.237501 146.352202 
L 302.25103 146.337971 
L 302.410711 146.170009 
L 302.563898 146.027202 
L 302.598242 145.994114 
L 302.72095 145.875893 
L 302.757067 145.83652 
L 302.866532 145.717186 
L 302.918851 145.66015 
L 303.121862 145.40497 
L 303.174219 145.339158 
L 303.356135 145.185524 
L 303.653839 145.223619 
L 304.116081 145.282875 
L 304.284031 145.303339 
L 304.515157 145.331548 
" style="fill:#c6dbef;stroke:#000000;stroke-width:0.25;"/>
    <path clip-path="url(#p725f292287)" d="M 345.846058 161.645161 
L 346.225602 161.949975 
L 346.451786 162.127209 
L 346.676844 162.341342 
L 346.985132 162.633836 
L 347.614953 163.169765 
L 348.24938 163.688253 
L 349.169294 164.441106 
L 349.400839 164.628012 
L 350.165313 165.318141 
L 350.765861 165.777893 
L 351.133998 166.054709 
L 351.674558 166.410352 
L 351.266315 167.133441 
L 350.659711 167.999592 
L 350.257962 168.655003 
L 349.935235 168.350106 
L 349.603136 168.202436 
L 349.395791 168.276487 
L 349.169421 168.387939 
L 348.944216 168.215674 
L 348.772061 168.062336 
L 348.926741 167.822887 
L 348.952902 167.53926 
L 348.818526 167.386057 
L 348.589526 167.360253 
L 348.240489 167.577286 
L 347.973317 167.542119 
L 347.75518 167.260593 
L 346.776692 166.840501 
L 346.188748 166.588018 
L 345.728049 166.41803 
L 345.461277 166.42956 
L 345.050901 166.247263 
L 344.607444 166.101041 
L 344.452163 166.073657 
L 344.051201 165.919497 
L 343.801273 165.591305 
L 343.777087 165.326233 
L 343.931429 165.180315 
L 343.919704 164.965105 
L 343.86134 164.883284 
L 343.748003 164.724482 
L 343.772569 164.291396 
L 344.30958 164.173394 
L 344.406198 163.92593 
L 344.346817 163.850351 
L 344.31487 163.808224 
L 344.266242 163.74418 
L 343.79633 163.528885 
L 343.758522 163.022764 
L 343.752149 162.93886 
L 343.808504 162.789183 
L 343.932687 162.459497 
L 343.843435 162.001022 
L 343.571309 161.763019 
L 343.313752 161.818299 
L 343.020645 161.806601 
L 342.850339 161.65171 
L 342.595297 161.639723 
L 342.380196 161.579482 
L 342.305832 161.285985 
L 342.215884 161.021244 
L 342.265172 160.308217 
L 342.951802 160.371571 
L 343.509995 160.486128 
L 343.945669 160.585768 
L 344.265491 160.712668 
L 344.719549 160.874114 
L 345.231194 161.215027 
L 345.846058 161.645161 
" style="fill:#c6dbef;stroke:#000000;stroke-width:0.25;"/>
    <path clip-path="url(#p725f292287)" d="M 343.020645 161.806601 
L 343.313752 161.818299 
L 343.571309 161.763019 
L 343.843435 162.001022 
L 343.932687 162.459497 
L 343.808504 162.789183 
L 343.752149 162.93886 
L 343.758522 163.022764 
L 343.79633 163.528885 
L 344.266242 163.74418 
L 344.31487 163.808224 
L 344.346817 163.850351 
L 344.127925 163.896685 
L 343.892495 163.920819 
L 343.450124 163.906739 
L 343.13979 163.827704 
L 342.813559 163.745631 
L 342.197974 163.635268 
L 341.439724 163.345844 
L 340.875731 163.106936 
L 340.123417 162.90468 
L 339.470979 162.852521 
L 338.761947 162.818753 
L 338.034044 162.740351 
L 337.827174 162.721868 
L 337.268632 162.744845 
L 337.020196 162.712872 
L 336.685167 162.667956 
L 336.25874 162.604121 
L 336.011146 162.614588 
L 336.027149 162.310346 
L 336.190914 162.269205 
L 336.250634 162.091721 
L 336.16495 161.548103 
L 335.998446 161.521108 
L 336.030436 161.23438 
L 336.046029 160.925595 
L 336.04905 160.320413 
L 336.466813 160.305161 
L 337.260998 160.278344 
L 337.700793 160.258488 
L 338.204812 160.231341 
L 339.06366 160.193545 
L 339.751293 160.214604 
L 340.775807 160.239854 
L 341.72509 160.292085 
L 342.033681 160.303128 
L 342.265172 160.308217 
L 342.215884 161.021244 
L 342.305832 161.285985 
L 342.380196 161.579482 
L 342.595297 161.639723 
L 342.850339 161.65171 
L 343.020645 161.806601 
" style="fill:#c6dbef;stroke:#000000;stroke-width:0.25;"/>
    <path clip-path="url(#p725f292287)" d="M 163.000816 147.108986 
L 163.233354 147.901116 
L 162.37171 148.06939 
L 162.055338 149.029846 
L 161.25533 149.496503 
L 160.894229 150.073055 
L 160.535487 150.66622 
L 160.430425 150.953259 
L 160.659575 151.569394 
L 160.969771 152.114982 
L 161.047567 152.251912 
L 161.312137 152.935579 
L 161.49868 153.042219 
L 161.961833 152.950952 
L 162.600592 152.542229 
L 163.131831 151.458312 
L 164.378394 152.464023 
L 164.827506 154.062567 
L 164.73932 154.56822 
L 164.481601 155.740193 
L 163.81529 155.76748 
L 162.305605 155.896113 
L 162.000264 155.810364 
L 161.750386 155.829396 
L 161.462221 156.170319 
L 161.326603 156.379056 
L 161.16686 156.624613 
L 160.910039 157.020848 
L 160.917639 157.126321 
L 160.343556 157.137172 
L 159.889952 157.261822 
L 159.494334 157.713936 
L 159.283959 157.641988 
L 159.119545 157.585805 
L 158.898716 157.539651 
L 158.206247 157.108451 
L 156.851235 156.980309 
L 155.807895 156.87095 
L 155.466099 157.027057 
L 155.475694 156.960528 
L 155.586839 155.871942 
L 155.365219 155.59474 
L 155.390681 155.114849 
L 155.496261 154.884581 
L 155.519988 154.669083 
L 155.571999 154.02153 
L 155.607215 152.91708 
L 155.58664 152.528716 
L 155.584723 152.379835 
L 155.534269 151.539922 
L 155.550387 151.221222 
L 155.556924 151.092238 
L 155.515538 150.471339 
L 155.483846 149.371206 
L 155.461357 148.236759 
L 155.460825 147.757917 
L 156.177068 147.749805 
L 156.701525 147.758652 
L 157.367115 147.778756 
L 157.852669 147.826927 
L 158.179477 147.8222 
L 158.801341 147.794758 
L 159.732558 147.333788 
L 159.966435 147.216208 
L 160.191208 147.103138 
L 160.805799 146.83015 
L 161.325496 146.43678 
L 161.641777 145.97035 
L 162.224699 146.079308 
L 162.974453 146.880689 
L 163.000816 147.108986 
" style="fill:#08306b;stroke:#000000;stroke-width:0.25;"/>
    <path clip-path="url(#p725f292287)" d="M 164.602851 165.618455 
L 164.709693 165.81722 
L 165.040267 165.703799 
L 165.177221 166.070415 
L 166.220832 165.630193 
L 166.241032 165.621672 
L 166.245012 165.619993 
L 166.244628 165.656702 
L 166.244024 165.714421 
L 166.243319 165.781921 
L 166.24247 165.863133 
L 166.241037 166.000187 
L 166.241253 166.003055 
L 166.244325 166.04376 
L 166.254518 166.178843 
L 166.266998 166.344238 
L 166.277853 166.488099 
L 166.293385 166.693932 
L 166.321162 166.780527 
L 166.358115 166.895725 
L 166.376924 166.95436 
L 166.512779 167.377878 
L 166.700276 167.960101 
L 167.050248 168.287128 
L 167.786338 168.918739 
L 167.685167 169.188192 
L 167.279441 169.351173 
L 166.729279 169.430504 
L 166.40924 169.959079 
L 166.365227 170.716507 
L 166.386833 171.133402 
L 166.216773 171.152558 
L 165.415402 170.803295 
L 165.052353 170.945416 
L 164.150827 171.95968 
L 163.906019 172.204382 
L 163.774293 172.480828 
L 163.862315 172.827979 
L 161.565476 173.206013 
L 161.171356 173.254931 
L 160.534731 173.328015 
L 159.726285 173.395556 
L 159.297607 173.458977 
L 159.210872 173.278163 
L 159.072965 172.687167 
L 158.961189 172.138694 
L 158.887506 171.538122 
L 158.749487 170.93776 
L 158.658948 170.620689 
L 158.501248 169.705907 
L 159.762213 169.158342 
L 160.611594 168.912542 
L 160.693511 168.878472 
L 162.343096 168.187596 
L 162.493081 168.141265 
L 162.646335 168.093951 
L 163.026771 167.976439 
L 163.715179 167.793683 
L 164.150466 167.624413 
L 163.910447 167.076217 
L 163.746953 166.704403 
L 163.482547 166.10177 
L 164.602851 165.618455 
" style="fill:#08306b;stroke:#000000;stroke-width:0.25;"/>
   </g>
   <g id="patch_3">
    <path d="M 96.997986 233.497325 
L 96.997986 30.48 
" style="fill:none;stroke:#000000;stroke-linecap:square;stroke-linejoin:miter;stroke-width:0.8;"/>
   </g>
   <g id="patch_4">
    <path d="M 363.802014 233.497325 
L 363.802014 30.48 
" style="fill:none;stroke:#000000;stroke-linecap:square;stroke-linejoin:miter;stroke-width:0.8;"/>
   </g>
   <g id="patch_5">
    <path d="M 96.997986 233.497325 
L 363.802014 233.497325 
" style="fill:none;stroke:#000000;stroke-linecap:square;stroke-linejoin:miter;stroke-width:0.8;"/>
   </g>
   <g id="patch_6">
    <path d="M 96.997986 30.48 
L 363.802014 30.48 
" style="fill:none;stroke:#000000;stroke-linecap:square;stroke-linejoin:miter;stroke-width:0.8;"/>
   </g>
   <g id="text_1">
    <!-- Jakarta Floods in NOV 2013 -->
    <g transform="translate(91.722656 24.48)scale(0.18 -0.18)">
     <defs>
      <path d="M 9.1875 72.90625 
L 27.984375 72.90625 
L 27.984375 7.078125 
Q 27.984375 -6.546875 20.578125 -13.28125 
Q 13.1875 -20.015625 -1.8125 -20.015625 
L -5.609375 -20.015625 
L -5.609375 -5.8125 
L -2.6875 -5.8125 
Q 3.171875 -5.8125 6.171875 -2.53125 
Q 9.1875 0.734375 9.1875 7.078125 
z
" id="DejaVuSans-Bold-74"/>
      <path d="M 32.90625 24.609375 
Q 27.4375 24.609375 24.671875 22.75 
Q 21.921875 20.90625 21.921875 17.28125 
Q 21.921875 13.96875 24.140625 12.078125 
Q 26.375 10.203125 30.328125 10.203125 
Q 35.25 10.203125 38.625 13.734375 
Q 42 17.28125 42 22.609375 
L 42 24.609375 
z
M 59.625 31.203125 
L 59.625 0 
L 42 0 
L 42 8.109375 
Q 38.484375 3.125 34.078125 0.84375 
Q 29.6875 -1.421875 23.390625 -1.421875 
Q 14.890625 -1.421875 9.59375 3.53125 
Q 4.296875 8.5 4.296875 16.40625 
Q 4.296875 26.03125 10.90625 30.515625 
Q 17.53125 35.015625 31.6875 35.015625 
L 42 35.015625 
L 42 36.375 
Q 42 40.53125 38.71875 42.453125 
Q 35.453125 44.390625 28.515625 44.390625 
Q 22.90625 44.390625 18.0625 43.265625 
Q 13.234375 42.140625 9.078125 39.890625 
L 9.078125 53.21875 
Q 14.703125 54.59375 20.359375 55.296875 
Q 26.03125 56 31.6875 56 
Q 46.484375 56 53.046875 50.171875 
Q 59.625 44.34375 59.625 31.203125 
z
" id="DejaVuSans-Bold-97"/>
      <path d="M 8.40625 75.984375 
L 25.875 75.984375 
L 25.875 34.625 
L 46 54.6875 
L 66.3125 54.6875 
L 39.59375 29.59375 
L 68.40625 0 
L 47.21875 0 
L 25.875 22.796875 
L 25.875 0 
L 8.40625 0 
z
" id="DejaVuSans-Bold-107"/>
      <path d="M 49.03125 39.796875 
Q 46.734375 40.875 44.453125 41.375 
Q 42.1875 41.890625 39.890625 41.890625 
Q 33.15625 41.890625 29.515625 37.5625 
Q 25.875 33.25 25.875 25.203125 
L 25.875 0 
L 8.40625 0 
L 8.40625 54.6875 
L 25.875 54.6875 
L 25.875 45.703125 
Q 29.25 51.078125 33.609375 53.53125 
Q 37.984375 56 44.09375 56 
Q 44.96875 56 45.984375 55.921875 
Q 47.015625 55.859375 48.96875 55.609375 
z
" id="DejaVuSans-Bold-114"/>
      <path d="M 27.484375 70.21875 
L 27.484375 54.6875 
L 45.515625 54.6875 
L 45.515625 42.1875 
L 27.484375 42.1875 
L 27.484375 19 
Q 27.484375 15.1875 29 13.84375 
Q 30.515625 12.5 35.015625 12.5 
L 44 12.5 
L 44 0 
L 29 0 
Q 18.65625 0 14.328125 4.3125 
Q 10.015625 8.640625 10.015625 19 
L 10.015625 42.1875 
L 1.3125 42.1875 
L 1.3125 54.6875 
L 10.015625 54.6875 
L 10.015625 70.21875 
z
" id="DejaVuSans-Bold-116"/>
      <path id="DejaVuSans-Bold-32"/>
      <path d="M 9.1875 72.90625 
L 59.90625 72.90625 
L 59.90625 58.6875 
L 27.984375 58.6875 
L 27.984375 45.125 
L 58.015625 45.125 
L 58.015625 30.90625 
L 27.984375 30.90625 
L 27.984375 0 
L 9.1875 0 
z
" id="DejaVuSans-Bold-70"/>
      <path d="M 8.40625 75.984375 
L 25.875 75.984375 
L 25.875 0 
L 8.40625 0 
z
" id="DejaVuSans-Bold-108"/>
      <path d="M 34.421875 43.5 
Q 28.609375 43.5 25.5625 39.328125 
Q 22.515625 35.15625 22.515625 27.296875 
Q 22.515625 19.4375 25.5625 15.25 
Q 28.609375 11.078125 34.421875 11.078125 
Q 40.140625 11.078125 43.15625 15.25 
Q 46.1875 19.4375 46.1875 27.296875 
Q 46.1875 35.15625 43.15625 39.328125 
Q 40.140625 43.5 34.421875 43.5 
z
M 34.421875 56 
Q 48.53125 56 56.46875 48.375 
Q 64.40625 40.765625 64.40625 27.296875 
Q 64.40625 13.8125 56.46875 6.1875 
Q 48.53125 -1.421875 34.421875 -1.421875 
Q 20.265625 -1.421875 12.28125 6.1875 
Q 4.296875 13.8125 4.296875 27.296875 
Q 4.296875 40.765625 12.28125 48.375 
Q 20.265625 56 34.421875 56 
z
" id="DejaVuSans-Bold-111"/>
      <path d="M 45.609375 46.6875 
L 45.609375 75.984375 
L 63.1875 75.984375 
L 63.1875 0 
L 45.609375 0 
L 45.609375 7.90625 
Q 42 3.078125 37.640625 0.828125 
Q 33.296875 -1.421875 27.59375 -1.421875 
Q 17.484375 -1.421875 10.984375 6.609375 
Q 4.5 14.65625 4.5 27.296875 
Q 4.5 39.9375 10.984375 47.96875 
Q 17.484375 56 27.59375 56 
Q 33.25 56 37.625 53.734375 
Q 42 51.46875 45.609375 46.6875 
z
M 34.078125 11.28125 
Q 39.703125 11.28125 42.65625 15.375 
Q 45.609375 19.484375 45.609375 27.296875 
Q 45.609375 35.109375 42.65625 39.203125 
Q 39.703125 43.3125 34.078125 43.3125 
Q 28.515625 43.3125 25.5625 39.203125 
Q 22.609375 35.109375 22.609375 27.296875 
Q 22.609375 19.484375 25.5625 15.375 
Q 28.515625 11.28125 34.078125 11.28125 
z
" id="DejaVuSans-Bold-100"/>
      <path d="M 51.125 52.984375 
L 51.125 39.703125 
Q 45.515625 42.046875 40.28125 43.21875 
Q 35.0625 44.390625 30.421875 44.390625 
Q 25.4375 44.390625 23.015625 43.140625 
Q 20.609375 41.890625 20.609375 39.3125 
Q 20.609375 37.203125 22.4375 36.078125 
Q 24.265625 34.96875 29 34.421875 
L 32.078125 33.984375 
Q 45.515625 32.28125 50.140625 28.375 
Q 54.78125 24.46875 54.78125 16.109375 
Q 54.78125 7.375 48.328125 2.96875 
Q 41.890625 -1.421875 29.109375 -1.421875 
Q 23.6875 -1.421875 17.890625 -0.5625 
Q 12.109375 0.296875 6 2 
L 6 15.28125 
Q 11.234375 12.75 16.71875 11.46875 
Q 22.21875 10.203125 27.875 10.203125 
Q 33.015625 10.203125 35.59375 11.609375 
Q 38.1875 13.03125 38.1875 15.828125 
Q 38.1875 18.171875 36.40625 19.3125 
Q 34.625 20.453125 29.296875 21.09375 
L 26.21875 21.484375 
Q 14.546875 22.953125 9.859375 26.90625 
Q 5.171875 30.859375 5.171875 38.921875 
Q 5.171875 47.609375 11.125 51.796875 
Q 17.09375 56 29.390625 56 
Q 34.234375 56 39.546875 55.265625 
Q 44.875 54.546875 51.125 52.984375 
z
" id="DejaVuSans-Bold-115"/>
      <path d="M 8.40625 54.6875 
L 25.875 54.6875 
L 25.875 0 
L 8.40625 0 
z
M 8.40625 75.984375 
L 25.875 75.984375 
L 25.875 61.71875 
L 8.40625 61.71875 
z
" id="DejaVuSans-Bold-105"/>
      <path d="M 63.375 33.296875 
L 63.375 0 
L 45.796875 0 
L 45.796875 5.421875 
L 45.796875 25.484375 
Q 45.796875 32.5625 45.484375 35.25 
Q 45.171875 37.9375 44.390625 39.203125 
Q 43.359375 40.921875 41.59375 41.875 
Q 39.84375 42.828125 37.59375 42.828125 
Q 32.125 42.828125 29 38.59375 
Q 25.875 34.375 25.875 26.90625 
L 25.875 0 
L 8.40625 0 
L 8.40625 54.6875 
L 25.875 54.6875 
L 25.875 46.6875 
Q 29.828125 51.46875 34.265625 53.734375 
Q 38.71875 56 44.09375 56 
Q 53.5625 56 58.46875 50.1875 
Q 63.375 44.390625 63.375 33.296875 
z
" id="DejaVuSans-Bold-110"/>
      <path d="M 9.1875 72.90625 
L 30.171875 72.90625 
L 56.6875 22.90625 
L 56.6875 72.90625 
L 74.515625 72.90625 
L 74.515625 0 
L 53.515625 0 
L 27 50 
L 27 0 
L 9.1875 0 
z
" id="DejaVuSans-Bold-78"/>
      <path d="M 42.484375 60.59375 
Q 33.890625 60.59375 29.15625 54.25 
Q 24.421875 47.90625 24.421875 36.375 
Q 24.421875 24.90625 29.15625 18.546875 
Q 33.890625 12.203125 42.484375 12.203125 
Q 51.125 12.203125 55.859375 18.546875 
Q 60.59375 24.90625 60.59375 36.375 
Q 60.59375 47.90625 55.859375 54.25 
Q 51.125 60.59375 42.484375 60.59375 
z
M 42.484375 74.21875 
Q 60.0625 74.21875 70.015625 64.15625 
Q 79.984375 54.109375 79.984375 36.375 
Q 79.984375 18.703125 70.015625 8.640625 
Q 60.0625 -1.421875 42.484375 -1.421875 
Q 24.953125 -1.421875 14.96875 8.640625 
Q 4.984375 18.703125 4.984375 36.375 
Q 4.984375 54.109375 14.96875 64.15625 
Q 24.953125 74.21875 42.484375 74.21875 
z
" id="DejaVuSans-Bold-79"/>
      <path d="M 0.484375 72.90625 
L 19.390625 72.90625 
L 38.71875 19.09375 
L 58.015625 72.90625 
L 76.90625 72.90625 
L 49.90625 0 
L 27.484375 0 
z
" id="DejaVuSans-Bold-86"/>
      <path d="M 28.8125 13.8125 
L 60.890625 13.8125 
L 60.890625 0 
L 7.90625 0 
L 7.90625 13.8125 
L 34.515625 37.3125 
Q 38.09375 40.53125 39.796875 43.609375 
Q 41.5 46.6875 41.5 50 
Q 41.5 55.125 38.0625 58.25 
Q 34.625 61.375 28.90625 61.375 
Q 24.515625 61.375 19.28125 59.5 
Q 14.0625 57.625 8.109375 53.90625 
L 8.109375 69.921875 
Q 14.453125 72.015625 20.65625 73.109375 
Q 26.859375 74.21875 32.8125 74.21875 
Q 45.90625 74.21875 53.15625 68.453125 
Q 60.40625 62.703125 60.40625 52.390625 
Q 60.40625 46.4375 57.328125 41.28125 
Q 54.25 36.140625 44.390625 27.484375 
z
" id="DejaVuSans-Bold-50"/>
      <path d="M 46 36.53125 
Q 46 50.203125 43.4375 55.78125 
Q 40.875 61.375 34.8125 61.375 
Q 28.765625 61.375 26.171875 55.78125 
Q 23.578125 50.203125 23.578125 36.53125 
Q 23.578125 22.703125 26.171875 17.03125 
Q 28.765625 11.375 34.8125 11.375 
Q 40.828125 11.375 43.40625 17.03125 
Q 46 22.703125 46 36.53125 
z
M 64.796875 36.375 
Q 64.796875 18.265625 56.984375 8.421875 
Q 49.171875 -1.421875 34.8125 -1.421875 
Q 20.40625 -1.421875 12.59375 8.421875 
Q 4.78125 18.265625 4.78125 36.375 
Q 4.78125 54.546875 12.59375 64.375 
Q 20.40625 74.21875 34.8125 74.21875 
Q 49.171875 74.21875 56.984375 64.375 
Q 64.796875 54.546875 64.796875 36.375 
z
" id="DejaVuSans-Bold-48"/>
      <path d="M 11.71875 12.984375 
L 28.328125 12.984375 
L 28.328125 60.109375 
L 11.28125 56.59375 
L 11.28125 69.390625 
L 28.21875 72.90625 
L 46.09375 72.90625 
L 46.09375 12.984375 
L 62.703125 12.984375 
L 62.703125 0 
L 11.71875 0 
z
" id="DejaVuSans-Bold-49"/>
      <path d="M 46.578125 39.3125 
Q 53.953125 37.40625 57.78125 32.6875 
Q 61.625 27.984375 61.625 20.703125 
Q 61.625 9.859375 53.3125 4.21875 
Q 45.015625 -1.421875 29.109375 -1.421875 
Q 23.484375 -1.421875 17.84375 -0.515625 
Q 12.203125 0.390625 6.6875 2.203125 
L 6.6875 16.703125 
Q 11.96875 14.0625 17.15625 12.71875 
Q 22.359375 11.375 27.390625 11.375 
Q 34.859375 11.375 38.84375 13.953125 
Q 42.828125 16.546875 42.828125 21.390625 
Q 42.828125 26.375 38.75 28.9375 
Q 34.671875 31.5 26.703125 31.5 
L 19.1875 31.5 
L 19.1875 43.609375 
L 27.09375 43.609375 
Q 34.1875 43.609375 37.640625 45.828125 
Q 41.109375 48.046875 41.109375 52.59375 
Q 41.109375 56.78125 37.734375 59.078125 
Q 34.375 61.375 28.21875 61.375 
Q 23.6875 61.375 19.046875 60.34375 
Q 14.40625 59.328125 9.8125 57.328125 
L 9.8125 71.09375 
Q 15.375 72.65625 20.84375 73.4375 
Q 26.3125 74.21875 31.59375 74.21875 
Q 45.796875 74.21875 52.84375 69.546875 
Q 59.90625 64.890625 59.90625 55.515625 
Q 59.90625 49.125 56.53125 45.046875 
Q 53.171875 40.96875 46.578125 39.3125 
z
" id="DejaVuSans-Bold-51"/>
     </defs>
     <use xlink:href="#DejaVuSans-Bold-74"/>
     <use x="37.207031" xlink:href="#DejaVuSans-Bold-97"/>
     <use x="104.6875" xlink:href="#DejaVuSans-Bold-107"/>
     <use x="171.191406" xlink:href="#DejaVuSans-Bold-97"/>
     <use x="238.671875" xlink:href="#DejaVuSans-Bold-114"/>
     <use x="287.988281" xlink:href="#DejaVuSans-Bold-116"/>
     <use x="335.791016" xlink:href="#DejaVuSans-Bold-97"/>
     <use x="403.271484" xlink:href="#DejaVuSans-Bold-32"/>
     <use x="438.085938" xlink:href="#DejaVuSans-Bold-70"/>
     <use x="506.396484" xlink:href="#DejaVuSans-Bold-108"/>
     <use x="540.673828" xlink:href="#DejaVuSans-Bold-111"/>
     <use x="609.375" xlink:href="#DejaVuSans-Bold-111"/>
     <use x="678.076172" xlink:href="#DejaVuSans-Bold-100"/>
     <use x="749.658203" xlink:href="#DejaVuSans-Bold-115"/>
     <use x="809.179688" xlink:href="#DejaVuSans-Bold-32"/>
     <use x="843.994141" xlink:href="#DejaVuSans-Bold-105"/>
     <use x="878.271484" xlink:href="#DejaVuSans-Bold-110"/>
     <use x="949.462891" xlink:href="#DejaVuSans-Bold-32"/>
     <use x="984.277344" xlink:href="#DejaVuSans-Bold-78"/>
     <use x="1067.96875" xlink:href="#DejaVuSans-Bold-79"/>
     <use x="1150.353516" xlink:href="#DejaVuSans-Bold-86"/>
     <use x="1227.746094" xlink:href="#DejaVuSans-Bold-32"/>
     <use x="1262.560547" xlink:href="#DejaVuSans-Bold-50"/>
     <use x="1332.140625" xlink:href="#DejaVuSans-Bold-48"/>
     <use x="1401.720703" xlink:href="#DejaVuSans-Bold-49"/>
     <use x="1471.300781" xlink:href="#DejaVuSans-Bold-51"/>
    </g>
   </g>
  </g>
  <g id="axes_2">
   <g id="patch_7">
    <path clip-path="url(#pfca90f440c)" d="M 10.8 298.961037 
L 120.6 298.961037 
L 340.2 298.961037 
L 450 298.961037 
L 450 277.001037 
L 340.2 277.001037 
L 120.6 277.001037 
L 10.8 277.001037 
z
" style="fill:#ffffff;stroke:#ffffff;stroke-linejoin:miter;stroke-width:0.01;"/>
   </g>
   <g id="QuadMesh_1">
    <path clip-path="url(#pfca90f440c)" d="M 10.8 298.961037 
L 120.6 298.961037 
L 120.6 277.001037 
L 10.8 277.001037 
L 10.8 298.961037 
" style="fill:#f7fbff;"/>
    <path clip-path="url(#pfca90f440c)" d="M 120.6 298.961037 
L 230.4 298.961037 
L 230.4 277.001037 
L 120.6 277.001037 
L 120.6 298.961037 
" style="fill:#c6dbef;"/>
    <path clip-path="url(#pfca90f440c)" d="M 230.4 298.961037 
L 340.2 298.961037 
L 340.2 277.001037 
L 230.4 277.001037 
L 230.4 298.961037 
" style="fill:#6baed6;"/>
    <path clip-path="url(#pfca90f440c)" d="M 340.2 298.961037 
L 450 298.961037 
L 450 277.001037 
L 340.2 277.001037 
L 340.2 298.961037 
" style="fill:#08306b;"/>
   </g>
   <g id="matplotlib.axis_1">
    <g id="xtick_1">
     <g id="line2d_1"/>
     <g id="text_2">
      <!-- 1 -->
      <g transform="translate(62.51875 310.059475)scale(0.1 -0.1)">
       <defs>
        <path d="M 12.40625 8.296875 
L 28.515625 8.296875 
L 28.515625 63.921875 
L 10.984375 60.40625 
L 10.984375 69.390625 
L 28.421875 72.90625 
L 38.28125 72.90625 
L 38.28125 8.296875 
L 54.390625 8.296875 
L 54.390625 0 
L 12.40625 0 
z
" id="DejaVuSans-49"/>
       </defs>
       <use xlink:href="#DejaVuSans-49"/>
      </g>
     </g>
    </g>
    <g id="xtick_2">
     <g id="line2d_2"/>
     <g id="text_3">
      <!-- 2 -->
      <g transform="translate(172.31875 310.059475)scale(0.1 -0.1)">
       <defs>
        <path d="M 19.1875 8.296875 
L 53.609375 8.296875 
L 53.609375 0 
L 7.328125 0 
L 7.328125 8.296875 
Q 12.9375 14.109375 22.625 23.890625 
Q 32.328125 33.6875 34.8125 36.53125 
Q 39.546875 41.84375 41.421875 45.53125 
Q 43.3125 49.21875 43.3125 52.78125 
Q 43.3125 58.59375 39.234375 62.25 
Q 35.15625 65.921875 28.609375 65.921875 
Q 23.96875 65.921875 18.8125 64.3125 
Q 13.671875 62.703125 7.8125 59.421875 
L 7.8125 69.390625 
Q 13.765625 71.78125 18.9375 73 
Q 24.125 74.21875 28.421875 74.21875 
Q 39.75 74.21875 46.484375 68.546875 
Q 53.21875 62.890625 53.21875 53.421875 
Q 53.21875 48.921875 51.53125 44.890625 
Q 49.859375 40.875 45.40625 35.40625 
Q 44.1875 33.984375 37.640625 27.21875 
Q 31.109375 20.453125 19.1875 8.296875 
z
" id="DejaVuSans-50"/>
       </defs>
       <use xlink:href="#DejaVuSans-50"/>
      </g>
     </g>
    </g>
    <g id="xtick_3">
     <g id="line2d_3"/>
     <g id="text_4">
      <!-- 3 -->
      <g transform="translate(282.11875 310.059475)scale(0.1 -0.1)">
       <defs>
        <path d="M 40.578125 39.3125 
Q 47.65625 37.796875 51.625 33 
Q 55.609375 28.21875 55.609375 21.1875 
Q 55.609375 10.40625 48.1875 4.484375 
Q 40.765625 -1.421875 27.09375 -1.421875 
Q 22.515625 -1.421875 17.65625 -0.515625 
Q 12.796875 0.390625 7.625 2.203125 
L 7.625 11.71875 
Q 11.71875 9.328125 16.59375 8.109375 
Q 21.484375 6.890625 26.8125 6.890625 
Q 36.078125 6.890625 40.9375 10.546875 
Q 45.796875 14.203125 45.796875 21.1875 
Q 45.796875 27.640625 41.28125 31.265625 
Q 36.765625 34.90625 28.71875 34.90625 
L 20.21875 34.90625 
L 20.21875 43.015625 
L 29.109375 43.015625 
Q 36.375 43.015625 40.234375 45.921875 
Q 44.09375 48.828125 44.09375 54.296875 
Q 44.09375 59.90625 40.109375 62.90625 
Q 36.140625 65.921875 28.71875 65.921875 
Q 24.65625 65.921875 20.015625 65.03125 
Q 15.375 64.15625 9.8125 62.3125 
L 9.8125 71.09375 
Q 15.4375 72.65625 20.34375 73.4375 
Q 25.25 74.21875 29.59375 74.21875 
Q 40.828125 74.21875 47.359375 69.109375 
Q 53.90625 64.015625 53.90625 55.328125 
Q 53.90625 49.265625 50.4375 45.09375 
Q 46.96875 40.921875 40.578125 39.3125 
z
" id="DejaVuSans-51"/>
       </defs>
       <use xlink:href="#DejaVuSans-51"/>
      </g>
     </g>
    </g>
    <g id="xtick_4">
     <g id="line2d_4"/>
     <g id="text_5">
      <!-- 4 -->
      <g transform="translate(391.91875 310.059475)scale(0.1 -0.1)">
       <defs>
        <path d="M 37.796875 64.3125 
L 12.890625 25.390625 
L 37.796875 25.390625 
z
M 35.203125 72.90625 
L 47.609375 72.90625 
L 47.609375 25.390625 
L 58.015625 25.390625 
L 58.015625 17.1875 
L 47.609375 17.1875 
L 47.609375 0 
L 37.796875 0 
L 37.796875 17.1875 
L 4.890625 17.1875 
L 4.890625 26.703125 
z
" id="DejaVuSans-52"/>
       </defs>
       <use xlink:href="#DejaVuSans-52"/>
      </g>
     </g>
    </g>
    <g id="text_6">
     <!-- Flood Depth  -->
     <g transform="translate(198.434375 323.7376)scale(0.1 -0.1)">
      <defs>
       <path d="M 9.8125 72.90625 
L 51.703125 72.90625 
L 51.703125 64.59375 
L 19.671875 64.59375 
L 19.671875 43.109375 
L 48.578125 43.109375 
L 48.578125 34.8125 
L 19.671875 34.8125 
L 19.671875 0 
L 9.8125 0 
z
" id="DejaVuSans-70"/>
       <path d="M 9.421875 75.984375 
L 18.40625 75.984375 
L 18.40625 0 
L 9.421875 0 
z
" id="DejaVuSans-108"/>
       <path d="M 30.609375 48.390625 
Q 23.390625 48.390625 19.1875 42.75 
Q 14.984375 37.109375 14.984375 27.296875 
Q 14.984375 17.484375 19.15625 11.84375 
Q 23.34375 6.203125 30.609375 6.203125 
Q 37.796875 6.203125 41.984375 11.859375 
Q 46.1875 17.53125 46.1875 27.296875 
Q 46.1875 37.015625 41.984375 42.703125 
Q 37.796875 48.390625 30.609375 48.390625 
z
M 30.609375 56 
Q 42.328125 56 49.015625 48.375 
Q 55.71875 40.765625 55.71875 27.296875 
Q 55.71875 13.875 49.015625 6.21875 
Q 42.328125 -1.421875 30.609375 -1.421875 
Q 18.84375 -1.421875 12.171875 6.21875 
Q 5.515625 13.875 5.515625 27.296875 
Q 5.515625 40.765625 12.171875 48.375 
Q 18.84375 56 30.609375 56 
z
" id="DejaVuSans-111"/>
       <path d="M 45.40625 46.390625 
L 45.40625 75.984375 
L 54.390625 75.984375 
L 54.390625 0 
L 45.40625 0 
L 45.40625 8.203125 
Q 42.578125 3.328125 38.25 0.953125 
Q 33.9375 -1.421875 27.875 -1.421875 
Q 17.96875 -1.421875 11.734375 6.484375 
Q 5.515625 14.40625 5.515625 27.296875 
Q 5.515625 40.1875 11.734375 48.09375 
Q 17.96875 56 27.875 56 
Q 33.9375 56 38.25 53.625 
Q 42.578125 51.265625 45.40625 46.390625 
z
M 14.796875 27.296875 
Q 14.796875 17.390625 18.875 11.75 
Q 22.953125 6.109375 30.078125 6.109375 
Q 37.203125 6.109375 41.296875 11.75 
Q 45.40625 17.390625 45.40625 27.296875 
Q 45.40625 37.203125 41.296875 42.84375 
Q 37.203125 48.484375 30.078125 48.484375 
Q 22.953125 48.484375 18.875 42.84375 
Q 14.796875 37.203125 14.796875 27.296875 
z
" id="DejaVuSans-100"/>
       <path id="DejaVuSans-32"/>
       <path d="M 19.671875 64.796875 
L 19.671875 8.109375 
L 31.59375 8.109375 
Q 46.6875 8.109375 53.6875 14.9375 
Q 60.6875 21.78125 60.6875 36.53125 
Q 60.6875 51.171875 53.6875 57.984375 
Q 46.6875 64.796875 31.59375 64.796875 
z
M 9.8125 72.90625 
L 30.078125 72.90625 
Q 51.265625 72.90625 61.171875 64.09375 
Q 71.09375 55.28125 71.09375 36.53125 
Q 71.09375 17.671875 61.125 8.828125 
Q 51.171875 0 30.078125 0 
L 9.8125 0 
z
" id="DejaVuSans-68"/>
       <path d="M 56.203125 29.59375 
L 56.203125 25.203125 
L 14.890625 25.203125 
Q 15.484375 15.921875 20.484375 11.0625 
Q 25.484375 6.203125 34.421875 6.203125 
Q 39.59375 6.203125 44.453125 7.46875 
Q 49.3125 8.734375 54.109375 11.28125 
L 54.109375 2.78125 
Q 49.265625 0.734375 44.1875 -0.34375 
Q 39.109375 -1.421875 33.890625 -1.421875 
Q 20.796875 -1.421875 13.15625 6.1875 
Q 5.515625 13.8125 5.515625 26.8125 
Q 5.515625 40.234375 12.765625 48.109375 
Q 20.015625 56 32.328125 56 
Q 43.359375 56 49.78125 48.890625 
Q 56.203125 41.796875 56.203125 29.59375 
z
M 47.21875 32.234375 
Q 47.125 39.59375 43.09375 43.984375 
Q 39.0625 48.390625 32.421875 48.390625 
Q 24.90625 48.390625 20.390625 44.140625 
Q 15.875 39.890625 15.1875 32.171875 
z
" id="DejaVuSans-101"/>
       <path d="M 18.109375 8.203125 
L 18.109375 -20.796875 
L 9.078125 -20.796875 
L 9.078125 54.6875 
L 18.109375 54.6875 
L 18.109375 46.390625 
Q 20.953125 51.265625 25.265625 53.625 
Q 29.59375 56 35.59375 56 
Q 45.5625 56 51.78125 48.09375 
Q 58.015625 40.1875 58.015625 27.296875 
Q 58.015625 14.40625 51.78125 6.484375 
Q 45.5625 -1.421875 35.59375 -1.421875 
Q 29.59375 -1.421875 25.265625 0.953125 
Q 20.953125 3.328125 18.109375 8.203125 
z
M 48.6875 27.296875 
Q 48.6875 37.203125 44.609375 42.84375 
Q 40.53125 48.484375 33.40625 48.484375 
Q 26.265625 48.484375 22.1875 42.84375 
Q 18.109375 37.203125 18.109375 27.296875 
Q 18.109375 17.390625 22.1875 11.75 
Q 26.265625 6.109375 33.40625 6.109375 
Q 40.53125 6.109375 44.609375 11.75 
Q 48.6875 17.390625 48.6875 27.296875 
z
" id="DejaVuSans-112"/>
       <path d="M 18.3125 70.21875 
L 18.3125 54.6875 
L 36.8125 54.6875 
L 36.8125 47.703125 
L 18.3125 47.703125 
L 18.3125 18.015625 
Q 18.3125 11.328125 20.140625 9.421875 
Q 21.96875 7.515625 27.59375 7.515625 
L 36.8125 7.515625 
L 36.8125 0 
L 27.59375 0 
Q 17.1875 0 13.234375 3.875 
Q 9.28125 7.765625 9.28125 18.015625 
L 9.28125 47.703125 
L 2.6875 47.703125 
L 2.6875 54.6875 
L 9.28125 54.6875 
L 9.28125 70.21875 
z
" id="DejaVuSans-116"/>
       <path d="M 54.890625 33.015625 
L 54.890625 0 
L 45.90625 0 
L 45.90625 32.71875 
Q 45.90625 40.484375 42.875 44.328125 
Q 39.84375 48.1875 33.796875 48.1875 
Q 26.515625 48.1875 22.3125 43.546875 
Q 18.109375 38.921875 18.109375 30.90625 
L 18.109375 0 
L 9.078125 0 
L 9.078125 75.984375 
L 18.109375 75.984375 
L 18.109375 46.1875 
Q 21.34375 51.125 25.703125 53.5625 
Q 30.078125 56 35.796875 56 
Q 45.21875 56 50.046875 50.171875 
Q 54.890625 44.34375 54.890625 33.015625 
z
" id="DejaVuSans-104"/>
      </defs>
      <use xlink:href="#DejaVuSans-70"/>
      <use x="57.519531" xlink:href="#DejaVuSans-108"/>
      <use x="85.302734" xlink:href="#DejaVuSans-111"/>
      <use x="146.484375" xlink:href="#DejaVuSans-111"/>
      <use x="207.666016" xlink:href="#DejaVuSans-100"/>
      <use x="271.142578" xlink:href="#DejaVuSans-32"/>
      <use x="302.929688" xlink:href="#DejaVuSans-68"/>
      <use x="379.931641" xlink:href="#DejaVuSans-101"/>
      <use x="441.455078" xlink:href="#DejaVuSans-112"/>
      <use x="504.931641" xlink:href="#DejaVuSans-116"/>
      <use x="544.140625" xlink:href="#DejaVuSans-104"/>
      <use x="607.519531" xlink:href="#DejaVuSans-32"/>
     </g>
     <!--  Codes: 1 = 10-30 cm, 2 = 31-70cm, 3 = 71-50cm, 4 = 150+cm -->
     <g transform="translate(69.0125 334.935412)scale(0.1 -0.1)">
      <defs>
       <path d="M 64.40625 67.28125 
L 64.40625 56.890625 
Q 59.421875 61.53125 53.78125 63.8125 
Q 48.140625 66.109375 41.796875 66.109375 
Q 29.296875 66.109375 22.65625 58.46875 
Q 16.015625 50.828125 16.015625 36.375 
Q 16.015625 21.96875 22.65625 14.328125 
Q 29.296875 6.6875 41.796875 6.6875 
Q 48.140625 6.6875 53.78125 8.984375 
Q 59.421875 11.28125 64.40625 15.921875 
L 64.40625 5.609375 
Q 59.234375 2.09375 53.4375 0.328125 
Q 47.65625 -1.421875 41.21875 -1.421875 
Q 24.65625 -1.421875 15.125 8.703125 
Q 5.609375 18.84375 5.609375 36.375 
Q 5.609375 53.953125 15.125 64.078125 
Q 24.65625 74.21875 41.21875 74.21875 
Q 47.75 74.21875 53.53125 72.484375 
Q 59.328125 70.75 64.40625 67.28125 
z
" id="DejaVuSans-67"/>
       <path d="M 44.28125 53.078125 
L 44.28125 44.578125 
Q 40.484375 46.53125 36.375 47.5 
Q 32.28125 48.484375 27.875 48.484375 
Q 21.1875 48.484375 17.84375 46.4375 
Q 14.5 44.390625 14.5 40.28125 
Q 14.5 37.15625 16.890625 35.375 
Q 19.28125 33.59375 26.515625 31.984375 
L 29.59375 31.296875 
Q 39.15625 29.25 43.1875 25.515625 
Q 47.21875 21.78125 47.21875 15.09375 
Q 47.21875 7.46875 41.1875 3.015625 
Q 35.15625 -1.421875 24.609375 -1.421875 
Q 20.21875 -1.421875 15.453125 -0.5625 
Q 10.6875 0.296875 5.421875 2 
L 5.421875 11.28125 
Q 10.40625 8.6875 15.234375 7.390625 
Q 20.0625 6.109375 24.8125 6.109375 
Q 31.15625 6.109375 34.5625 8.28125 
Q 37.984375 10.453125 37.984375 14.40625 
Q 37.984375 18.0625 35.515625 20.015625 
Q 33.0625 21.96875 24.703125 23.78125 
L 21.578125 24.515625 
Q 13.234375 26.265625 9.515625 29.90625 
Q 5.8125 33.546875 5.8125 39.890625 
Q 5.8125 47.609375 11.28125 51.796875 
Q 16.75 56 26.8125 56 
Q 31.78125 56 36.171875 55.265625 
Q 40.578125 54.546875 44.28125 53.078125 
z
" id="DejaVuSans-115"/>
       <path d="M 11.71875 12.40625 
L 22.015625 12.40625 
L 22.015625 0 
L 11.71875 0 
z
M 11.71875 51.703125 
L 22.015625 51.703125 
L 22.015625 39.3125 
L 11.71875 39.3125 
z
" id="DejaVuSans-58"/>
       <path d="M 10.59375 45.40625 
L 73.1875 45.40625 
L 73.1875 37.203125 
L 10.59375 37.203125 
z
M 10.59375 25.484375 
L 73.1875 25.484375 
L 73.1875 17.1875 
L 10.59375 17.1875 
z
" id="DejaVuSans-61"/>
       <path d="M 31.78125 66.40625 
Q 24.171875 66.40625 20.328125 58.90625 
Q 16.5 51.421875 16.5 36.375 
Q 16.5 21.390625 20.328125 13.890625 
Q 24.171875 6.390625 31.78125 6.390625 
Q 39.453125 6.390625 43.28125 13.890625 
Q 47.125 21.390625 47.125 36.375 
Q 47.125 51.421875 43.28125 58.90625 
Q 39.453125 66.40625 31.78125 66.40625 
z
M 31.78125 74.21875 
Q 44.046875 74.21875 50.515625 64.515625 
Q 56.984375 54.828125 56.984375 36.375 
Q 56.984375 17.96875 50.515625 8.265625 
Q 44.046875 -1.421875 31.78125 -1.421875 
Q 19.53125 -1.421875 13.0625 8.265625 
Q 6.59375 17.96875 6.59375 36.375 
Q 6.59375 54.828125 13.0625 64.515625 
Q 19.53125 74.21875 31.78125 74.21875 
z
" id="DejaVuSans-48"/>
       <path d="M 4.890625 31.390625 
L 31.203125 31.390625 
L 31.203125 23.390625 
L 4.890625 23.390625 
z
" id="DejaVuSans-45"/>
       <path d="M 48.78125 52.59375 
L 48.78125 44.1875 
Q 44.96875 46.296875 41.140625 47.34375 
Q 37.3125 48.390625 33.40625 48.390625 
Q 24.65625 48.390625 19.8125 42.84375 
Q 14.984375 37.3125 14.984375 27.296875 
Q 14.984375 17.28125 19.8125 11.734375 
Q 24.65625 6.203125 33.40625 6.203125 
Q 37.3125 6.203125 41.140625 7.25 
Q 44.96875 8.296875 48.78125 10.40625 
L 48.78125 2.09375 
Q 45.015625 0.34375 40.984375 -0.53125 
Q 36.96875 -1.421875 32.421875 -1.421875 
Q 20.0625 -1.421875 12.78125 6.34375 
Q 5.515625 14.109375 5.515625 27.296875 
Q 5.515625 40.671875 12.859375 48.328125 
Q 20.21875 56 33.015625 56 
Q 37.15625 56 41.109375 55.140625 
Q 45.0625 54.296875 48.78125 52.59375 
z
" id="DejaVuSans-99"/>
       <path d="M 52 44.1875 
Q 55.375 50.25 60.0625 53.125 
Q 64.75 56 71.09375 56 
Q 79.640625 56 84.28125 50.015625 
Q 88.921875 44.046875 88.921875 33.015625 
L 88.921875 0 
L 79.890625 0 
L 79.890625 32.71875 
Q 79.890625 40.578125 77.09375 44.375 
Q 74.3125 48.1875 68.609375 48.1875 
Q 61.625 48.1875 57.5625 43.546875 
Q 53.515625 38.921875 53.515625 30.90625 
L 53.515625 0 
L 44.484375 0 
L 44.484375 32.71875 
Q 44.484375 40.625 41.703125 44.40625 
Q 38.921875 48.1875 33.109375 48.1875 
Q 26.21875 48.1875 22.15625 43.53125 
Q 18.109375 38.875 18.109375 30.90625 
L 18.109375 0 
L 9.078125 0 
L 9.078125 54.6875 
L 18.109375 54.6875 
L 18.109375 46.1875 
Q 21.1875 51.21875 25.484375 53.609375 
Q 29.78125 56 35.6875 56 
Q 41.65625 56 45.828125 52.96875 
Q 50 49.953125 52 44.1875 
z
" id="DejaVuSans-109"/>
       <path d="M 11.71875 12.40625 
L 22.015625 12.40625 
L 22.015625 4 
L 14.015625 -11.625 
L 7.71875 -11.625 
L 11.71875 4 
z
" id="DejaVuSans-44"/>
       <path d="M 8.203125 72.90625 
L 55.078125 72.90625 
L 55.078125 68.703125 
L 28.609375 0 
L 18.3125 0 
L 43.21875 64.59375 
L 8.203125 64.59375 
z
" id="DejaVuSans-55"/>
       <path d="M 10.796875 72.90625 
L 49.515625 72.90625 
L 49.515625 64.59375 
L 19.828125 64.59375 
L 19.828125 46.734375 
Q 21.96875 47.46875 24.109375 47.828125 
Q 26.265625 48.1875 28.421875 48.1875 
Q 40.625 48.1875 47.75 41.5 
Q 54.890625 34.8125 54.890625 23.390625 
Q 54.890625 11.625 47.5625 5.09375 
Q 40.234375 -1.421875 26.90625 -1.421875 
Q 22.3125 -1.421875 17.546875 -0.640625 
Q 12.796875 0.140625 7.71875 1.703125 
L 7.71875 11.625 
Q 12.109375 9.234375 16.796875 8.0625 
Q 21.484375 6.890625 26.703125 6.890625 
Q 35.15625 6.890625 40.078125 11.328125 
Q 45.015625 15.765625 45.015625 23.390625 
Q 45.015625 31 40.078125 35.4375 
Q 35.15625 39.890625 26.703125 39.890625 
Q 22.75 39.890625 18.8125 39.015625 
Q 14.890625 38.140625 10.796875 36.28125 
z
" id="DejaVuSans-53"/>
       <path d="M 46 62.703125 
L 46 35.5 
L 73.1875 35.5 
L 73.1875 27.203125 
L 46 27.203125 
L 46 0 
L 37.796875 0 
L 37.796875 27.203125 
L 10.59375 27.203125 
L 10.59375 35.5 
L 37.796875 35.5 
L 37.796875 62.703125 
z
" id="DejaVuSans-43"/>
      </defs>
      <use xlink:href="#DejaVuSans-32"/>
      <use x="31.787109" xlink:href="#DejaVuSans-67"/>
      <use x="101.611328" xlink:href="#DejaVuSans-111"/>
      <use x="162.792969" xlink:href="#DejaVuSans-100"/>
      <use x="226.269531" xlink:href="#DejaVuSans-101"/>
      <use x="287.792969" xlink:href="#DejaVuSans-115"/>
      <use x="339.892578" xlink:href="#DejaVuSans-58"/>
      <use x="373.583984" xlink:href="#DejaVuSans-32"/>
      <use x="405.371094" xlink:href="#DejaVuSans-49"/>
      <use x="468.994141" xlink:href="#DejaVuSans-32"/>
      <use x="500.78125" xlink:href="#DejaVuSans-61"/>
      <use x="584.570312" xlink:href="#DejaVuSans-32"/>
      <use x="616.357422" xlink:href="#DejaVuSans-49"/>
      <use x="679.980469" xlink:href="#DejaVuSans-48"/>
      <use x="743.603516" xlink:href="#DejaVuSans-45"/>
      <use x="779.6875" xlink:href="#DejaVuSans-51"/>
      <use x="843.310547" xlink:href="#DejaVuSans-48"/>
      <use x="906.933594" xlink:href="#DejaVuSans-32"/>
      <use x="938.720703" xlink:href="#DejaVuSans-99"/>
      <use x="993.701172" xlink:href="#DejaVuSans-109"/>
      <use x="1091.113281" xlink:href="#DejaVuSans-44"/>
      <use x="1122.900391" xlink:href="#DejaVuSans-32"/>
      <use x="1154.6875" xlink:href="#DejaVuSans-50"/>
      <use x="1218.310547" xlink:href="#DejaVuSans-32"/>
      <use x="1250.097656" xlink:href="#DejaVuSans-61"/>
      <use x="1333.886719" xlink:href="#DejaVuSans-32"/>
      <use x="1365.673828" xlink:href="#DejaVuSans-51"/>
      <use x="1429.296875" xlink:href="#DejaVuSans-49"/>
      <use x="1492.919922" xlink:href="#DejaVuSans-45"/>
      <use x="1529.003906" xlink:href="#DejaVuSans-55"/>
      <use x="1592.626953" xlink:href="#DejaVuSans-48"/>
      <use x="1656.25" xlink:href="#DejaVuSans-99"/>
      <use x="1711.230469" xlink:href="#DejaVuSans-109"/>
      <use x="1808.642578" xlink:href="#DejaVuSans-44"/>
      <use x="1840.429688" xlink:href="#DejaVuSans-32"/>
      <use x="1872.216797" xlink:href="#DejaVuSans-51"/>
      <use x="1935.839844" xlink:href="#DejaVuSans-32"/>
      <use x="1967.626953" xlink:href="#DejaVuSans-61"/>
      <use x="2051.416016" xlink:href="#DejaVuSans-32"/>
      <use x="2083.203125" xlink:href="#DejaVuSans-55"/>
      <use x="2146.826172" xlink:href="#DejaVuSans-49"/>
      <use x="2210.449219" xlink:href="#DejaVuSans-45"/>
      <use x="2246.533203" xlink:href="#DejaVuSans-53"/>
      <use x="2310.15625" xlink:href="#DejaVuSans-48"/>
      <use x="2373.779297" xlink:href="#DejaVuSans-99"/>
      <use x="2428.759766" xlink:href="#DejaVuSans-109"/>
      <use x="2526.171875" xlink:href="#DejaVuSans-44"/>
      <use x="2557.958984" xlink:href="#DejaVuSans-32"/>
      <use x="2589.746094" xlink:href="#DejaVuSans-52"/>
      <use x="2653.369141" xlink:href="#DejaVuSans-32"/>
      <use x="2685.15625" xlink:href="#DejaVuSans-61"/>
      <use x="2768.945312" xlink:href="#DejaVuSans-32"/>
      <use x="2800.732422" xlink:href="#DejaVuSans-49"/>
      <use x="2864.355469" xlink:href="#DejaVuSans-53"/>
      <use x="2927.978516" xlink:href="#DejaVuSans-48"/>
      <use x="2991.601562" xlink:href="#DejaVuSans-43"/>
      <use x="3075.390625" xlink:href="#DejaVuSans-99"/>
      <use x="3130.371094" xlink:href="#DejaVuSans-109"/>
     </g>
    </g>
   </g>
   <g id="matplotlib.axis_2"/>
   <g id="patch_8">
    <path d="M 10.8 298.961037 
L 120.6 298.961037 
L 340.2 298.961037 
L 450 298.961037 
L 450 277.001037 
L 340.2 277.001037 
L 120.6 277.001037 
L 10.8 277.001037 
z
" style="fill:none;stroke:#000000;stroke-linejoin:miter;stroke-width:0.8;"/>
   </g>
  </g>
 </g>
 <defs>
  <clipPath id="p725f292287">
   <rect height="203.017325" width="266.804028" x="96.997986" y="30.48"/>
  </clipPath>
  <clipPath id="pfca90f440c">
   <rect height="21.96" width="439.2" x="10.8" y="277.001037"/>
  </clipPath>
 </defs>
</svg>
