<?xml version="1.0" encoding="utf-8" standalone="no"?>
<!DOCTYPE svg PUBLIC "-//W3C//DTD SVG 1.1//EN"
  "http://www.w3.org/Graphics/SVG/1.1/DTD/svg11.dtd">
<!-- Created with matplotlib (https://matplotlib.org/) -->
<svg height="345.6pt" version="1.1" viewBox="0 0 460.8 345.6" width="460.8pt" xmlns="http://www.w3.org/2000/svg" xmlns:xlink="http://www.w3.org/1999/xlink">
 <metadata>
  <rdf:RDF xmlns:cc="http://creativecommons.org/ns#" xmlns:dc="http://purl.org/dc/elements/1.1/" xmlns:rdf="http://www.w3.org/1999/02/22-rdf-syntax-ns#">
   <cc:Work>
    <dc:type rdf:resource="http://purl.org/dc/dcmitype/StillImage"/>
    <dc:date>2021-07-15T21:52:41.023207</dc:date>
    <dc:format>image/svg+xml</dc:format>
    <dc:creator>
     <cc:Agent>
      <dc:title>Matplotlib v3.3.4, https://matplotlib.org/</dc:title>
     </cc:Agent>
    </dc:creator>
   </cc:Work>
  </rdf:RDF>
 </metadata>
 <defs>
  <style type="text/css">*{stroke-linecap:butt;stroke-linejoin:round;}</style>
 </defs>
 <g id="figure_1">
  <g id="patch_1">
   <path d="M 0 345.6 
L 460.8 345.6 
L 460.8 0 
L 0 0 
z
" style="fill:#ffffff;"/>
  </g>
  <g id="axes_1">
   <g id="patch_2">
    <path d="M 133.566594 233.497325 
L 327.233406 233.497325 
L 327.233406 30.48 
L 133.566594 30.48 
z
" style="fill:#ffffff;"/>
   </g>
   <g id="PatchCollection_1">
    <path clip-path="url(#p3ed88bce20)" d="M 149.164822 98.676146 
L 150.898402 99.861871 
L 152.085356 99.820892 
L 152.723768 100.457167 
L 153.817931 100.870522 
L 153.835281 100.877385 
L 153.775037 101.86985 
L 153.766961 102.002891 
L 153.31072 102.638169 
L 153.04424 103.031117 
L 152.759504 103.247362 
L 151.494529 103.220032 
L 150.887052 103.312146 
L 150.498355 103.415114 
L 150.126961 103.544203 
L 149.66439 103.638241 
L 149.271507 103.691969 
L 148.419304 103.732604 
L 147.615108 104.157087 
L 147.154522 104.529126 
L 146.778202 104.834842 
L 146.432983 104.936508 
L 146.083921 104.884685 
L 145.765439 104.788078 
L 145.51526 104.630886 
L 145.121031 104.2126 
L 144.591842 104.29484 
L 144.340766 104.411295 
L 144.069756 104.420541 
L 142.538645 104.24322 
L 142.415999 103.640499 
L 142.369631 102.755692 
L 142.873212 102.528578 
L 144.13178 100.974785 
L 145.462056 99.20839 
L 146.812367 97.520247 
L 149.164822 98.676146 
" style="fill:#c6dbef;stroke:#000000;stroke-width:0.25;"/>
    <path clip-path="url(#p3ed88bce20)" d="M 311.642778 205.685334 
L 312.152627 206.478314 
L 312.456997 206.94651 
L 312.694668 207.753443 
L 312.746361 207.928975 
L 312.815086 208.162198 
L 313.043476 208.890617 
L 313.082464 209.010503 
L 313.085399 209.019515 
L 313.197997 209.365233 
L 313.250579 209.622291 
L 313.251409 209.626348 
L 313.251235 209.627813 
L 313.197642 210.078941 
L 313.148872 210.184326 
L 313.072212 210.350282 
L 312.793843 210.437334 
L 312.615855 210.370096 
L 312.353001 210.167751 
L 312.150607 209.954616 
L 312.065382 209.780192 
L 312.063718 209.776786 
L 311.909096 209.494317 
L 311.729989 209.114005 
L 311.602333 208.842944 
L 311.50978 208.586468 
L 311.438369 208.374956 
L 311.427637 208.340732 
L 311.422322 208.323785 
L 311.302644 208.11659 
L 311.227035 207.98557 
L 311.226318 207.98354 
L 311.074413 207.342707 
L 310.962227 207.106434 
L 310.913231 206.999311 
L 310.90903 206.990126 
L 310.601212 206.839597 
L 310.137508 206.847079 
L 310.018102 206.890386 
L 309.702899 206.985562 
L 309.37101 207.087194 
L 309.174084 207.212182 
L 308.671436 207.578915 
L 308.501797 207.773069 
L 308.291713 208.013414 
L 308.049744 208.665886 
L 308.049503 208.665858 
L 307.677944 208.621856 
L 306.146959 208.616736 
L 306.189229 207.972102 
L 306.202498 207.866302 
L 306.219902 207.728458 
L 306.23276 207.626624 
L 305.374159 207.688605 
L 304.893551 207.723253 
L 303.741166 207.806353 
L 303.741148 207.80621 
L 303.618635 206.846927 
L 303.603126 206.725098 
L 303.583585 206.571872 
L 303.602402 206.719263 
L 303.550291 206.299207 
L 304.009258 206.237984 
L 304.00863 206.12866 
L 304.210069 206.120249 
L 304.53512 206.108509 
L 304.530246 206.216655 
L 304.997099 206.179208 
L 305.029699 206.05668 
L 305.469322 206.057218 
L 305.478524 206.159622 
L 305.781787 206.121598 
L 305.788245 206.016208 
L 305.912573 206.014909 
L 305.939901 206.113613 
L 306.496084 206.137731 
L 306.500173 205.92359 
L 306.545274 205.90661 
L 306.750893 205.829199 
L 307.646573 205.772272 
L 307.759321 205.767603 
L 308.978105 205.717177 
L 309.410259 205.699302 
L 309.913714 205.678493 
L 310.481254 205.605495 
L 310.833345 205.568949 
L 311.165608 205.607772 
L 311.642778 205.685334 
" style="fill:#c6dbef;stroke:#000000;stroke-width:0.25;"/>
    <path clip-path="url(#p3ed88bce20)" d="M 178.66302 39.891973 
L 179.98122 43.893492 
L 180.886623 47.465123 
L 181.064138 48.165096 
L 181.242546 48.868592 
L 181.330095 49.213916 
L 181.574288 50.177144 
L 181.876274 51.368607 
L 182.236337 52.789032 
L 182.485677 53.772548 
L 182.681703 54.531897 
L 180.988857 54.583338 
L 180.884835 54.398965 
L 179.221399 53.971687 
L 176.459843 54.131091 
L 175.758583 54.171632 
L 174.618457 52.383188 
L 178.439645 52.58491 
L 178.330184 50.231713 
L 178.328221 49.378894 
L 178.325444 48.246194 
L 178.315677 47.912711 
L 178.25395 45.804656 
L 178.095877 44.389393 
L 178.027045 43.773519 
L 177.258747 42.03669 
L 177.188718 41.256187 
L 176.571413 40.972244 
L 176.116623 41.066594 
L 175.670398 40.892967 
L 175.65927 39.799576 
L 175.659125 39.785289 
L 176.914995 39.70806 
L 177.709189 39.791619 
L 178.645097 39.837567 
L 178.66302 39.891973 
" style="fill:#c6dbef;stroke:#000000;stroke-width:0.25;"/>
    <path clip-path="url(#p3ed88bce20)" d="M 178.720324 58.070769 
L 179.01182 58.139495 
L 179.050712 57.948357 
L 180.165319 58.115225 
L 180.672013 58.142965 
L 181.151321 58.169311 
L 181.245798 58.04134 
L 181.334482 58.043516 
L 181.833546 58.055884 
L 182.334305 58.037997 
L 183.791785 57.770623 
L 183.792095 57.773415 
L 183.836777 58.175254 
L 183.848637 58.28192 
L 183.297079 58.410548 
L 183.022459 58.489845 
L 182.849427 58.539809 
L 182.466728 58.660454 
L 182.189203 58.879905 
L 182.04671 59.590786 
L 182.058114 59.822633 
L 182.066597 59.902888 
L 182.069918 59.934305 
L 182.105255 60.203587 
L 182.110351 60.259079 
L 182.123159 60.398534 
L 182.142751 60.521236 
L 182.179093 60.749835 
L 182.18714 60.778948 
L 182.321865 61.266341 
L 182.444084 61.644214 
L 182.501464 61.821627 
L 182.606549 62.340469 
L 182.68155 62.710512 
L 182.612287 63.232105 
L 182.124082 64.054342 
L 181.88348 64.502394 
L 181.312235 64.450837 
L 181.23719 64.444073 
L 181.335615 64.086623 
L 181.366062 63.820165 
L 181.500985 63.075812 
L 181.444772 62.896231 
L 180.872131 62.741145 
L 179.819117 62.444167 
L 179.820243 62.104204 
L 179.642185 62.089714 
L 179.457416 60.469627 
L 179.892488 60.462525 
L 179.830121 59.515247 
L 179.715993 59.494454 
L 178.496163 59.200257 
L 178.154674 59.117972 
L 178.152542 59.117458 
L 176.944185 59.122293 
L 175.286501 59.155872 
L 175.051553 59.160631 
L 174.499227 59.171837 
L 174.590064 59.355586 
L 175.332463 60.853427 
L 175.342097 60.876481 
L 175.108561 61.1608 
L 174.64942 61.39138 
L 172.460521 62.720122 
L 170.275759 62.226995 
L 171.471044 58.101688 
L 171.574131 57.779437 
L 171.641197 57.569424 
L 171.583952 56.296246 
L 171.555985 55.592621 
L 171.619451 55.595939 
L 171.825055 55.606685 
L 172.824152 55.645311 
L 172.730601 56.898011 
L 173.630506 57.044034 
L 174.026168 57.122659 
L 174.096073 57.281869 
L 175.041506 57.464821 
L 176.756446 57.696796 
L 176.846981 57.708968 
L 177.227064 57.76539 
L 177.760252 57.844616 
L 178.720324 58.070769 
" style="fill:#c6dbef;stroke:#000000;stroke-width:0.25;"/>
    <path clip-path="url(#p3ed88bce20)" d="M 174.618457 52.383188 
L 175.758583 54.171632 
L 176.459843 54.131091 
L 179.221399 53.971687 
L 180.884835 54.398965 
L 180.988857 54.583338 
L 182.681703 54.531897 
L 182.817344 55.058224 
L 182.947113 55.562343 
L 183.011359 55.811921 
L 183.068019 56.031755 
L 183.226651 56.311147 
L 183.48268 56.762148 
L 183.740869 57.216921 
L 183.791785 57.770623 
L 182.334305 58.037997 
L 181.833546 58.055884 
L 181.334482 58.043516 
L 181.245798 58.04134 
L 181.151321 58.169311 
L 180.672013 58.142965 
L 180.165319 58.115225 
L 179.050712 57.948357 
L 179.01182 58.139495 
L 178.720324 58.070769 
L 177.760252 57.844616 
L 177.227064 57.76539 
L 176.846981 57.708968 
L 176.756446 57.696796 
L 175.041506 57.464821 
L 174.096073 57.281869 
L 174.026168 57.122659 
L 173.630506 57.044034 
L 172.730601 56.898011 
L 172.824152 55.645311 
L 171.825055 55.606685 
L 171.619451 55.595939 
L 171.555985 55.592621 
L 171.414484 55.566672 
L 171.187192 55.100569 
L 170.726209 55.098324 
L 170.603956 54.948498 
L 169.860243 54.899279 
L 169.107574 54.973247 
L 167.786597 55.026665 
L 166.936996 55.007217 
L 166.957455 54.647338 
L 166.928923 54.158146 
L 168.676524 54.199231 
L 168.681922 53.13273 
L 170.362238 53.099609 
L 170.026806 52.026627 
L 170.447432 52.124187 
L 170.45805 52.12665 
L 171.094268 52.341443 
L 172.182424 52.709033 
L 172.474344 52.650053 
L 173.626445 52.417083 
L 173.681904 52.405869 
L 174.618457 52.383188 
" style="fill:#c6dbef;stroke:#000000;stroke-width:0.25;"/>
    <path clip-path="url(#p3ed88bce20)" d="M 306.100286 174.469116 
L 306.072668 174.493634 
L 306.026212 174.518087 
L 305.553352 174.815864 
L 305.545883 174.820631 
L 305.391129 174.919402 
L 304.981288 175.180623 
L 304.700289 175.353247 
L 304.548673 175.448569 
L 304.509967 175.472858 
L 304.479836 175.491766 
L 304.331415 175.585073 
L 304.176367 175.502572 
L 304.045189 175.513405 
L 303.979443 175.543002 
L 303.764241 175.671839 
L 303.722052 175.703358 
L 303.664365 175.746454 
L 303.613579 175.784396 
L 303.462457 175.821657 
L 303.411261 175.834219 
L 303.350937 175.846604 
L 303.054239 175.909996 
L 302.963025 175.929512 
L 302.733891 175.981847 
L 302.635294 175.967712 
L 302.580659 175.959879 
L 302.515001 175.964571 
L 302.514495 175.975651 
L 302.502912 176.229508 
L 302.507935 176.490595 
L 302.184849 176.51726 
L 302.275965 177.102706 
L 302.012982 177.13856 
L 301.725513 177.26097 
L 301.724625 177.261348 
L 301.536514 177.176294 
L 301.433829 177.129864 
L 301.433088 177.130064 
L 301.388978 177.141974 
L 301.338536 177.155593 
L 301.217569 177.188616 
L 301.150807 177.218789 
L 301.003652 177.447051 
L 300.839052 177.69118 
L 300.625308 177.487713 
L 300.972551 177.225402 
L 300.932574 177.030196 
L 300.931808 177.026453 
L 300.803255 176.744081 
L 300.705001 176.664097 
L 300.723569 176.328233 
L 300.834911 175.982559 
L 300.849846 175.897326 
L 301.006314 175.451755 
L 301.138146 175.460906 
L 301.18722 175.227231 
L 301.190913 175.191348 
L 301.198672 175.11595 
L 301.201773 175.085816 
L 301.173538 174.905607 
L 301.172919 174.901655 
L 301.172718 174.900373 
L 301.174143 174.900592 
L 301.49351 174.949573 
L 301.769398 174.78779 
L 301.945095 174.684733 
L 302.017406 174.642561 
L 302.145845 174.567538 
L 302.786693 174.193207 
L 302.870715 174.158462 
L 303.789431 173.883115 
L 303.798072 173.880525 
L 303.936462 173.837573 
L 304.195835 173.757253 
L 305.343714 173.280563 
L 305.385746 173.277815 
L 305.881072 174.172958 
L 306.100286 174.469116 
" style="fill:#08306b;stroke:#000000;stroke-width:0.25;"/>
    <path clip-path="url(#p3ed88bce20)" d="M 303.994364 184.36285 
L 303.725214 184.787708 
L 303.725164 184.787669 
L 303.469257 184.585034 
L 303.399365 184.529691 
L 303.467322 184.036316 
L 303.49076 183.881899 
L 303.601472 183.715772 
L 303.655569 183.650517 
L 303.803746 183.471777 
L 303.803869 183.471579 
L 303.949473 183.237718 
L 303.987657 183.13741 
L 304.060738 182.945424 
L 304.060774 182.945329 
L 304.365663 182.407124 
L 304.379223 182.383188 
L 304.395804 182.354811 
L 304.525588 182.132625 
L 304.689009 181.853162 
L 304.90301 181.530003 
L 304.957618 181.447688 
L 305.179944 181.112079 
L 305.197702 181.089553 
L 305.209393 181.074789 
L 305.554302 180.639186 
L 305.736095 180.409743 
L 305.811068 180.312997 
L 306.224616 179.779424 
L 306.325786 179.648884 
L 306.421273 179.52556 
L 306.637439 179.246718 
L 306.949968 178.843544 
L 307.3845 178.483949 
L 307.571973 178.328807 
L 307.673014 178.274713 
L 307.785821 178.214302 
L 307.874165 178.145689 
L 307.975005 178.067419 
L 308.13002 177.883984 
L 308.170572 177.835998 
L 308.305898 177.675894 
L 308.472921 177.488452 
L 308.473491 177.487813 
L 308.473388 177.487355 
L 308.472778 177.484625 
L 308.380007 177.24683 
L 308.330606 177.117567 
L 308.321713 177.094298 
L 308.632714 177.084389 
L 308.651597 177.071424 
L 308.659825 177.062384 
L 308.677345 177.043134 
L 308.836531 177.22585 
L 308.930998 177.419683 
L 308.97162 177.503035 
L 309.009712 177.837217 
L 309.056145 178.147972 
L 309.081453 178.326886 
L 309.148446 178.765859 
L 309.164017 178.870168 
L 309.192258 179.080224 
L 309.154563 179.085883 
L 309.03564 179.114424 
L 308.629104 179.383473 
L 308.449724 179.502146 
L 308.271661 179.619971 
L 308.208479 179.662029 
L 307.92743 179.848986 
L 307.700601 180.069727 
L 307.449307 180.284883 
L 307.308176 180.405723 
L 307.189951 180.52433 
L 307.090776 180.623601 
L 306.909727 180.806422 
L 306.777395 180.939604 
L 306.67198 181.04146 
L 306.624144 181.087771 
L 306.390634 181.313267 
L 306.155015 181.561489 
L 306.085258 181.619162 
L 305.691451 181.93633 
L 305.596219 182.029396 
L 305.498063 182.125334 
L 305.396255 182.232125 
L 305.229575 182.449314 
L 305.103656 182.61336 
L 305.049598 182.739144 
L 304.984559 182.856345 
L 304.912339 182.996255 
L 304.887871 183.036291 
L 304.886552 183.038451 
L 304.835969 183.121236 
L 304.598782 183.403624 
L 304.522387 183.494578 
L 304.324235 183.802299 
L 304.225009 183.998874 
L 304.164538 184.094227 
L 303.994364 184.36285 
" style="fill:#08306b;stroke:#000000;stroke-width:0.25;"/>
    <path clip-path="url(#p3ed88bce20)" d="M 307.977607 176.300174 
L 308.088813 176.405689 
L 308.141112 176.454915 
L 308.245082 176.552775 
L 308.45969 176.798383 
L 308.569396 176.918228 
L 308.677345 177.043134 
L 308.659825 177.062384 
L 308.651597 177.071424 
L 308.632714 177.084389 
L 308.321713 177.094298 
L 308.293648 177.083141 
L 308.164421 177.03177 
L 307.989755 176.951044 
L 307.954795 176.934886 
L 307.800399 176.91436 
L 307.724304 176.930157 
L 307.637841 176.948105 
L 307.520793 176.979403 
L 307.308306 177.036429 
L 306.813046 177.152985 
L 306.261796 177.408928 
L 305.57229 177.793255 
L 304.964528 178.131969 
L 303.965808 178.595572 
L 303.739051 178.537456 
L 303.714336 178.531121 
L 303.071104 178.366541 
L 302.406319 177.861757 
L 302.028419 177.528843 
L 301.971302 177.478551 
L 301.724625 177.261348 
L 301.725513 177.26097 
L 302.012982 177.13856 
L 302.275965 177.102706 
L 302.184849 176.51726 
L 302.507935 176.490595 
L 302.502912 176.229508 
L 302.514495 175.975651 
L 302.515001 175.964571 
L 302.580659 175.959879 
L 302.635294 175.967712 
L 302.733891 175.981847 
L 302.963025 175.929512 
L 303.054239 175.909996 
L 303.350937 175.846604 
L 303.411261 175.834219 
L 303.462457 175.821657 
L 303.613579 175.784396 
L 303.664365 175.746454 
L 303.722052 175.703358 
L 303.764241 175.671839 
L 303.979443 175.543002 
L 304.045189 175.513405 
L 304.176367 175.502572 
L 304.331415 175.585073 
L 304.479836 175.491766 
L 304.509967 175.472858 
L 304.548673 175.448569 
L 304.700289 175.353247 
L 304.981288 175.180623 
L 305.391129 174.919402 
L 305.545883 174.820631 
L 305.553352 174.815864 
L 306.026212 174.518087 
L 306.072668 174.493634 
L 306.100286 174.469116 
L 306.241619 174.660746 
L 306.543234 175.012218 
L 307.168785 175.548723 
L 307.538575 175.880163 
L 307.977607 176.300174 
" style="fill:#08306b;stroke:#000000;stroke-width:0.25;"/>
    <path clip-path="url(#p3ed88bce20)" d="M 305.385746 173.277815 
L 305.343714 173.280563 
L 304.195835 173.757253 
L 303.936462 173.837573 
L 303.798072 173.880525 
L 303.789431 173.883115 
L 302.870715 174.158462 
L 302.786693 174.193207 
L 302.145845 174.567538 
L 302.017406 174.642561 
L 301.945095 174.684733 
L 301.769398 174.78779 
L 301.49351 174.949573 
L 301.174143 174.900592 
L 301.172718 174.900373 
L 301.29844 174.792507 
L 301.331758 174.424115 
L 301.333123 174.208007 
L 301.334044 174.062275 
L 301.321901 173.889054 
L 301.347155 173.712491 
L 300.688662 173.353543 
L 300.846795 173.135309 
L 300.822491 173.04154 
L 300.791755 172.922264 
L 300.637241 172.728707 
L 302.486909 172.002865 
L 302.516647 171.991195 
L 303.183097 171.735653 
L 303.66135 171.552283 
L 303.696465 171.538796 
L 303.751603 171.517704 
L 303.827636 171.488578 
L 304.456796 171.247385 
L 304.567172 171.176822 
L 304.501324 171.359036 
L 304.889795 172.148099 
L 304.918067 172.226244 
L 305.122284 172.790369 
L 305.253152 173.032352 
L 305.385746 173.277815 
" style="fill:#08306b;stroke:#000000;stroke-width:0.25;"/>
    <path clip-path="url(#p3ed88bce20)" d="M 301.172718 174.900373 
L 301.172919 174.901655 
L 301.173538 174.905607 
L 301.201773 175.085816 
L 301.198672 175.11595 
L 301.190913 175.191348 
L 301.18722 175.227231 
L 301.138146 175.460906 
L 301.006314 175.451755 
L 300.849846 175.897326 
L 300.834911 175.982559 
L 300.319458 175.866359 
L 300.276847 176.034174 
L 300.166961 176.047688 
L 300.021499 176.000263 
L 299.804733 175.955773 
L 299.601449 175.95086 
L 299.43897 175.939386 
L 299.418045 175.937909 
L 299.033526 175.92121 
L 298.261669 175.886938 
L 298.261595 175.886935 
L 298.37458 175.444253 
L 298.396121 175.396186 
L 298.494632 175.176365 
L 298.597158 174.947511 
L 298.712617 174.791101 
L 298.84578 174.627079 
L 298.893902 174.545471 
L 298.989085 174.384052 
L 298.996509 174.371462 
L 299.049571 174.281295 
L 299.075547 174.232641 
L 299.137381 174.116824 
L 299.42537 173.809997 
L 299.676769 173.524326 
L 299.853584 173.556657 
L 300.037601 173.580282 
L 300.062299 173.583453 
L 300.160336 173.56034 
L 300.162418 173.559506 
L 300.357752 173.481267 
L 300.484655 173.430437 
L 300.663616 173.362983 
L 300.688662 173.353543 
L 301.347155 173.712491 
L 301.321901 173.889054 
L 301.334044 174.062275 
L 301.333123 174.208007 
L 301.331758 174.424115 
L 301.29844 174.792507 
L 301.172718 174.900373 
" style="fill:#08306b;stroke:#000000;stroke-width:0.25;"/>
    <path clip-path="url(#p3ed88bce20)" d="M 300.834911 175.982559 
L 300.723569 176.328233 
L 300.705001 176.664097 
L 300.803255 176.744081 
L 300.931808 177.026453 
L 300.932574 177.030196 
L 300.972551 177.225402 
L 300.625308 177.487713 
L 300.839052 177.69118 
L 300.63939 178.016562 
L 300.633318 178.027138 
L 300.518524 178.227107 
L 300.292559 178.573971 
L 300.154225 178.766065 
L 299.880434 179.032688 
L 299.505294 178.904094 
L 299.387361 178.857489 
L 299.283965 178.756347 
L 299.104708 178.585651 
L 298.792066 178.287939 
L 298.539636 178.042201 
L 298.110305 177.45861 
L 298.103162 177.448858 
L 297.894129 177.163479 
L 297.942684 176.981514 
L 297.946549 176.967029 
L 297.95418 176.93884 
L 298.019659 176.696949 
L 298.175505 176.263105 
L 298.26066 175.891017 
L 298.261595 175.886935 
L 298.261669 175.886938 
L 299.033526 175.92121 
L 299.418045 175.937909 
L 299.43897 175.939386 
L 299.601449 175.95086 
L 299.804733 175.955773 
L 300.021499 176.000263 
L 300.166961 176.047688 
L 300.276847 176.034174 
L 300.319458 175.866359 
L 300.834911 175.982559 
" style="fill:#08306b;stroke:#000000;stroke-width:0.25;"/>
    <path clip-path="url(#p3ed88bce20)" d="M 312.432513 189.28687 
L 309.013669 189.832073 
L 308.614494 189.89573 
L 308.614569 189.648524 
L 308.61459 189.581085 
L 308.617427 189.573974 
L 308.75216 189.236228 
L 308.891747 189.223399 
L 308.961095 189.218762 
L 308.98842 189.216935 
L 309.236221 189.211872 
L 309.983629 189.294149 
L 310.87095 189.14814 
L 311.262201 188.733952 
L 311.297989 188.078434 
L 311.289067 187.773603 
L 311.279499 187.446471 
L 311.073604 187.198136 
L 310.770448 186.832469 
L 310.244715 186.182354 
L 310.101018 186.004759 
L 309.949358 185.825254 
L 309.531317 185.330743 
L 309.161922 184.930232 
L 309.074013 184.834934 
L 308.849834 184.591898 
L 308.841028 184.58231 
L 308.626666 184.349878 
L 308.396151 184.055991 
L 308.317239 183.955372 
L 308.24812 183.585315 
L 308.190665 183.277418 
L 308.048137 182.891174 
L 308.040267 182.87406 
L 307.825388 182.406765 
L 307.561765 182.006616 
L 307.5532 181.971124 
L 307.549441 181.927382 
L 307.545306 181.785031 
L 307.52553 181.640164 
L 307.692151 181.520271 
L 307.821886 181.426908 
L 308.1034 181.31351 
L 308.247236 181.205418 
L 308.375342 181.037905 
L 308.505994 180.97031 
L 308.609658 180.913193 
L 308.882026 180.763127 
L 309.373976 180.557801 
L 309.426289 180.515994 
L 309.660106 181.190128 
L 309.881463 181.699148 
L 310.017853 182.141262 
L 310.060689 182.280274 
L 310.487939 183.204143 
L 310.675464 183.60937 
L 310.739206 183.737162 
L 310.87811 184.041148 
L 311.133344 184.59952 
L 311.693443 186.43319 
L 311.81699 186.941432 
L 312.299034 188.924404 
L 312.432513 189.28687 
" style="fill:#08306b;stroke:#000000;stroke-width:0.25;"/>
    <path clip-path="url(#p3ed88bce20)" d="M 307.545306 181.785031 
L 307.549441 181.927382 
L 307.5532 181.971124 
L 307.561765 182.006616 
L 307.220114 181.957208 
L 306.867568 181.904289 
L 306.86746 181.904273 
L 306.499791 181.999992 
L 306.179504 182.096312 
L 305.79669 182.218895 
L 305.674386 182.258058 
L 305.674089 182.258153 
L 305.321892 182.774854 
L 305.119326 183.101383 
L 305.190569 183.197634 
L 305.413672 183.499454 
L 305.413884 183.499886 
L 305.747157 184.181466 
L 305.743197 184.524043 
L 305.718099 184.73811 
L 305.660784 184.815741 
L 305.660733 184.815809 
L 305.575341 184.869518 
L 305.393303 185.003972 
L 305.187811 185.050597 
L 304.69187 185.156146 
L 303.992532 185.001501 
L 303.725214 184.787708 
L 303.994364 184.36285 
L 304.164538 184.094227 
L 304.225009 183.998874 
L 304.324235 183.802299 
L 304.522387 183.494578 
L 304.598782 183.403624 
L 304.835969 183.121236 
L 304.886552 183.038451 
L 304.887871 183.036291 
L 304.912339 182.996255 
L 304.984559 182.856345 
L 305.049598 182.739144 
L 305.103656 182.61336 
L 305.229575 182.449314 
L 305.396255 182.232125 
L 305.498063 182.125334 
L 305.596219 182.029396 
L 305.691451 181.93633 
L 306.085258 181.619162 
L 306.155015 181.561489 
L 306.390634 181.313267 
L 306.624144 181.087771 
L 306.67198 181.04146 
L 306.777395 180.939604 
L 306.909727 180.806422 
L 307.090776 180.623601 
L 307.189951 180.52433 
L 307.308176 180.405723 
L 307.449307 180.284883 
L 307.700601 180.069727 
L 307.92743 179.848986 
L 308.271661 179.619971 
L 308.449724 179.502146 
L 309.03564 179.114424 
L 309.154563 179.085883 
L 309.192258 179.080224 
L 309.286934 179.764003 
L 309.426289 180.515994 
L 309.373976 180.557801 
L 308.882026 180.763127 
L 308.609658 180.913193 
L 308.505994 180.97031 
L 308.375342 181.037905 
L 308.247236 181.205418 
L 308.1034 181.31351 
L 307.821886 181.426908 
L 307.692151 181.520271 
L 307.52553 181.640164 
L 307.545306 181.785031 
" style="fill:#08306b;stroke:#000000;stroke-width:0.25;"/>
    <path clip-path="url(#p3ed88bce20)" d="M 311.073604 187.198136 
L 311.279499 187.446471 
L 311.289067 187.773603 
L 311.297989 188.078434 
L 311.262201 188.733952 
L 310.87095 189.14814 
L 309.983629 189.294149 
L 309.236221 189.211872 
L 308.98842 189.216935 
L 308.988384 189.216793 
L 308.913549 188.917084 
L 308.91349 188.916739 
L 308.896514 188.816824 
L 308.497623 188.809335 
L 308.112011 188.816663 
L 307.76452 188.820795 
L 307.582071 188.825509 
L 307.340573 188.193484 
L 307.319815 188.149911 
L 307.271962 188.049458 
L 307.165809 187.82682 
L 307.080515 187.642007 
L 307.066008 187.610575 
L 307.050982 187.577635 
L 306.992335 187.449074 
L 306.948243 187.35242 
L 306.377758 187.435261 
L 306.112559 187.483991 
L 305.782543 187.527217 
L 305.778838 187.527703 
L 305.770838 187.457225 
L 305.765487 187.41008 
L 305.725927 187.108339 
L 305.714264 187.019381 
L 305.729663 186.926041 
L 305.774038 186.833816 
L 305.795541 186.75734 
L 305.79649 186.753967 
L 305.835938 186.661725 
L 305.866581 186.601453 
L 305.896343 186.502806 
L 305.900213 186.432737 
L 306.077507 186.246139 
L 306.150258 186.202377 
L 306.218377 186.116028 
L 305.817869 185.914588 
L 305.817705 185.914506 
L 305.785196 185.890084 
L 305.720298 185.84133 
L 305.729443 185.748784 
L 305.73307 185.71207 
L 305.745841 185.63429 
L 305.749593 185.611441 
L 305.749655 185.61106 
L 305.827058 185.562971 
L 305.861318 185.545136 
L 306.264643 185.528313 
L 306.350127 185.518702 
L 306.36829 185.51666 
L 306.370152 185.509001 
L 306.422252 185.294731 
L 306.491374 185.057944 
L 306.491628 185.057073 
L 306.150671 184.933662 
L 305.866338 184.819574 
L 305.742396 184.751462 
L 305.718099 184.73811 
L 305.743197 184.524043 
L 305.747157 184.181466 
L 305.413884 183.499886 
L 305.413672 183.499454 
L 305.190569 183.197634 
L 305.119326 183.101383 
L 305.321892 182.774854 
L 305.674089 182.258153 
L 305.674386 182.258058 
L 305.79669 182.218895 
L 306.179504 182.096312 
L 306.499791 181.999992 
L 306.86746 181.904273 
L 306.867568 181.904289 
L 307.220114 181.957208 
L 307.561765 182.006616 
L 307.825388 182.406765 
L 308.040267 182.87406 
L 308.048137 182.891174 
L 308.190665 183.277418 
L 308.317239 183.955372 
L 308.396151 184.055991 
L 308.626666 184.349878 
L 308.841028 184.58231 
L 308.849834 184.591898 
L 309.074013 184.834934 
L 309.161922 184.930232 
L 309.531317 185.330743 
L 309.949358 185.825254 
L 310.101018 186.004759 
L 310.244715 186.182354 
L 310.770448 186.832469 
L 311.073604 187.198136 
" style="fill:#c6dbef;stroke:#000000;stroke-width:0.25;"/>
    <path clip-path="url(#p3ed88bce20)" d="M 313.041459 200.503772 
L 313.260992 201.31295 
L 313.936689 201.265097 
L 313.948774 201.371277 
L 313.995853 201.784697 
L 314.003257 202.065342 
L 314.013737 202.463139 
L 314.09358 202.830629 
L 314.125375 202.976843 
L 314.193919 203.384258 
L 314.472508 204.340767 
L 314.549276 204.512624 
L 314.988613 205.494174 
L 315.431115 206.482107 
L 315.732881 207.316779 
L 315.812911 207.508196 
L 315.927998 207.784155 
L 315.94037 207.837444 
L 316.109252 208.564825 
L 316.195584 208.940738 
L 315.882267 208.993419 
L 315.56388 209.046952 
L 314.983649 209.144082 
L 314.759069 209.058434 
L 314.730607 208.830421 
L 314.697986 208.590375 
L 314.296015 208.514235 
L 313.480301 208.658171 
L 313.051759 208.88621 
L 313.043476 208.890617 
L 312.815086 208.162198 
L 312.746361 207.928975 
L 312.694668 207.753443 
L 312.456997 206.94651 
L 312.152627 206.478314 
L 311.642778 205.685334 
L 311.115547 205.176966 
L 311.009727 204.996102 
L 310.826481 204.682906 
L 310.819131 204.633321 
L 310.773693 204.326807 
L 310.903693 204.074015 
L 311.290674 204.046424 
L 311.804504 204.165094 
L 312.044099 204.095046 
L 312.261557 204.03147 
L 312.473833 203.827622 
L 312.502217 203.463555 
L 312.438901 203.099463 
L 312.429224 203.043817 
L 312.344114 202.895098 
L 312.107946 202.482627 
L 311.765912 201.885259 
L 311.662445 201.74367 
L 311.029036 200.876887 
L 310.813135 200.589859 
L 311.817898 200.419654 
L 312.016359 200.434836 
L 312.745011 200.490989 
L 313.03843 200.492606 
L 313.041459 200.503772 
" style="fill:#2171b5;stroke:#000000;stroke-width:0.25;"/>
    <path clip-path="url(#p3ed88bce20)" d="M 314.759069 209.058434 
L 314.983649 209.144082 
L 315.56388 209.046952 
L 315.882267 208.993419 
L 316.195584 208.940738 
L 316.305408 209.474564 
L 316.344314 209.699139 
L 316.393421 209.948221 
L 316.444116 210.198757 
L 316.548364 210.915878 
L 316.134488 210.956513 
L 315.331368 211.035365 
L 314.98695 211.074108 
L 314.097699 211.15769 
L 313.700253 211.195522 
L 313.399644 211.220375 
L 312.757555 211.273269 
L 312.402013 211.303141 
L 312.25812 211.305382 
L 311.689362 211.354916 
L 311.57271 211.357544 
L 311.439662 211.110759 
L 311.439121 211.109756 
L 311.397765 211.003762 
L 311.328158 210.855967 
L 311.216285 210.818213 
L 311.100213 210.779576 
L 311.141926 210.375158 
L 311.218013 210.370938 
L 311.255313 209.944206 
L 311.026958 209.942674 
L 311.032124 209.834094 
L 311.143655 209.354629 
L 311.287218 209.363535 
L 311.410073 209.369038 
L 311.50978 208.586468 
L 311.602333 208.842944 
L 311.729989 209.114005 
L 311.909096 209.494317 
L 312.063718 209.776786 
L 312.065382 209.780192 
L 312.150607 209.954616 
L 312.353001 210.167751 
L 312.615855 210.370096 
L 312.793843 210.437334 
L 313.072212 210.350282 
L 313.148872 210.184326 
L 313.197642 210.078941 
L 313.251235 209.627813 
L 313.251409 209.626348 
L 313.250579 209.622291 
L 313.197997 209.365233 
L 313.085399 209.019515 
L 313.082464 209.010503 
L 313.043476 208.890617 
L 313.051759 208.88621 
L 313.480301 208.658171 
L 314.296015 208.514235 
L 314.697986 208.590375 
L 314.730607 208.830421 
L 314.759069 209.058434 
" style="fill:#2171b5;stroke:#000000;stroke-width:0.25;"/>
    <path clip-path="url(#p3ed88bce20)" d="M 311.50978 208.586468 
L 311.410073 209.369038 
L 311.287218 209.363535 
L 311.143655 209.354629 
L 311.032124 209.834094 
L 311.026958 209.942674 
L 311.255313 209.944206 
L 311.218013 210.370938 
L 311.141926 210.375158 
L 311.100213 210.779576 
L 311.216285 210.818213 
L 311.328158 210.855967 
L 311.397765 211.003762 
L 311.439121 211.109756 
L 311.439662 211.110759 
L 311.57271 211.357544 
L 311.689362 211.354916 
L 312.25812 211.305382 
L 312.402013 211.303141 
L 312.757555 211.273269 
L 313.399644 211.220375 
L 313.700253 211.195522 
L 314.097699 211.15769 
L 314.98695 211.074108 
L 315.331368 211.035365 
L 316.134488 210.956513 
L 316.548364 210.915878 
L 316.613547 212.188017 
L 316.613467 212.210543 
L 316.611591 212.739401 
L 316.068556 212.604116 
L 315.907331 212.63149 
L 315.584512 212.913136 
L 315.057019 212.846752 
L 315.02806 212.843107 
L 314.948693 212.83269 
L 314.857776 212.810358 
L 314.688556 212.763278 
L 314.242279 212.637604 
L 314.127142 212.417103 
L 314.001374 212.334122 
L 313.308814 212.318636 
L 312.853222 212.490779 
L 312.390945 212.505069 
L 312.290318 212.483283 
L 311.92912 212.391939 
L 311.419027 212.406061 
L 311.004171 212.532014 
L 310.254114 212.386009 
L 309.952984 212.312979 
L 309.278285 212.163911 
L 308.970652 212.044957 
L 308.483878 211.857025 
L 308.13754 211.865936 
L 307.700955 211.580589 
L 307.317496 211.02321 
L 307.317673 211.022594 
L 307.728999 209.591168 
L 307.807581 209.317524 
L 307.807633 209.317344 
L 308.049744 208.665886 
L 308.291713 208.013414 
L 308.671436 207.578915 
L 309.174084 207.212182 
L 309.37101 207.087194 
L 309.702899 206.985562 
L 310.018102 206.890386 
L 310.137508 206.847079 
L 310.601212 206.839597 
L 310.90903 206.990126 
L 310.913231 206.999311 
L 310.962227 207.106434 
L 311.074413 207.342707 
L 311.226318 207.98354 
L 311.227035 207.98557 
L 311.422322 208.323785 
L 311.427637 208.340732 
L 311.438369 208.374956 
L 311.50978 208.586468 
" style="fill:#2171b5;stroke:#000000;stroke-width:0.25;"/>
    <path clip-path="url(#p3ed88bce20)" d="M 311.058086 198.316095 
L 311.082672 198.657326 
L 311.079201 198.728699 
L 311.065796 199.004347 
L 310.600081 199.005162 
L 310.607683 199.068321 
L 310.602992 199.452598 
L 310.411535 199.464518 
L 310.026594 199.488353 
L 309.583475 199.492 
L 309.290478 199.49415 
L 309.091223 199.375581 
L 308.693261 199.112512 
L 308.690639 199.110778 
L 308.263302 198.830244 
L 308.221361 198.76653 
L 308.123021 198.610921 
L 308.064441 198.518227 
L 308.032543 198.117024 
L 308.026981 198.047068 
L 308.059049 197.952483 
L 308.073862 197.952281 
L 309.012688 197.939489 
L 309.157604 197.935512 
L 309.514863 197.954295 
L 310.11254 197.92484 
L 310.145768 198.157793 
L 310.290675 198.156133 
L 310.586009 198.148923 
L 310.955261 198.177595 
L 311.058086 198.316095 
" style="fill:#2171b5;stroke:#000000;stroke-width:0.25;"/>
    <path clip-path="url(#p3ed88bce20)" d="M 314.633816 192.500479 
L 314.903499 192.658683 
L 315.331713 192.610098 
L 315.915147 192.55323 
L 316.568225 192.511523 
L 316.944453 192.494465 
L 317.826148 192.463994 
L 318.234886 192.432138 
L 318.430369 192.470478 
L 318.204591 193.37597 
L 317.993808 194.22099 
L 317.615551 195.874694 
L 317.336951 195.861544 
L 316.97706 195.844325 
L 316.846686 195.838088 
L 316.727452 195.832453 
L 316.525273 195.843755 
L 315.956699 195.87881 
L 315.734661 195.892649 
L 315.449888 195.904093 
L 314.969471 195.923244 
L 314.302885 195.933917 
L 314.141687 195.918937 
L 313.761854 195.88364 
L 313.709527 195.438519 
L 313.684627 195.226708 
L 313.657057 194.991893 
L 313.670203 194.552478 
L 313.682026 194.159538 
L 313.67406 193.830818 
L 313.663838 193.40218 
L 313.644603 192.982198 
L 313.582219 192.38903 
L 313.569728 192.233183 
L 313.71189 192.188798 
L 314.136131 192.280073 
L 314.633816 192.500479 
" style="fill:#2171b5;stroke:#000000;stroke-width:0.25;"/>
    <path clip-path="url(#p3ed88bce20)" d="M 166.911107 197.386639 
L 167.148346 198.194781 
L 166.269285 198.366456 
L 165.946518 199.346327 
L 165.130339 199.822416 
L 164.761938 200.410623 
L 164.395944 201.015778 
L 164.288759 201.308619 
L 164.522541 201.937209 
L 164.839007 202.493826 
L 164.918376 202.633524 
L 165.188294 203.33101 
L 165.378608 203.439805 
L 165.851122 203.346694 
L 166.502794 202.929709 
L 167.044771 201.823881 
L 168.316531 202.849922 
L 168.774722 204.480778 
L 168.684754 204.996653 
L 168.421825 206.192316 
L 167.742045 206.220154 
L 166.201844 206.351387 
L 165.89033 206.263905 
L 165.635401 206.283322 
L 165.341411 206.631136 
L 165.203052 206.844093 
L 165.04008 207.094613 
L 164.778067 207.498858 
L 164.785821 207.606462 
L 164.200134 207.617533 
L 163.737361 207.744703 
L 163.333746 208.205956 
L 163.119118 208.132553 
L 162.951381 208.075234 
L 162.726088 208.028148 
L 162.019622 207.588232 
L 160.63722 207.457499 
L 159.572789 207.34593 
L 159.224084 207.505192 
L 159.233874 207.437318 
L 159.347265 206.326728 
L 159.121165 206.043923 
L 159.147142 205.554332 
L 159.254856 205.319409 
L 159.279063 205.099554 
L 159.332125 204.438912 
L 159.368053 203.312136 
L 159.347063 202.915922 
L 159.345107 202.764032 
L 159.293632 201.907141 
L 159.310076 201.581999 
L 159.316746 201.450407 
L 159.274523 200.816958 
L 159.24219 199.694587 
L 159.219247 198.537209 
L 159.218704 198.048688 
L 159.949425 198.040411 
L 160.484484 198.049437 
L 161.163527 198.069947 
L 161.658896 198.119092 
L 161.992311 198.114269 
L 162.626745 198.086272 
L 163.576785 197.615985 
L 163.81539 197.496028 
L 164.044707 197.380673 
L 164.671721 197.102166 
L 165.201923 196.700845 
L 165.524597 196.224986 
L 166.119302 196.336146 
L 166.884212 197.153727 
L 166.911107 197.386639 
" style="fill:#2171b5;stroke:#000000;stroke-width:0.25;"/>
    <path clip-path="url(#p3ed88bce20)" d="M 164.947462 209.138445 
L 165.561886 209.545189 
L 165.797548 209.52455 
L 166.309003 209.311105 
L 166.348824 208.972286 
L 166.469451 208.603041 
L 166.630442 208.425055 
L 166.840561 208.373634 
L 167.027283 208.473007 
L 167.107761 208.75663 
L 166.807634 209.379234 
L 167.102759 210.033081 
L 167.452721 210.147769 
L 167.887397 210.406083 
L 167.620033 210.893563 
L 167.474543 211.158765 
L 166.967118 211.250599 
L 166.791104 211.415359 
L 166.77303 211.663468 
L 166.754348 212.006847 
L 166.497986 212.540841 
L 166.400113 213.21089 
L 166.518733 213.613225 
L 167.369616 213.932732 
L 167.993407 214.180388 
L 168.48736 214.389384 
L 169.066467 214.697413 
L 169.497422 215.199833 
L 169.781772 215.479508 
L 169.970361 215.712239 
L 170.220881 216.271825 
L 170.216821 216.273538 
L 170.196212 216.282231 
L 169.131506 216.731352 
L 168.991784 216.357324 
L 168.654527 216.473038 
L 168.545526 216.270256 
L 167.402576 216.763341 
L 167.672327 217.378155 
L 167.839126 217.757485 
L 168.083996 218.316761 
L 167.63991 218.489454 
L 166.937587 218.675904 
L 166.549461 218.795791 
L 166.393109 218.844061 
L 166.240092 218.891329 
L 164.557163 219.59617 
L 164.47359 219.63093 
L 163.607039 219.881698 
L 163.541808 219.718011 
L 163.450951 219.375569 
L 163.282663 218.618479 
L 163.241411 218.43301 
L 162.314155 218.509684 
L 162.505583 218.197869 
L 162.639918 217.974764 
L 162.745273 217.795288 
L 162.961279 217.412897 
L 162.936846 217.223865 
L 162.928652 217.161288 
L 162.887129 216.840585 
L 162.768346 216.486466 
L 162.653606 216.13656 
L 162.574865 215.766648 
L 162.539586 215.528207 
L 162.56138 215.336868 
L 162.576953 215.142902 
L 162.654151 214.761784 
L 162.655334 214.408212 
L 162.647251 214.269187 
L 162.553432 213.772099 
L 162.527803 213.594212 
L 162.496508 213.377212 
L 162.47432 213.123467 
L 162.423657 212.416 
L 162.405077 212.253049 
L 162.323739 211.099962 
L 162.540381 210.874236 
L 162.794063 210.620689 
L 162.853377 210.561379 
L 163.166611 210.220724 
L 163.192299 209.688418 
L 163.202342 209.587968 
L 163.211039 209.500544 
L 163.224794 209.37332 
L 163.278754 208.965483 
L 163.356097 208.584366 
L 163.333746 208.205956 
L 163.737361 207.744703 
L 164.200134 207.617533 
L 164.785821 207.606462 
L 164.901139 208.476745 
L 164.947462 209.138445 
" style="fill:#2171b5;stroke:#000000;stroke-width:0.25;"/>
    <path clip-path="url(#p3ed88bce20)" d="M 168.545526 216.270256 
L 168.654527 216.473038 
L 168.991784 216.357324 
L 169.131506 216.731352 
L 170.196212 216.282231 
L 170.216821 216.273538 
L 170.220881 216.271825 
L 170.220489 216.309276 
L 170.219874 216.368162 
L 170.219154 216.437026 
L 170.218287 216.519879 
L 170.216826 216.659704 
L 170.217046 216.66263 
L 170.22018 216.704157 
L 170.230579 216.841972 
L 170.243311 217.01071 
L 170.254386 217.157479 
L 170.270232 217.367472 
L 170.298571 217.455818 
L 170.336271 217.573344 
L 170.35546 217.633164 
L 170.494061 218.065244 
L 170.685348 218.659236 
L 171.042394 218.992873 
L 171.793363 219.637252 
L 171.690147 219.912151 
L 171.27622 220.078427 
L 170.714937 220.159361 
L 170.388429 220.698621 
L 170.343526 221.471359 
L 170.365569 221.896682 
L 170.192071 221.916225 
L 169.374502 221.559901 
L 169.004114 221.704895 
L 168.084365 222.739662 
L 167.834608 222.98931 
L 167.700219 223.271344 
L 167.79002 223.625512 
L 165.446754 224.011188 
L 165.044667 224.061095 
L 164.395174 224.135656 
L 163.570385 224.204562 
L 163.133042 224.269265 
L 163.044554 224.084796 
L 162.90386 223.481854 
L 162.789824 222.922294 
L 162.714651 222.309582 
L 162.573843 221.697085 
L 162.481474 221.373605 
L 162.320585 220.440331 
L 163.607039 219.881698 
L 164.47359 219.63093 
L 164.557163 219.59617 
L 166.240092 218.891329 
L 166.393109 218.844061 
L 166.549461 218.795791 
L 166.937587 218.675904 
L 167.63991 218.489454 
L 168.083996 218.316761 
L 167.839126 217.757485 
L 167.672327 217.378155 
L 167.402576 216.763341 
L 168.545526 216.270256 
" style="fill:#2171b5;stroke:#000000;stroke-width:0.25;"/>
   </g>
   <g id="patch_3">
    <path d="M 133.566594 233.497325 
L 133.566594 30.48 
" style="fill:none;stroke:#000000;stroke-linecap:square;stroke-linejoin:miter;stroke-width:0.8;"/>
   </g>
   <g id="patch_4">
    <path d="M 327.233406 233.497325 
L 327.233406 30.48 
" style="fill:none;stroke:#000000;stroke-linecap:square;stroke-linejoin:miter;stroke-width:0.8;"/>
   </g>
   <g id="patch_5">
    <path d="M 133.566594 233.497325 
L 327.233406 233.497325 
" style="fill:none;stroke:#000000;stroke-linecap:square;stroke-linejoin:miter;stroke-width:0.8;"/>
   </g>
   <g id="patch_6">
    <path d="M 133.566594 30.48 
L 327.233406 30.48 
" style="fill:none;stroke:#000000;stroke-linecap:square;stroke-linejoin:miter;stroke-width:0.8;"/>
   </g>
   <g id="text_1">
    <!-- Jakarta Floods in JUL 2013 -->
    <g transform="translate(97.243594 24.48)scale(0.18 -0.18)">
     <defs>
      <path d="M 9.1875 72.90625 
L 27.984375 72.90625 
L 27.984375 7.078125 
Q 27.984375 -6.546875 20.578125 -13.28125 
Q 13.1875 -20.015625 -1.8125 -20.015625 
L -5.609375 -20.015625 
L -5.609375 -5.8125 
L -2.6875 -5.8125 
Q 3.171875 -5.8125 6.171875 -2.53125 
Q 9.1875 0.734375 9.1875 7.078125 
z
" id="DejaVuSans-Bold-74"/>
      <path d="M 32.90625 24.609375 
Q 27.4375 24.609375 24.671875 22.75 
Q 21.921875 20.90625 21.921875 17.28125 
Q 21.921875 13.96875 24.140625 12.078125 
Q 26.375 10.203125 30.328125 10.203125 
Q 35.25 10.203125 38.625 13.734375 
Q 42 17.28125 42 22.609375 
L 42 24.609375 
z
M 59.625 31.203125 
L 59.625 0 
L 42 0 
L 42 8.109375 
Q 38.484375 3.125 34.078125 0.84375 
Q 29.6875 -1.421875 23.390625 -1.421875 
Q 14.890625 -1.421875 9.59375 3.53125 
Q 4.296875 8.5 4.296875 16.40625 
Q 4.296875 26.03125 10.90625 30.515625 
Q 17.53125 35.015625 31.6875 35.015625 
L 42 35.015625 
L 42 36.375 
Q 42 40.53125 38.71875 42.453125 
Q 35.453125 44.390625 28.515625 44.390625 
Q 22.90625 44.390625 18.0625 43.265625 
Q 13.234375 42.140625 9.078125 39.890625 
L 9.078125 53.21875 
Q 14.703125 54.59375 20.359375 55.296875 
Q 26.03125 56 31.6875 56 
Q 46.484375 56 53.046875 50.171875 
Q 59.625 44.34375 59.625 31.203125 
z
" id="DejaVuSans-Bold-97"/>
      <path d="M 8.40625 75.984375 
L 25.875 75.984375 
L 25.875 34.625 
L 46 54.6875 
L 66.3125 54.6875 
L 39.59375 29.59375 
L 68.40625 0 
L 47.21875 0 
L 25.875 22.796875 
L 25.875 0 
L 8.40625 0 
z
" id="DejaVuSans-Bold-107"/>
      <path d="M 49.03125 39.796875 
Q 46.734375 40.875 44.453125 41.375 
Q 42.1875 41.890625 39.890625 41.890625 
Q 33.15625 41.890625 29.515625 37.5625 
Q 25.875 33.25 25.875 25.203125 
L 25.875 0 
L 8.40625 0 
L 8.40625 54.6875 
L 25.875 54.6875 
L 25.875 45.703125 
Q 29.25 51.078125 33.609375 53.53125 
Q 37.984375 56 44.09375 56 
Q 44.96875 56 45.984375 55.921875 
Q 47.015625 55.859375 48.96875 55.609375 
z
" id="DejaVuSans-Bold-114"/>
      <path d="M 27.484375 70.21875 
L 27.484375 54.6875 
L 45.515625 54.6875 
L 45.515625 42.1875 
L 27.484375 42.1875 
L 27.484375 19 
Q 27.484375 15.1875 29 13.84375 
Q 30.515625 12.5 35.015625 12.5 
L 44 12.5 
L 44 0 
L 29 0 
Q 18.65625 0 14.328125 4.3125 
Q 10.015625 8.640625 10.015625 19 
L 10.015625 42.1875 
L 1.3125 42.1875 
L 1.3125 54.6875 
L 10.015625 54.6875 
L 10.015625 70.21875 
z
" id="DejaVuSans-Bold-116"/>
      <path id="DejaVuSans-Bold-32"/>
      <path d="M 9.1875 72.90625 
L 59.90625 72.90625 
L 59.90625 58.6875 
L 27.984375 58.6875 
L 27.984375 45.125 
L 58.015625 45.125 
L 58.015625 30.90625 
L 27.984375 30.90625 
L 27.984375 0 
L 9.1875 0 
z
" id="DejaVuSans-Bold-70"/>
      <path d="M 8.40625 75.984375 
L 25.875 75.984375 
L 25.875 0 
L 8.40625 0 
z
" id="DejaVuSans-Bold-108"/>
      <path d="M 34.421875 43.5 
Q 28.609375 43.5 25.5625 39.328125 
Q 22.515625 35.15625 22.515625 27.296875 
Q 22.515625 19.4375 25.5625 15.25 
Q 28.609375 11.078125 34.421875 11.078125 
Q 40.140625 11.078125 43.15625 15.25 
Q 46.1875 19.4375 46.1875 27.296875 
Q 46.1875 35.15625 43.15625 39.328125 
Q 40.140625 43.5 34.421875 43.5 
z
M 34.421875 56 
Q 48.53125 56 56.46875 48.375 
Q 64.40625 40.765625 64.40625 27.296875 
Q 64.40625 13.8125 56.46875 6.1875 
Q 48.53125 -1.421875 34.421875 -1.421875 
Q 20.265625 -1.421875 12.28125 6.1875 
Q 4.296875 13.8125 4.296875 27.296875 
Q 4.296875 40.765625 12.28125 48.375 
Q 20.265625 56 34.421875 56 
z
" id="DejaVuSans-Bold-111"/>
      <path d="M 45.609375 46.6875 
L 45.609375 75.984375 
L 63.1875 75.984375 
L 63.1875 0 
L 45.609375 0 
L 45.609375 7.90625 
Q 42 3.078125 37.640625 0.828125 
Q 33.296875 -1.421875 27.59375 -1.421875 
Q 17.484375 -1.421875 10.984375 6.609375 
Q 4.5 14.65625 4.5 27.296875 
Q 4.5 39.9375 10.984375 47.96875 
Q 17.484375 56 27.59375 56 
Q 33.25 56 37.625 53.734375 
Q 42 51.46875 45.609375 46.6875 
z
M 34.078125 11.28125 
Q 39.703125 11.28125 42.65625 15.375 
Q 45.609375 19.484375 45.609375 27.296875 
Q 45.609375 35.109375 42.65625 39.203125 
Q 39.703125 43.3125 34.078125 43.3125 
Q 28.515625 43.3125 25.5625 39.203125 
Q 22.609375 35.109375 22.609375 27.296875 
Q 22.609375 19.484375 25.5625 15.375 
Q 28.515625 11.28125 34.078125 11.28125 
z
" id="DejaVuSans-Bold-100"/>
      <path d="M 51.125 52.984375 
L 51.125 39.703125 
Q 45.515625 42.046875 40.28125 43.21875 
Q 35.0625 44.390625 30.421875 44.390625 
Q 25.4375 44.390625 23.015625 43.140625 
Q 20.609375 41.890625 20.609375 39.3125 
Q 20.609375 37.203125 22.4375 36.078125 
Q 24.265625 34.96875 29 34.421875 
L 32.078125 33.984375 
Q 45.515625 32.28125 50.140625 28.375 
Q 54.78125 24.46875 54.78125 16.109375 
Q 54.78125 7.375 48.328125 2.96875 
Q 41.890625 -1.421875 29.109375 -1.421875 
Q 23.6875 -1.421875 17.890625 -0.5625 
Q 12.109375 0.296875 6 2 
L 6 15.28125 
Q 11.234375 12.75 16.71875 11.46875 
Q 22.21875 10.203125 27.875 10.203125 
Q 33.015625 10.203125 35.59375 11.609375 
Q 38.1875 13.03125 38.1875 15.828125 
Q 38.1875 18.171875 36.40625 19.3125 
Q 34.625 20.453125 29.296875 21.09375 
L 26.21875 21.484375 
Q 14.546875 22.953125 9.859375 26.90625 
Q 5.171875 30.859375 5.171875 38.921875 
Q 5.171875 47.609375 11.125 51.796875 
Q 17.09375 56 29.390625 56 
Q 34.234375 56 39.546875 55.265625 
Q 44.875 54.546875 51.125 52.984375 
z
" id="DejaVuSans-Bold-115"/>
      <path d="M 8.40625 54.6875 
L 25.875 54.6875 
L 25.875 0 
L 8.40625 0 
z
M 8.40625 75.984375 
L 25.875 75.984375 
L 25.875 61.71875 
L 8.40625 61.71875 
z
" id="DejaVuSans-Bold-105"/>
      <path d="M 63.375 33.296875 
L 63.375 0 
L 45.796875 0 
L 45.796875 5.421875 
L 45.796875 25.484375 
Q 45.796875 32.5625 45.484375 35.25 
Q 45.171875 37.9375 44.390625 39.203125 
Q 43.359375 40.921875 41.59375 41.875 
Q 39.84375 42.828125 37.59375 42.828125 
Q 32.125 42.828125 29 38.59375 
Q 25.875 34.375 25.875 26.90625 
L 25.875 0 
L 8.40625 0 
L 8.40625 54.6875 
L 25.875 54.6875 
L 25.875 46.6875 
Q 29.828125 51.46875 34.265625 53.734375 
Q 38.71875 56 44.09375 56 
Q 53.5625 56 58.46875 50.1875 
Q 63.375 44.390625 63.375 33.296875 
z
" id="DejaVuSans-Bold-110"/>
      <path d="M 9.1875 72.90625 
L 27.984375 72.90625 
L 27.984375 29.203125 
Q 27.984375 20.171875 30.9375 16.28125 
Q 33.890625 12.40625 40.578125 12.40625 
Q 47.3125 12.40625 50.265625 16.28125 
Q 53.21875 20.171875 53.21875 29.203125 
L 53.21875 72.90625 
L 72.015625 72.90625 
L 72.015625 29.203125 
Q 72.015625 13.71875 64.25 6.140625 
Q 56.5 -1.421875 40.578125 -1.421875 
Q 24.703125 -1.421875 16.9375 6.140625 
Q 9.1875 13.71875 9.1875 29.203125 
z
" id="DejaVuSans-Bold-85"/>
      <path d="M 9.1875 72.90625 
L 27.984375 72.90625 
L 27.984375 14.203125 
L 60.984375 14.203125 
L 60.984375 0 
L 9.1875 0 
z
" id="DejaVuSans-Bold-76"/>
      <path d="M 28.8125 13.8125 
L 60.890625 13.8125 
L 60.890625 0 
L 7.90625 0 
L 7.90625 13.8125 
L 34.515625 37.3125 
Q 38.09375 40.53125 39.796875 43.609375 
Q 41.5 46.6875 41.5 50 
Q 41.5 55.125 38.0625 58.25 
Q 34.625 61.375 28.90625 61.375 
Q 24.515625 61.375 19.28125 59.5 
Q 14.0625 57.625 8.109375 53.90625 
L 8.109375 69.921875 
Q 14.453125 72.015625 20.65625 73.109375 
Q 26.859375 74.21875 32.8125 74.21875 
Q 45.90625 74.21875 53.15625 68.453125 
Q 60.40625 62.703125 60.40625 52.390625 
Q 60.40625 46.4375 57.328125 41.28125 
Q 54.25 36.140625 44.390625 27.484375 
z
" id="DejaVuSans-Bold-50"/>
      <path d="M 46 36.53125 
Q 46 50.203125 43.4375 55.78125 
Q 40.875 61.375 34.8125 61.375 
Q 28.765625 61.375 26.171875 55.78125 
Q 23.578125 50.203125 23.578125 36.53125 
Q 23.578125 22.703125 26.171875 17.03125 
Q 28.765625 11.375 34.8125 11.375 
Q 40.828125 11.375 43.40625 17.03125 
Q 46 22.703125 46 36.53125 
z
M 64.796875 36.375 
Q 64.796875 18.265625 56.984375 8.421875 
Q 49.171875 -1.421875 34.8125 -1.421875 
Q 20.40625 -1.421875 12.59375 8.421875 
Q 4.78125 18.265625 4.78125 36.375 
Q 4.78125 54.546875 12.59375 64.375 
Q 20.40625 74.21875 34.8125 74.21875 
Q 49.171875 74.21875 56.984375 64.375 
Q 64.796875 54.546875 64.796875 36.375 
z
" id="DejaVuSans-Bold-48"/>
      <path d="M 11.71875 12.984375 
L 28.328125 12.984375 
L 28.328125 60.109375 
L 11.28125 56.59375 
L 11.28125 69.390625 
L 28.21875 72.90625 
L 46.09375 72.90625 
L 46.09375 12.984375 
L 62.703125 12.984375 
L 62.703125 0 
L 11.71875 0 
z
" id="DejaVuSans-Bold-49"/>
      <path d="M 46.578125 39.3125 
Q 53.953125 37.40625 57.78125 32.6875 
Q 61.625 27.984375 61.625 20.703125 
Q 61.625 9.859375 53.3125 4.21875 
Q 45.015625 -1.421875 29.109375 -1.421875 
Q 23.484375 -1.421875 17.84375 -0.515625 
Q 12.203125 0.390625 6.6875 2.203125 
L 6.6875 16.703125 
Q 11.96875 14.0625 17.15625 12.71875 
Q 22.359375 11.375 27.390625 11.375 
Q 34.859375 11.375 38.84375 13.953125 
Q 42.828125 16.546875 42.828125 21.390625 
Q 42.828125 26.375 38.75 28.9375 
Q 34.671875 31.5 26.703125 31.5 
L 19.1875 31.5 
L 19.1875 43.609375 
L 27.09375 43.609375 
Q 34.1875 43.609375 37.640625 45.828125 
Q 41.109375 48.046875 41.109375 52.59375 
Q 41.109375 56.78125 37.734375 59.078125 
Q 34.375 61.375 28.21875 61.375 
Q 23.6875 61.375 19.046875 60.34375 
Q 14.40625 59.328125 9.8125 57.328125 
L 9.8125 71.09375 
Q 15.375 72.65625 20.84375 73.4375 
Q 26.3125 74.21875 31.59375 74.21875 
Q 45.796875 74.21875 52.84375 69.546875 
Q 59.90625 64.890625 59.90625 55.515625 
Q 59.90625 49.125 56.53125 45.046875 
Q 53.171875 40.96875 46.578125 39.3125 
z
" id="DejaVuSans-Bold-51"/>
     </defs>
     <use xlink:href="#DejaVuSans-Bold-74"/>
     <use x="37.207031" xlink:href="#DejaVuSans-Bold-97"/>
     <use x="104.6875" xlink:href="#DejaVuSans-Bold-107"/>
     <use x="171.191406" xlink:href="#DejaVuSans-Bold-97"/>
     <use x="238.671875" xlink:href="#DejaVuSans-Bold-114"/>
     <use x="287.988281" xlink:href="#DejaVuSans-Bold-116"/>
     <use x="335.791016" xlink:href="#DejaVuSans-Bold-97"/>
     <use x="403.271484" xlink:href="#DejaVuSans-Bold-32"/>
     <use x="438.085938" xlink:href="#DejaVuSans-Bold-70"/>
     <use x="506.396484" xlink:href="#DejaVuSans-Bold-108"/>
     <use x="540.673828" xlink:href="#DejaVuSans-Bold-111"/>
     <use x="609.375" xlink:href="#DejaVuSans-Bold-111"/>
     <use x="678.076172" xlink:href="#DejaVuSans-Bold-100"/>
     <use x="749.658203" xlink:href="#DejaVuSans-Bold-115"/>
     <use x="809.179688" xlink:href="#DejaVuSans-Bold-32"/>
     <use x="843.994141" xlink:href="#DejaVuSans-Bold-105"/>
     <use x="878.271484" xlink:href="#DejaVuSans-Bold-110"/>
     <use x="949.462891" xlink:href="#DejaVuSans-Bold-32"/>
     <use x="984.277344" xlink:href="#DejaVuSans-Bold-74"/>
     <use x="1021.484375" xlink:href="#DejaVuSans-Bold-85"/>
     <use x="1102.685547" xlink:href="#DejaVuSans-Bold-76"/>
     <use x="1166.40625" xlink:href="#DejaVuSans-Bold-32"/>
     <use x="1201.220703" xlink:href="#DejaVuSans-Bold-50"/>
     <use x="1270.800781" xlink:href="#DejaVuSans-Bold-48"/>
     <use x="1340.380859" xlink:href="#DejaVuSans-Bold-49"/>
     <use x="1409.960938" xlink:href="#DejaVuSans-Bold-51"/>
    </g>
   </g>
  </g>
  <g id="axes_2">
   <g id="patch_7">
    <path clip-path="url(#p0cbda35fef)" d="M 10.8 298.961037 
L 120.6 298.961037 
L 340.2 298.961037 
L 450 298.961037 
L 450 277.001037 
L 340.2 277.001037 
L 120.6 277.001037 
L 10.8 277.001037 
z
" style="fill:#ffffff;stroke:#ffffff;stroke-linejoin:miter;stroke-width:0.01;"/>
   </g>
   <g id="QuadMesh_1">
    <path clip-path="url(#p0cbda35fef)" d="M 10.8 298.961037 
L 120.6 298.961037 
L 120.6 277.001037 
L 10.8 277.001037 
L 10.8 298.961037 
" style="fill:#f7fbff;"/>
    <path clip-path="url(#p0cbda35fef)" d="M 120.6 298.961037 
L 230.4 298.961037 
L 230.4 277.001037 
L 120.6 277.001037 
L 120.6 298.961037 
" style="fill:#c6dbef;"/>
    <path clip-path="url(#p0cbda35fef)" d="M 230.4 298.961037 
L 340.2 298.961037 
L 340.2 277.001037 
L 230.4 277.001037 
L 230.4 298.961037 
" style="fill:#6baed6;"/>
    <path clip-path="url(#p0cbda35fef)" d="M 340.2 298.961037 
L 450 298.961037 
L 450 277.001037 
L 340.2 277.001037 
L 340.2 298.961037 
" style="fill:#08306b;"/>
   </g>
   <g id="matplotlib.axis_1">
    <g id="xtick_1">
     <g id="line2d_1"/>
     <g id="text_2">
      <!-- 1 -->
      <g transform="translate(62.51875 310.059475)scale(0.1 -0.1)">
       <defs>
        <path d="M 12.40625 8.296875 
L 28.515625 8.296875 
L 28.515625 63.921875 
L 10.984375 60.40625 
L 10.984375 69.390625 
L 28.421875 72.90625 
L 38.28125 72.90625 
L 38.28125 8.296875 
L 54.390625 8.296875 
L 54.390625 0 
L 12.40625 0 
z
" id="DejaVuSans-49"/>
       </defs>
       <use xlink:href="#DejaVuSans-49"/>
      </g>
     </g>
    </g>
    <g id="xtick_2">
     <g id="line2d_2"/>
     <g id="text_3">
      <!-- 2 -->
      <g transform="translate(172.31875 310.059475)scale(0.1 -0.1)">
       <defs>
        <path d="M 19.1875 8.296875 
L 53.609375 8.296875 
L 53.609375 0 
L 7.328125 0 
L 7.328125 8.296875 
Q 12.9375 14.109375 22.625 23.890625 
Q 32.328125 33.6875 34.8125 36.53125 
Q 39.546875 41.84375 41.421875 45.53125 
Q 43.3125 49.21875 43.3125 52.78125 
Q 43.3125 58.59375 39.234375 62.25 
Q 35.15625 65.921875 28.609375 65.921875 
Q 23.96875 65.921875 18.8125 64.3125 
Q 13.671875 62.703125 7.8125 59.421875 
L 7.8125 69.390625 
Q 13.765625 71.78125 18.9375 73 
Q 24.125 74.21875 28.421875 74.21875 
Q 39.75 74.21875 46.484375 68.546875 
Q 53.21875 62.890625 53.21875 53.421875 
Q 53.21875 48.921875 51.53125 44.890625 
Q 49.859375 40.875 45.40625 35.40625 
Q 44.1875 33.984375 37.640625 27.21875 
Q 31.109375 20.453125 19.1875 8.296875 
z
" id="DejaVuSans-50"/>
       </defs>
       <use xlink:href="#DejaVuSans-50"/>
      </g>
     </g>
    </g>
    <g id="xtick_3">
     <g id="line2d_3"/>
     <g id="text_4">
      <!-- 3 -->
      <g transform="translate(282.11875 310.059475)scale(0.1 -0.1)">
       <defs>
        <path d="M 40.578125 39.3125 
Q 47.65625 37.796875 51.625 33 
Q 55.609375 28.21875 55.609375 21.1875 
Q 55.609375 10.40625 48.1875 4.484375 
Q 40.765625 -1.421875 27.09375 -1.421875 
Q 22.515625 -1.421875 17.65625 -0.515625 
Q 12.796875 0.390625 7.625 2.203125 
L 7.625 11.71875 
Q 11.71875 9.328125 16.59375 8.109375 
Q 21.484375 6.890625 26.8125 6.890625 
Q 36.078125 6.890625 40.9375 10.546875 
Q 45.796875 14.203125 45.796875 21.1875 
Q 45.796875 27.640625 41.28125 31.265625 
Q 36.765625 34.90625 28.71875 34.90625 
L 20.21875 34.90625 
L 20.21875 43.015625 
L 29.109375 43.015625 
Q 36.375 43.015625 40.234375 45.921875 
Q 44.09375 48.828125 44.09375 54.296875 
Q 44.09375 59.90625 40.109375 62.90625 
Q 36.140625 65.921875 28.71875 65.921875 
Q 24.65625 65.921875 20.015625 65.03125 
Q 15.375 64.15625 9.8125 62.3125 
L 9.8125 71.09375 
Q 15.4375 72.65625 20.34375 73.4375 
Q 25.25 74.21875 29.59375 74.21875 
Q 40.828125 74.21875 47.359375 69.109375 
Q 53.90625 64.015625 53.90625 55.328125 
Q 53.90625 49.265625 50.4375 45.09375 
Q 46.96875 40.921875 40.578125 39.3125 
z
" id="DejaVuSans-51"/>
       </defs>
       <use xlink:href="#DejaVuSans-51"/>
      </g>
     </g>
    </g>
    <g id="xtick_4">
     <g id="line2d_4"/>
     <g id="text_5">
      <!-- 4 -->
      <g transform="translate(391.91875 310.059475)scale(0.1 -0.1)">
       <defs>
        <path d="M 37.796875 64.3125 
L 12.890625 25.390625 
L 37.796875 25.390625 
z
M 35.203125 72.90625 
L 47.609375 72.90625 
L 47.609375 25.390625 
L 58.015625 25.390625 
L 58.015625 17.1875 
L 47.609375 17.1875 
L 47.609375 0 
L 37.796875 0 
L 37.796875 17.1875 
L 4.890625 17.1875 
L 4.890625 26.703125 
z
" id="DejaVuSans-52"/>
       </defs>
       <use xlink:href="#DejaVuSans-52"/>
      </g>
     </g>
    </g>
    <g id="text_6">
     <!-- Flood Depth  -->
     <g transform="translate(198.434375 323.7376)scale(0.1 -0.1)">
      <defs>
       <path d="M 9.8125 72.90625 
L 51.703125 72.90625 
L 51.703125 64.59375 
L 19.671875 64.59375 
L 19.671875 43.109375 
L 48.578125 43.109375 
L 48.578125 34.8125 
L 19.671875 34.8125 
L 19.671875 0 
L 9.8125 0 
z
" id="DejaVuSans-70"/>
       <path d="M 9.421875 75.984375 
L 18.40625 75.984375 
L 18.40625 0 
L 9.421875 0 
z
" id="DejaVuSans-108"/>
       <path d="M 30.609375 48.390625 
Q 23.390625 48.390625 19.1875 42.75 
Q 14.984375 37.109375 14.984375 27.296875 
Q 14.984375 17.484375 19.15625 11.84375 
Q 23.34375 6.203125 30.609375 6.203125 
Q 37.796875 6.203125 41.984375 11.859375 
Q 46.1875 17.53125 46.1875 27.296875 
Q 46.1875 37.015625 41.984375 42.703125 
Q 37.796875 48.390625 30.609375 48.390625 
z
M 30.609375 56 
Q 42.328125 56 49.015625 48.375 
Q 55.71875 40.765625 55.71875 27.296875 
Q 55.71875 13.875 49.015625 6.21875 
Q 42.328125 -1.421875 30.609375 -1.421875 
Q 18.84375 -1.421875 12.171875 6.21875 
Q 5.515625 13.875 5.515625 27.296875 
Q 5.515625 40.765625 12.171875 48.375 
Q 18.84375 56 30.609375 56 
z
" id="DejaVuSans-111"/>
       <path d="M 45.40625 46.390625 
L 45.40625 75.984375 
L 54.390625 75.984375 
L 54.390625 0 
L 45.40625 0 
L 45.40625 8.203125 
Q 42.578125 3.328125 38.25 0.953125 
Q 33.9375 -1.421875 27.875 -1.421875 
Q 17.96875 -1.421875 11.734375 6.484375 
Q 5.515625 14.40625 5.515625 27.296875 
Q 5.515625 40.1875 11.734375 48.09375 
Q 17.96875 56 27.875 56 
Q 33.9375 56 38.25 53.625 
Q 42.578125 51.265625 45.40625 46.390625 
z
M 14.796875 27.296875 
Q 14.796875 17.390625 18.875 11.75 
Q 22.953125 6.109375 30.078125 6.109375 
Q 37.203125 6.109375 41.296875 11.75 
Q 45.40625 17.390625 45.40625 27.296875 
Q 45.40625 37.203125 41.296875 42.84375 
Q 37.203125 48.484375 30.078125 48.484375 
Q 22.953125 48.484375 18.875 42.84375 
Q 14.796875 37.203125 14.796875 27.296875 
z
" id="DejaVuSans-100"/>
       <path id="DejaVuSans-32"/>
       <path d="M 19.671875 64.796875 
L 19.671875 8.109375 
L 31.59375 8.109375 
Q 46.6875 8.109375 53.6875 14.9375 
Q 60.6875 21.78125 60.6875 36.53125 
Q 60.6875 51.171875 53.6875 57.984375 
Q 46.6875 64.796875 31.59375 64.796875 
z
M 9.8125 72.90625 
L 30.078125 72.90625 
Q 51.265625 72.90625 61.171875 64.09375 
Q 71.09375 55.28125 71.09375 36.53125 
Q 71.09375 17.671875 61.125 8.828125 
Q 51.171875 0 30.078125 0 
L 9.8125 0 
z
" id="DejaVuSans-68"/>
       <path d="M 56.203125 29.59375 
L 56.203125 25.203125 
L 14.890625 25.203125 
Q 15.484375 15.921875 20.484375 11.0625 
Q 25.484375 6.203125 34.421875 6.203125 
Q 39.59375 6.203125 44.453125 7.46875 
Q 49.3125 8.734375 54.109375 11.28125 
L 54.109375 2.78125 
Q 49.265625 0.734375 44.1875 -0.34375 
Q 39.109375 -1.421875 33.890625 -1.421875 
Q 20.796875 -1.421875 13.15625 6.1875 
Q 5.515625 13.8125 5.515625 26.8125 
Q 5.515625 40.234375 12.765625 48.109375 
Q 20.015625 56 32.328125 56 
Q 43.359375 56 49.78125 48.890625 
Q 56.203125 41.796875 56.203125 29.59375 
z
M 47.21875 32.234375 
Q 47.125 39.59375 43.09375 43.984375 
Q 39.0625 48.390625 32.421875 48.390625 
Q 24.90625 48.390625 20.390625 44.140625 
Q 15.875 39.890625 15.1875 32.171875 
z
" id="DejaVuSans-101"/>
       <path d="M 18.109375 8.203125 
L 18.109375 -20.796875 
L 9.078125 -20.796875 
L 9.078125 54.6875 
L 18.109375 54.6875 
L 18.109375 46.390625 
Q 20.953125 51.265625 25.265625 53.625 
Q 29.59375 56 35.59375 56 
Q 45.5625 56 51.78125 48.09375 
Q 58.015625 40.1875 58.015625 27.296875 
Q 58.015625 14.40625 51.78125 6.484375 
Q 45.5625 -1.421875 35.59375 -1.421875 
Q 29.59375 -1.421875 25.265625 0.953125 
Q 20.953125 3.328125 18.109375 8.203125 
z
M 48.6875 27.296875 
Q 48.6875 37.203125 44.609375 42.84375 
Q 40.53125 48.484375 33.40625 48.484375 
Q 26.265625 48.484375 22.1875 42.84375 
Q 18.109375 37.203125 18.109375 27.296875 
Q 18.109375 17.390625 22.1875 11.75 
Q 26.265625 6.109375 33.40625 6.109375 
Q 40.53125 6.109375 44.609375 11.75 
Q 48.6875 17.390625 48.6875 27.296875 
z
" id="DejaVuSans-112"/>
       <path d="M 18.3125 70.21875 
L 18.3125 54.6875 
L 36.8125 54.6875 
L 36.8125 47.703125 
L 18.3125 47.703125 
L 18.3125 18.015625 
Q 18.3125 11.328125 20.140625 9.421875 
Q 21.96875 7.515625 27.59375 7.515625 
L 36.8125 7.515625 
L 36.8125 0 
L 27.59375 0 
Q 17.1875 0 13.234375 3.875 
Q 9.28125 7.765625 9.28125 18.015625 
L 9.28125 47.703125 
L 2.6875 47.703125 
L 2.6875 54.6875 
L 9.28125 54.6875 
L 9.28125 70.21875 
z
" id="DejaVuSans-116"/>
       <path d="M 54.890625 33.015625 
L 54.890625 0 
L 45.90625 0 
L 45.90625 32.71875 
Q 45.90625 40.484375 42.875 44.328125 
Q 39.84375 48.1875 33.796875 48.1875 
Q 26.515625 48.1875 22.3125 43.546875 
Q 18.109375 38.921875 18.109375 30.90625 
L 18.109375 0 
L 9.078125 0 
L 9.078125 75.984375 
L 18.109375 75.984375 
L 18.109375 46.1875 
Q 21.34375 51.125 25.703125 53.5625 
Q 30.078125 56 35.796875 56 
Q 45.21875 56 50.046875 50.171875 
Q 54.890625 44.34375 54.890625 33.015625 
z
" id="DejaVuSans-104"/>
      </defs>
      <use xlink:href="#DejaVuSans-70"/>
      <use x="57.519531" xlink:href="#DejaVuSans-108"/>
      <use x="85.302734" xlink:href="#DejaVuSans-111"/>
      <use x="146.484375" xlink:href="#DejaVuSans-111"/>
      <use x="207.666016" xlink:href="#DejaVuSans-100"/>
      <use x="271.142578" xlink:href="#DejaVuSans-32"/>
      <use x="302.929688" xlink:href="#DejaVuSans-68"/>
      <use x="379.931641" xlink:href="#DejaVuSans-101"/>
      <use x="441.455078" xlink:href="#DejaVuSans-112"/>
      <use x="504.931641" xlink:href="#DejaVuSans-116"/>
      <use x="544.140625" xlink:href="#DejaVuSans-104"/>
      <use x="607.519531" xlink:href="#DejaVuSans-32"/>
     </g>
     <!--  Codes: 1 = 10-30 cm, 2 = 31-70cm, 3 = 71-50cm, 4 = 150+cm -->
     <g transform="translate(69.0125 334.935412)scale(0.1 -0.1)">
      <defs>
       <path d="M 64.40625 67.28125 
L 64.40625 56.890625 
Q 59.421875 61.53125 53.78125 63.8125 
Q 48.140625 66.109375 41.796875 66.109375 
Q 29.296875 66.109375 22.65625 58.46875 
Q 16.015625 50.828125 16.015625 36.375 
Q 16.015625 21.96875 22.65625 14.328125 
Q 29.296875 6.6875 41.796875 6.6875 
Q 48.140625 6.6875 53.78125 8.984375 
Q 59.421875 11.28125 64.40625 15.921875 
L 64.40625 5.609375 
Q 59.234375 2.09375 53.4375 0.328125 
Q 47.65625 -1.421875 41.21875 -1.421875 
Q 24.65625 -1.421875 15.125 8.703125 
Q 5.609375 18.84375 5.609375 36.375 
Q 5.609375 53.953125 15.125 64.078125 
Q 24.65625 74.21875 41.21875 74.21875 
Q 47.75 74.21875 53.53125 72.484375 
Q 59.328125 70.75 64.40625 67.28125 
z
" id="DejaVuSans-67"/>
       <path d="M 44.28125 53.078125 
L 44.28125 44.578125 
Q 40.484375 46.53125 36.375 47.5 
Q 32.28125 48.484375 27.875 48.484375 
Q 21.1875 48.484375 17.84375 46.4375 
Q 14.5 44.390625 14.5 40.28125 
Q 14.5 37.15625 16.890625 35.375 
Q 19.28125 33.59375 26.515625 31.984375 
L 29.59375 31.296875 
Q 39.15625 29.25 43.1875 25.515625 
Q 47.21875 21.78125 47.21875 15.09375 
Q 47.21875 7.46875 41.1875 3.015625 
Q 35.15625 -1.421875 24.609375 -1.421875 
Q 20.21875 -1.421875 15.453125 -0.5625 
Q 10.6875 0.296875 5.421875 2 
L 5.421875 11.28125 
Q 10.40625 8.6875 15.234375 7.390625 
Q 20.0625 6.109375 24.8125 6.109375 
Q 31.15625 6.109375 34.5625 8.28125 
Q 37.984375 10.453125 37.984375 14.40625 
Q 37.984375 18.0625 35.515625 20.015625 
Q 33.0625 21.96875 24.703125 23.78125 
L 21.578125 24.515625 
Q 13.234375 26.265625 9.515625 29.90625 
Q 5.8125 33.546875 5.8125 39.890625 
Q 5.8125 47.609375 11.28125 51.796875 
Q 16.75 56 26.8125 56 
Q 31.78125 56 36.171875 55.265625 
Q 40.578125 54.546875 44.28125 53.078125 
z
" id="DejaVuSans-115"/>
       <path d="M 11.71875 12.40625 
L 22.015625 12.40625 
L 22.015625 0 
L 11.71875 0 
z
M 11.71875 51.703125 
L 22.015625 51.703125 
L 22.015625 39.3125 
L 11.71875 39.3125 
z
" id="DejaVuSans-58"/>
       <path d="M 10.59375 45.40625 
L 73.1875 45.40625 
L 73.1875 37.203125 
L 10.59375 37.203125 
z
M 10.59375 25.484375 
L 73.1875 25.484375 
L 73.1875 17.1875 
L 10.59375 17.1875 
z
" id="DejaVuSans-61"/>
       <path d="M 31.78125 66.40625 
Q 24.171875 66.40625 20.328125 58.90625 
Q 16.5 51.421875 16.5 36.375 
Q 16.5 21.390625 20.328125 13.890625 
Q 24.171875 6.390625 31.78125 6.390625 
Q 39.453125 6.390625 43.28125 13.890625 
Q 47.125 21.390625 47.125 36.375 
Q 47.125 51.421875 43.28125 58.90625 
Q 39.453125 66.40625 31.78125 66.40625 
z
M 31.78125 74.21875 
Q 44.046875 74.21875 50.515625 64.515625 
Q 56.984375 54.828125 56.984375 36.375 
Q 56.984375 17.96875 50.515625 8.265625 
Q 44.046875 -1.421875 31.78125 -1.421875 
Q 19.53125 -1.421875 13.0625 8.265625 
Q 6.59375 17.96875 6.59375 36.375 
Q 6.59375 54.828125 13.0625 64.515625 
Q 19.53125 74.21875 31.78125 74.21875 
z
" id="DejaVuSans-48"/>
       <path d="M 4.890625 31.390625 
L 31.203125 31.390625 
L 31.203125 23.390625 
L 4.890625 23.390625 
z
" id="DejaVuSans-45"/>
       <path d="M 48.78125 52.59375 
L 48.78125 44.1875 
Q 44.96875 46.296875 41.140625 47.34375 
Q 37.3125 48.390625 33.40625 48.390625 
Q 24.65625 48.390625 19.8125 42.84375 
Q 14.984375 37.3125 14.984375 27.296875 
Q 14.984375 17.28125 19.8125 11.734375 
Q 24.65625 6.203125 33.40625 6.203125 
Q 37.3125 6.203125 41.140625 7.25 
Q 44.96875 8.296875 48.78125 10.40625 
L 48.78125 2.09375 
Q 45.015625 0.34375 40.984375 -0.53125 
Q 36.96875 -1.421875 32.421875 -1.421875 
Q 20.0625 -1.421875 12.78125 6.34375 
Q 5.515625 14.109375 5.515625 27.296875 
Q 5.515625 40.671875 12.859375 48.328125 
Q 20.21875 56 33.015625 56 
Q 37.15625 56 41.109375 55.140625 
Q 45.0625 54.296875 48.78125 52.59375 
z
" id="DejaVuSans-99"/>
       <path d="M 52 44.1875 
Q 55.375 50.25 60.0625 53.125 
Q 64.75 56 71.09375 56 
Q 79.640625 56 84.28125 50.015625 
Q 88.921875 44.046875 88.921875 33.015625 
L 88.921875 0 
L 79.890625 0 
L 79.890625 32.71875 
Q 79.890625 40.578125 77.09375 44.375 
Q 74.3125 48.1875 68.609375 48.1875 
Q 61.625 48.1875 57.5625 43.546875 
Q 53.515625 38.921875 53.515625 30.90625 
L 53.515625 0 
L 44.484375 0 
L 44.484375 32.71875 
Q 44.484375 40.625 41.703125 44.40625 
Q 38.921875 48.1875 33.109375 48.1875 
Q 26.21875 48.1875 22.15625 43.53125 
Q 18.109375 38.875 18.109375 30.90625 
L 18.109375 0 
L 9.078125 0 
L 9.078125 54.6875 
L 18.109375 54.6875 
L 18.109375 46.1875 
Q 21.1875 51.21875 25.484375 53.609375 
Q 29.78125 56 35.6875 56 
Q 41.65625 56 45.828125 52.96875 
Q 50 49.953125 52 44.1875 
z
" id="DejaVuSans-109"/>
       <path d="M 11.71875 12.40625 
L 22.015625 12.40625 
L 22.015625 4 
L 14.015625 -11.625 
L 7.71875 -11.625 
L 11.71875 4 
z
" id="DejaVuSans-44"/>
       <path d="M 8.203125 72.90625 
L 55.078125 72.90625 
L 55.078125 68.703125 
L 28.609375 0 
L 18.3125 0 
L 43.21875 64.59375 
L 8.203125 64.59375 
z
" id="DejaVuSans-55"/>
       <path d="M 10.796875 72.90625 
L 49.515625 72.90625 
L 49.515625 64.59375 
L 19.828125 64.59375 
L 19.828125 46.734375 
Q 21.96875 47.46875 24.109375 47.828125 
Q 26.265625 48.1875 28.421875 48.1875 
Q 40.625 48.1875 47.75 41.5 
Q 54.890625 34.8125 54.890625 23.390625 
Q 54.890625 11.625 47.5625 5.09375 
Q 40.234375 -1.421875 26.90625 -1.421875 
Q 22.3125 -1.421875 17.546875 -0.640625 
Q 12.796875 0.140625 7.71875 1.703125 
L 7.71875 11.625 
Q 12.109375 9.234375 16.796875 8.0625 
Q 21.484375 6.890625 26.703125 6.890625 
Q 35.15625 6.890625 40.078125 11.328125 
Q 45.015625 15.765625 45.015625 23.390625 
Q 45.015625 31 40.078125 35.4375 
Q 35.15625 39.890625 26.703125 39.890625 
Q 22.75 39.890625 18.8125 39.015625 
Q 14.890625 38.140625 10.796875 36.28125 
z
" id="DejaVuSans-53"/>
       <path d="M 46 62.703125 
L 46 35.5 
L 73.1875 35.5 
L 73.1875 27.203125 
L 46 27.203125 
L 46 0 
L 37.796875 0 
L 37.796875 27.203125 
L 10.59375 27.203125 
L 10.59375 35.5 
L 37.796875 35.5 
L 37.796875 62.703125 
z
" id="DejaVuSans-43"/>
      </defs>
      <use xlink:href="#DejaVuSans-32"/>
      <use x="31.787109" xlink:href="#DejaVuSans-67"/>
      <use x="101.611328" xlink:href="#DejaVuSans-111"/>
      <use x="162.792969" xlink:href="#DejaVuSans-100"/>
      <use x="226.269531" xlink:href="#DejaVuSans-101"/>
      <use x="287.792969" xlink:href="#DejaVuSans-115"/>
      <use x="339.892578" xlink:href="#DejaVuSans-58"/>
      <use x="373.583984" xlink:href="#DejaVuSans-32"/>
      <use x="405.371094" xlink:href="#DejaVuSans-49"/>
      <use x="468.994141" xlink:href="#DejaVuSans-32"/>
      <use x="500.78125" xlink:href="#DejaVuSans-61"/>
      <use x="584.570312" xlink:href="#DejaVuSans-32"/>
      <use x="616.357422" xlink:href="#DejaVuSans-49"/>
      <use x="679.980469" xlink:href="#DejaVuSans-48"/>
      <use x="743.603516" xlink:href="#DejaVuSans-45"/>
      <use x="779.6875" xlink:href="#DejaVuSans-51"/>
      <use x="843.310547" xlink:href="#DejaVuSans-48"/>
      <use x="906.933594" xlink:href="#DejaVuSans-32"/>
      <use x="938.720703" xlink:href="#DejaVuSans-99"/>
      <use x="993.701172" xlink:href="#DejaVuSans-109"/>
      <use x="1091.113281" xlink:href="#DejaVuSans-44"/>
      <use x="1122.900391" xlink:href="#DejaVuSans-32"/>
      <use x="1154.6875" xlink:href="#DejaVuSans-50"/>
      <use x="1218.310547" xlink:href="#DejaVuSans-32"/>
      <use x="1250.097656" xlink:href="#DejaVuSans-61"/>
      <use x="1333.886719" xlink:href="#DejaVuSans-32"/>
      <use x="1365.673828" xlink:href="#DejaVuSans-51"/>
      <use x="1429.296875" xlink:href="#DejaVuSans-49"/>
      <use x="1492.919922" xlink:href="#DejaVuSans-45"/>
      <use x="1529.003906" xlink:href="#DejaVuSans-55"/>
      <use x="1592.626953" xlink:href="#DejaVuSans-48"/>
      <use x="1656.25" xlink:href="#DejaVuSans-99"/>
      <use x="1711.230469" xlink:href="#DejaVuSans-109"/>
      <use x="1808.642578" xlink:href="#DejaVuSans-44"/>
      <use x="1840.429688" xlink:href="#DejaVuSans-32"/>
      <use x="1872.216797" xlink:href="#DejaVuSans-51"/>
      <use x="1935.839844" xlink:href="#DejaVuSans-32"/>
      <use x="1967.626953" xlink:href="#DejaVuSans-61"/>
      <use x="2051.416016" xlink:href="#DejaVuSans-32"/>
      <use x="2083.203125" xlink:href="#DejaVuSans-55"/>
      <use x="2146.826172" xlink:href="#DejaVuSans-49"/>
      <use x="2210.449219" xlink:href="#DejaVuSans-45"/>
      <use x="2246.533203" xlink:href="#DejaVuSans-53"/>
      <use x="2310.15625" xlink:href="#DejaVuSans-48"/>
      <use x="2373.779297" xlink:href="#DejaVuSans-99"/>
      <use x="2428.759766" xlink:href="#DejaVuSans-109"/>
      <use x="2526.171875" xlink:href="#DejaVuSans-44"/>
      <use x="2557.958984" xlink:href="#DejaVuSans-32"/>
      <use x="2589.746094" xlink:href="#DejaVuSans-52"/>
      <use x="2653.369141" xlink:href="#DejaVuSans-32"/>
      <use x="2685.15625" xlink:href="#DejaVuSans-61"/>
      <use x="2768.945312" xlink:href="#DejaVuSans-32"/>
      <use x="2800.732422" xlink:href="#DejaVuSans-49"/>
      <use x="2864.355469" xlink:href="#DejaVuSans-53"/>
      <use x="2927.978516" xlink:href="#DejaVuSans-48"/>
      <use x="2991.601562" xlink:href="#DejaVuSans-43"/>
      <use x="3075.390625" xlink:href="#DejaVuSans-99"/>
      <use x="3130.371094" xlink:href="#DejaVuSans-109"/>
     </g>
    </g>
   </g>
   <g id="matplotlib.axis_2"/>
   <g id="patch_8">
    <path d="M 10.8 298.961037 
L 120.6 298.961037 
L 340.2 298.961037 
L 450 298.961037 
L 450 277.001037 
L 340.2 277.001037 
L 120.6 277.001037 
L 10.8 277.001037 
z
" style="fill:none;stroke:#000000;stroke-linejoin:miter;stroke-width:0.8;"/>
   </g>
  </g>
 </g>
 <defs>
  <clipPath id="p3ed88bce20">
   <rect height="203.017325" width="193.666812" x="133.566594" y="30.48"/>
  </clipPath>
  <clipPath id="p0cbda35fef">
   <rect height="21.96" width="439.2" x="10.8" y="277.001037"/>
  </clipPath>
 </defs>
</svg>
