<?xml version="1.0" encoding="utf-8" standalone="no"?>
<!DOCTYPE svg PUBLIC "-//W3C//DTD SVG 1.1//EN"
  "http://www.w3.org/Graphics/SVG/1.1/DTD/svg11.dtd">
<!-- Created with matplotlib (https://matplotlib.org/) -->
<svg height="345.6pt" version="1.1" viewBox="0 0 460.8 345.6" width="460.8pt" xmlns="http://www.w3.org/2000/svg" xmlns:xlink="http://www.w3.org/1999/xlink">
 <metadata>
  <rdf:RDF xmlns:cc="http://creativecommons.org/ns#" xmlns:dc="http://purl.org/dc/elements/1.1/" xmlns:rdf="http://www.w3.org/1999/02/22-rdf-syntax-ns#">
   <cc:Work>
    <dc:type rdf:resource="http://purl.org/dc/dcmitype/StillImage"/>
    <dc:date>2021-07-15T21:52:40.564226</dc:date>
    <dc:format>image/svg+xml</dc:format>
    <dc:creator>
     <cc:Agent>
      <dc:title>Matplotlib v3.3.4, https://matplotlib.org/</dc:title>
     </cc:Agent>
    </dc:creator>
   </cc:Work>
  </rdf:RDF>
 </metadata>
 <defs>
  <style type="text/css">*{stroke-linecap:butt;stroke-linejoin:round;}</style>
 </defs>
 <g id="figure_1">
  <g id="patch_1">
   <path d="M 0 345.6 
L 460.8 345.6 
L 460.8 0 
L 0 0 
z
" style="fill:#ffffff;"/>
  </g>
  <g id="axes_1">
   <g id="patch_2">
    <path d="M 201.493689 233.497325 
L 259.306311 233.497325 
L 259.306311 30.48 
L 201.493689 30.48 
z
" style="fill:#ffffff;"/>
   </g>
   <g id="PatchCollection_1">
    <path clip-path="url(#pc975fde5c8)" d="M 244.424201 217.595417 
L 244.349133 217.854032 
L 244.232939 218.265519 
L 244.227369 218.28275 
L 244.048635 218.835695 
L 243.934921 219.091011 
L 243.490199 218.998285 
L 243.125791 219.030404 
L 242.972179 219.130772 
L 242.813119 219.293539 
L 242.749537 219.533359 
L 242.166234 219.608972 
L 241.993943 219.622798 
L 241.531553 219.663645 
L 241.059031 219.768385 
L 241.032132 219.772006 
L 240.501732 219.843404 
L 240.056911 219.817909 
L 239.6858 219.780625 
L 239.509578 219.76292 
L 239.509427 219.762905 
L 239.516621 219.246444 
L 239.517355 219.193755 
L 239.330752 219.169999 
L 239.283248 218.013739 
L 238.892189 218.005553 
L 238.674807 218.001003 
L 238.72478 217.25135 
L 239.505371 215.92795 
L 240.908076 216.969063 
L 240.908519 216.969392 
L 240.948352 216.994719 
L 241.090944 217.085385 
L 241.120457 217.107091 
L 241.43824 217.340818 
L 241.866804 217.490128 
L 242.300357 217.503631 
L 242.409609 217.507034 
L 243.274674 217.467751 
L 244.409164 217.593747 
L 244.424201 217.595417 
" style="fill:#08306b;stroke:#000000;stroke-width:0.25;"/>
    <path clip-path="url(#pc975fde5c8)" d="M 243.811891 219.607236 
L 243.661487 220.387285 
L 243.660392 220.392964 
L 243.578391 220.977801 
L 243.571475 221.027423 
L 243.511623 221.45683 
L 243.507387 221.487474 
L 243.40149 222.177125 
L 243.086408 222.965573 
L 243.083059 223.028265 
L 243.053871 223.574575 
L 243.053404 223.583304 
L 242.812264 223.84848 
L 242.812156 223.848586 
L 242.736979 223.92291 
L 242.624232 224.034378 
L 242.623197 224.035036 
L 242.254568 224.269265 
L 241.792333 224.169478 
L 241.716521 224.153112 
L 241.325565 224.068688 
L 240.636604 224.107083 
L 239.604803 224.070849 
L 238.650607 223.641554 
L 238.261394 223.297296 
L 238.570095 222.911099 
L 238.632298 222.438379 
L 238.172207 221.557001 
L 237.89006 220.735096 
L 238.998529 220.722515 
L 238.920033 219.810728 
L 239.502806 219.763443 
L 239.509427 219.762905 
L 239.509578 219.76292 
L 239.6858 219.780625 
L 240.056911 219.817909 
L 240.501732 219.843404 
L 241.032132 219.772006 
L 241.059031 219.768385 
L 241.531553 219.663645 
L 241.993943 219.622798 
L 242.166234 219.608972 
L 242.749537 219.533359 
L 242.813119 219.293539 
L 242.972179 219.130772 
L 243.125791 219.030404 
L 243.490199 218.998285 
L 243.934921 219.091011 
L 243.92895 219.116053 
L 243.82055 219.570696 
L 243.813276 219.601393 
L 243.811891 219.607236 
" style="fill:#08306b;stroke:#000000;stroke-width:0.25;"/>
    <path clip-path="url(#pc975fde5c8)" d="M 240.486497 212.010412 
L 240.469201 212.544608 
L 240.437707 212.969868 
L 240.568089 213.409174 
L 240.811744 213.678401 
L 240.980699 213.697174 
L 240.981719 213.697287 
L 241.037568 213.663519 
L 241.216372 213.555409 
L 241.446972 213.39262 
L 242.018947 213.020414 
L 242.050788 213.005489 
L 242.360422 212.860354 
L 242.553346 212.769885 
L 242.61728 212.725265 
L 242.760908 212.625025 
L 242.82637 212.573782 
L 242.911971 212.506774 
L 243.204033 212.388394 
L 243.288915 212.353989 
L 243.291539 212.354397 
L 243.597051 212.401823 
L 244.018906 212.620676 
L 244.363629 212.795107 
L 244.452316 212.839983 
L 244.575802 212.972404 
L 244.639313 213.085386 
L 244.692965 213.18083 
L 244.725075 213.243223 
L 244.77993 213.4869 
L 244.78007 213.488182 
L 244.785734 213.53991 
L 244.794989 213.624436 
L 244.798485 213.677641 
L 244.802299 213.735685 
L 244.811832 213.879801 
L 244.7753 213.978797 
L 244.748737 214.0833 
L 244.740141 214.117118 
L 244.649457 214.240119 
L 244.552491 214.371507 
L 244.515367 214.421809 
L 244.511673 214.424622 
L 244.169674 214.685103 
L 244.051171 214.775346 
L 244.028969 214.792254 
L 243.815651 214.930769 
L 243.768095 214.956998 
L 243.558437 215.072291 
L 243.426089 215.118086 
L 243.275651 215.170141 
L 243.25433 215.187516 
L 243.052412 215.352066 
L 243.03653 215.381565 
L 242.92842 215.582364 
L 242.895787 215.642975 
L 242.959208 215.939954 
L 242.96034 215.945253 
L 243.200407 216.100633 
L 243.457361 216.110342 
L 243.76072 216.06907 
L 243.988998 216.056955 
L 243.995974 216.055114 
L 244.172889 216.008428 
L 244.212627 215.997942 
L 244.385838 216.07417 
L 244.438966 216.222703 
L 244.526309 216.437183 
L 244.561306 216.523123 
L 244.561828 216.527866 
L 244.570636 216.607983 
L 244.587695 216.763537 
L 244.572234 217.026603 
L 244.572031 217.030061 
L 244.56945 217.03993 
L 244.424201 217.595417 
L 244.409164 217.593747 
L 243.274674 217.467751 
L 242.409609 217.507034 
L 242.300357 217.503631 
L 241.866804 217.490128 
L 241.43824 217.340818 
L 241.120457 217.107091 
L 241.090944 217.085385 
L 240.948352 216.994719 
L 240.908519 216.969392 
L 240.908076 216.969063 
L 239.505371 215.92795 
L 238.678379 215.342197 
L 238.57934 215.272049 
L 238.096466 215.112868 
L 236.908662 214.721307 
L 236.907841 214.721042 
L 236.906382 214.720571 
L 236.261839 214.512389 
L 229.500914 214.083956 
L 229.559961 212.718188 
L 229.559963 212.718146 
L 229.600505 211.780382 
L 229.600781 211.780392 
L 229.824136 211.788505 
L 231.842813 211.861827 
L 235.364124 211.98972 
L 237.428575 212.064781 
L 237.500103 211.877377 
L 237.549104 211.748996 
L 237.689212 211.381725 
L 238.176688 211.36791 
L 239.40584 211.311703 
L 239.443817 211.309967 
L 240.51242 211.267157 
L 240.512923 211.267136 
L 240.499992 211.630843 
L 240.486497 212.010412 
" style="fill:#08306b;stroke:#000000;stroke-width:0.25;"/>
    <path clip-path="url(#pc975fde5c8)" d="M 222.379986 46.09691 
L 222.238766 46.348014 
L 222.15805 46.491129 
L 222.028323 46.721239 
L 221.962141 46.83952 
L 221.916174 46.921575 
L 221.848475 47.040951 
L 221.658667 47.375752 
L 221.531302 47.599407 
L 221.449093 47.736606 
L 221.387368 47.839504 
L 221.349588 47.90179 
L 221.271119 48.031578 
L 221.226835 48.104703 
L 221.185882 48.172413 
L 221.144769 48.240389 
L 221.092596 48.326548 
L 220.956828 48.552649 
L 220.915448 48.621522 
L 220.788116 48.835555 
L 220.735661 48.923637 
L 220.54854 49.237825 
L 220.421347 49.451583 
L 220.321268 49.623502 
L 220.194336 49.841248 
L 220.066588 49.776192 
L 219.705332 49.589351 
L 219.543245 49.506306 
L 219.029468 49.255699 
L 218.477209 48.991213 
L 218.316474 48.915047 
L 218.249146 48.886357 
L 217.968845 48.766748 
L 218.044356 48.576184 
L 218.047477 48.568116 
L 218.075317 48.496139 
L 218.142652 48.32232 
L 218.158982 48.286445 
L 218.250245 48.085948 
L 218.380854 47.798924 
L 218.42354 47.710396 
L 218.516673 47.517555 
L 218.555506 47.428876 
L 218.603412 47.302971 
L 218.64111 47.224736 
L 218.733033 47.023368 
L 218.761079 46.950599 
L 218.879096 46.644147 
L 218.910751 46.562043 
L 218.929906 46.513853 
L 219.017073 46.295283 
L 219.113262 46.053922 
L 219.159205 45.938733 
L 219.234587 45.705825 
L 219.271534 45.59169 
L 219.278953 45.568772 
L 219.329913 45.475185 
L 219.375751 45.390654 
L 219.427465 45.27796 
L 219.478901 45.165815 
L 219.564194 45.012129 
L 219.697446 44.636989 
L 219.969377 44.029159 
L 220.244293 43.313828 
L 220.316437 43.142225 
L 220.53304 42.577923 
L 220.702066 42.123992 
L 220.794083 41.89554 
L 221.16292 41.078796 
L 221.307858 40.947312 
L 221.562367 40.564615 
L 221.895444 40.143693 
L 222.090113 39.956013 
L 222.348288 39.70806 
L 222.475211 40.013704 
L 222.641425 40.498209 
L 222.748943 40.764467 
L 222.776504 40.832752 
L 222.911716 41.128801 
L 222.985006 41.424637 
L 223.046992 41.846367 
L 223.072406 42.018856 
L 223.131841 42.34214 
L 223.211514 42.782354 
L 223.254953 43.035193 
L 223.276268 43.159274 
L 223.350498 43.581597 
L 223.418633 43.775679 
L 223.484871 44.120984 
L 223.488843 44.166367 
L 223.343515 44.411271 
L 223.249399 44.569737 
L 223.010191 44.904368 
L 222.866222 45.154088 
L 222.705661 45.427123 
L 222.59837 45.615515 
L 222.578296 45.650779 
L 222.504927 45.778246 
L 222.476797 45.835067 
L 222.379986 46.09691 
" style="fill:#c6dbef;stroke:#000000;stroke-width:0.25;"/>
    <path clip-path="url(#pc975fde5c8)" d="M 224.479075 51.911336 
L 224.271539 51.840231 
L 224.158837 51.801623 
L 223.834607 51.652026 
L 223.693099 51.586923 
L 223.441704 51.465074 
L 223.20544 51.344652 
L 223.06807 51.276813 
L 222.872997 51.182654 
L 222.668305 51.084338 
L 222.235578 50.873878 
L 221.816615 50.66209 
L 221.515829 50.497453 
L 221.282283 50.386664 
L 221.085834 50.292501 
L 220.706704 50.101474 
L 220.194336 49.841248 
L 220.321268 49.623502 
L 220.421347 49.451583 
L 220.54854 49.237825 
L 220.735661 48.923637 
L 220.788116 48.835555 
L 220.915448 48.621522 
L 220.956828 48.552649 
L 221.092596 48.326548 
L 221.144769 48.240389 
L 221.185882 48.172413 
L 221.226835 48.104703 
L 221.271119 48.031578 
L 221.349588 47.90179 
L 221.387368 47.839504 
L 221.449093 47.736606 
L 221.531302 47.599407 
L 221.658667 47.375752 
L 221.848475 47.040951 
L 221.916174 46.921575 
L 221.962141 46.83952 
L 222.028323 46.721239 
L 222.15805 46.491129 
L 222.238766 46.348014 
L 222.379986 46.09691 
L 223.00765 46.042702 
L 223.449253 45.994179 
L 223.763413 45.951816 
L 223.769872 46.074196 
L 223.814406 46.328689 
L 223.876104 46.793588 
L 223.935457 47.140244 
L 224.014475 47.77018 
L 224.051859 47.982992 
L 224.148089 48.529535 
L 224.230613 48.980208 
L 224.287206 49.28891 
L 224.336249 49.832129 
L 224.34806 49.99866 
L 224.374298 50.371186 
L 224.379272 50.445031 
L 224.418795 51.035374 
L 224.429702 51.184716 
L 224.449023 51.447921 
L 224.479075 51.911336 
" style="fill:#c6dbef;stroke:#000000;stroke-width:0.25;"/>
    <path clip-path="url(#pc975fde5c8)" d="M 208.270956 53.468318 
L 208.569065 53.610944 
L 208.855015 53.7681 
L 208.913798 53.800472 
L 209.341284 54.054625 
L 209.670721 54.250563 
L 210.043964 54.472498 
L 210.26512 54.584615 
L 210.297531 54.603011 
L 210.585248 54.766636 
L 210.807593 54.893055 
L 211.12852 55.082503 
L 211.356616 55.217191 
L 211.67411 55.404703 
L 211.899051 55.536219 
L 211.91253 55.544213 
L 212.085811 55.646981 
L 212.266243 55.756897 
L 212.439018 55.852764 
L 212.565917 55.924551 
L 212.702683 56.007646 
L 212.702131 56.008194 
L 212.701303 56.009016 
L 211.990473 57.125394 
L 211.552188 57.813767 
L 211.018999 58.651119 
L 210.87493 58.851759 
L 210.707909 59.08449 
L 210.521784 58.949533 
L 210.517881 58.946648 
L 210.279668 58.770529 
L 210.22449 58.730333 
L 210.119837 58.63195 
L 209.720514 58.397667 
L 209.720083 58.397413 
L 209.446979 58.226552 
L 209.108516 58.014909 
L 208.688175 57.804499 
L 208.234867 57.577479 
L 207.71143 57.33647 
L 207.551261 56.572907 
L 207.29036 55.329193 
L 207.154127 54.527217 
L 207.016585 54.107432 
L 206.910781 53.661634 
L 206.654897 52.43856 
L 207.316601 52.889009 
L 207.631086 53.07156 
L 207.795821 53.184857 
L 208.270956 53.468318 
" style="fill:#c6dbef;stroke:#000000;stroke-width:0.25;"/>
    <path clip-path="url(#pc975fde5c8)" d="M 214.830416 56.692729 
L 214.658266 57.1362 
L 214.186933 56.868969 
L 213.992192 56.758591 
L 213.798567 56.643817 
L 213.54614 56.502171 
L 213.295911 56.361632 
L 213.107794 56.245503 
L 213.039402 56.206361 
L 212.885315 56.118257 
L 212.702683 56.007646 
L 212.565917 55.924551 
L 212.439018 55.852764 
L 212.266243 55.756897 
L 212.268587 55.752556 
L 213.200773 54.024114 
L 213.27551 53.885538 
L 213.402605 53.860128 
L 213.548426 53.83107 
L 213.723188 53.909483 
L 213.970427 54.039288 
L 214.325142 54.247002 
L 214.609865 54.400857 
L 214.650794 54.422995 
L 215.526681 54.892783 
L 215.52997 54.894547 
L 215.480714 55.019765 
L 215.460743 55.070533 
L 215.406564 55.208267 
L 215.364631 55.318107 
L 215.280208 55.539436 
L 215.109315 55.977687 
L 215.034488 56.169628 
L 215.001309 56.254752 
L 214.830416 56.692729 
" style="fill:#c6dbef;stroke:#000000;stroke-width:0.25;"/>
    <path clip-path="url(#pc975fde5c8)" d="M 210.268415 52.27857 
L 210.511715 52.413133 
L 210.587587 52.237006 
L 211.127799 52.523029 
L 211.3133 52.170671 
L 211.314919 52.167596 
L 211.351538 52.187556 
L 211.537065 52.288685 
L 211.560357 52.301381 
L 211.875958 52.479262 
L 212.142805 52.629756 
L 212.26339 52.817418 
L 212.465766 52.908574 
L 212.38596 53.06819 
L 212.323354 53.187583 
L 212.161524 53.470925 
L 212.450783 53.626308 
L 212.682355 53.750697 
L 212.908158 53.871904 
L 213.200773 54.024114 
L 213.203477 54.025521 
L 212.268587 55.752556 
L 212.266243 55.756897 
L 212.085811 55.646981 
L 211.91253 55.544213 
L 211.899051 55.536219 
L 211.67411 55.404703 
L 211.356616 55.217191 
L 211.12852 55.082503 
L 210.807593 54.893055 
L 210.585248 54.766636 
L 210.297531 54.603011 
L 210.26512 54.584615 
L 210.043964 54.472498 
L 209.670721 54.250563 
L 209.341284 54.054625 
L 208.913798 53.800472 
L 208.855015 53.7681 
L 208.569065 53.610944 
L 208.270956 53.468318 
L 209.177849 51.834034 
L 209.345378 51.533526 
L 210.347213 52.111075 
L 210.268343 52.278531 
L 210.268415 52.27857 
" style="fill:#c6dbef;stroke:#000000;stroke-width:0.25;"/>
    <path clip-path="url(#pc975fde5c8)" d="M 213.86905 51.582301 
L 214.142846 51.712884 
L 214.034336 51.936193 
L 214.322124 52.085868 
L 214.577175 52.218516 
L 214.607996 52.179027 
L 214.714968 52.243323 
L 214.674129 52.314948 
L 214.685469 52.320469 
L 215.548512 52.740702 
L 215.560874 52.707199 
L 215.735736 52.796337 
L 216.214999 52.999392 
L 216.153878 53.166771 
L 216.020502 53.538885 
L 215.949661 53.73194 
L 215.934381 53.773682 
L 215.869418 53.93816 
L 215.819977 54.070522 
L 215.803991 54.11776 
L 215.730174 54.335964 
L 215.694057 54.435101 
L 215.670441 54.500048 
L 215.632552 54.594367 
L 215.590762 54.716654 
L 215.52997 54.894547 
L 215.526681 54.892783 
L 214.650794 54.422995 
L 214.609865 54.400857 
L 214.325142 54.247002 
L 213.970427 54.039288 
L 213.723188 53.909483 
L 213.548426 53.83107 
L 213.402605 53.860128 
L 213.27551 53.885538 
L 213.203477 54.025521 
L 213.200773 54.024114 
L 212.908158 53.871904 
L 212.682355 53.750697 
L 212.450783 53.626308 
L 212.161524 53.470925 
L 212.323354 53.187583 
L 212.38596 53.06819 
L 212.465766 52.908574 
L 212.577458 52.960787 
L 212.823511 53.07574 
L 212.893606 52.899043 
L 212.902932 52.87897 
L 213.184722 52.272443 
L 213.281067 52.065178 
L 213.384621 51.842265 
L 213.491566 51.874527 
L 213.524327 51.80043 
L 213.585035 51.663128 
L 213.641415 51.674044 
L 213.666664 51.574183 
L 213.69664 51.500046 
L 213.86905 51.582301 
" style="fill:#c6dbef;stroke:#000000;stroke-width:0.25;"/>
    <path clip-path="url(#pc975fde5c8)" d="M 212.489688 48.941245 
L 212.879422 49.130242 
L 212.832729 49.303995 
L 212.797911 49.385659 
L 212.748388 49.501815 
L 212.181959 49.396763 
L 211.39221 49.248465 
L 211.311753 49.236366 
L 210.992652 49.236097 
L 210.554118 49.233495 
L 210.548858 49.162263 
L 209.989597 49.133951 
L 209.693802 49.11864 
L 209.508227 49.143714 
L 209.341055 49.179161 
L 208.900585 49.34043 
L 208.881937 49.269895 
L 208.819893 49.035223 
L 208.783116 48.764536 
L 208.76553 48.636069 
L 208.76711 48.576408 
L 208.774554 48.291025 
L 208.783739 47.939107 
L 208.795122 47.508145 
L 208.829196 47.50139 
L 209.4087 47.386513 
L 209.520648 47.364349 
L 209.783761 47.319744 
L 209.862859 47.29577 
L 209.9098 47.281543 
L 209.757067 46.193964 
L 209.907586 46.18178 
L 209.959126 46.177608 
L 210.308737 46.149384 
L 210.45739 46.137382 
L 210.714648 46.116666 
L 211.01535 46.09245 
L 211.032183 46.091095 
L 211.569401 46.047704 
L 211.928371 46.018688 
L 212.029263 46.01051 
L 212.552717 45.968309 
L 212.536174 47.262081 
L 212.532048 47.582671 
L 212.527321 47.958114 
L 212.518139 48.268513 
L 212.519606 48.563002 
L 212.496324 48.857357 
L 212.489688 48.941245 
" style="fill:#c6dbef;stroke:#000000;stroke-width:0.25;"/>
    <path clip-path="url(#pc975fde5c8)" d="M 210.554118 49.233495 
L 210.992652 49.236097 
L 211.311753 49.236366 
L 211.39221 49.248465 
L 212.181959 49.396763 
L 212.748388 49.501815 
L 212.797224 49.385261 
L 212.797911 49.385659 
L 213.001572 49.503645 
L 213.094339 49.417076 
L 213.191987 49.311138 
L 213.292572 49.352315 
L 213.663702 49.50894 
L 214.117746 49.72373 
L 214.103302 49.802457 
L 213.919401 50.141815 
L 213.752185 50.511064 
L 213.732094 50.631428 
L 213.864227 50.701997 
L 213.647171 51.279633 
L 213.56843 51.449563 
L 213.324104 51.432915 
L 213.200571 51.382586 
L 213.146581 51.356967 
L 212.82449 51.185112 
L 212.452954 50.986691 
L 212.073348 50.773807 
L 211.72335 50.594295 
L 211.376787 50.416445 
L 211.315216 50.474801 
L 211.061145 50.410552 
L 210.960644 50.385186 
L 210.496985 50.246117 
L 210.325837 50.196863 
L 210.008916 50.122638 
L 209.733071 50.067801 
L 209.371857 49.989163 
L 209.096378 49.988495 
L 209.059578 49.995628 
L 209.005774 50.006057 
L 209.006162 49.812486 
L 208.988651 49.683872 
L 208.98294 49.641931 
L 208.915771 49.406335 
L 208.900585 49.34043 
L 209.341055 49.179161 
L 209.508227 49.143714 
L 209.693802 49.11864 
L 209.989597 49.133951 
L 210.548858 49.162263 
L 210.554118 49.233495 
" style="fill:#c6dbef;stroke:#000000;stroke-width:0.25;"/>
    <path clip-path="url(#pc975fde5c8)" d="M 208.900585 49.34043 
L 208.915771 49.406335 
L 208.98294 49.641931 
L 208.988651 49.683872 
L 209.006162 49.812486 
L 209.005774 50.006057 
L 208.994896 50.611208 
L 208.962151 50.931425 
L 209.521476 51.221911 
L 209.345378 51.533526 
L 209.177849 51.834034 
L 208.270956 53.468318 
L 207.795821 53.184857 
L 207.631086 53.07156 
L 207.316601 52.889009 
L 206.654897 52.43856 
L 206.413358 51.446502 
L 206.269668 50.812227 
L 206.199744 50.456465 
L 206.179716 50.358877 
L 206.153185 50.229601 
L 206.070394 49.934423 
L 206.039841 49.815123 
L 205.940988 49.428329 
L 205.830648 48.980591 
L 205.660857 48.413456 
L 205.558004 48.069816 
L 206.236917 47.91541 
L 208.795122 47.508145 
L 208.783739 47.939107 
L 208.774554 48.291025 
L 208.76711 48.576408 
L 208.76553 48.636069 
L 208.783116 48.764536 
L 208.819893 49.035223 
L 208.881937 49.269895 
L 208.900585 49.34043 
" style="fill:#c6dbef;stroke:#000000;stroke-width:0.25;"/>
    <path clip-path="url(#pc975fde5c8)" d="M 213.582342 45.86749 
L 213.485455 45.876977 
L 212.552717 45.968309 
L 212.029263 46.01051 
L 211.928371 46.018688 
L 211.569401 46.047704 
L 211.032183 46.091095 
L 211.01535 46.09245 
L 210.714648 46.116666 
L 210.45739 46.137382 
L 210.308737 46.149384 
L 209.959126 46.177608 
L 209.907586 46.18178 
L 209.757067 46.193964 
L 209.679441 45.997926 
L 209.207324 45.233158 
L 209.678122 45.217584 
L 209.61393 44.754881 
L 209.606141 44.698899 
L 209.552558 44.312809 
L 209.535904 44.193282 
L 209.502331 43.951339 
L 209.465545 43.723133 
L 209.422831 43.4582 
L 209.382137 43.20606 
L 209.346295 42.983769 
L 209.321987 42.848955 
L 209.232586 42.353996 
L 209.163578 41.971702 
L 209.130277 41.770592 
L 208.97294 40.820891 
L 209.594462 40.711932 
L 210.057694 40.63076 
L 210.173162 40.610527 
L 211.099525 40.44817 
L 213.464727 40.033653 
L 213.577229 41.095525 
L 213.586028 41.177906 
L 213.548268 41.75657 
L 213.702875 42.417006 
L 213.486222 42.844028 
L 213.475392 42.865375 
L 213.177945 43.090374 
L 213.201799 43.317161 
L 213.266544 43.818636 
L 213.26849 43.933439 
L 213.348118 44.388222 
L 213.506265 45.380411 
L 213.582342 45.86749 
" style="fill:#c6dbef;stroke:#000000;stroke-width:0.25;"/>
    <path clip-path="url(#pc975fde5c8)" d="M 209.757067 46.193964 
L 209.9098 47.281543 
L 209.862859 47.29577 
L 209.783761 47.319744 
L 209.520648 47.364349 
L 209.4087 47.386513 
L 208.829196 47.50139 
L 208.795122 47.508145 
L 206.236917 47.91541 
L 205.558004 48.069816 
L 205.514587 47.889569 
L 204.627262 43.877896 
L 204.282791 42.320171 
L 204.121535 41.589602 
L 208.97294 40.820891 
L 209.130277 41.770592 
L 209.163578 41.971702 
L 209.232586 42.353996 
L 209.321987 42.848955 
L 209.346295 42.983769 
L 209.382137 43.20606 
L 209.422831 43.4582 
L 209.465545 43.723133 
L 209.502331 43.951339 
L 209.535904 44.193282 
L 209.552558 44.312809 
L 209.606141 44.698899 
L 209.61393 44.754881 
L 209.678122 45.217584 
L 209.207324 45.233158 
L 209.679441 45.997926 
L 209.757067 46.193964 
" style="fill:#c6dbef;stroke:#000000;stroke-width:0.25;"/>
    <path clip-path="url(#pc975fde5c8)" d="M 214.658266 57.1362 
L 214.509882 57.471143 
L 214.02045 58.868327 
L 213.816034 59.45178 
L 213.648027 59.931423 
L 213.474322 60.427268 
L 213.226411 61.134992 
L 213.186405 61.244564 
L 213.139733 61.372123 
L 213.038332 61.649623 
L 212.938919 62.22945 
L 212.912986 62.889267 
L 212.820112 63.488363 
L 212.585475 62.093505 
L 212.318522 61.293827 
L 212.222475 61.093876 
L 212.132712 60.906869 
L 212.075958 60.804939 
L 211.904327 60.496394 
L 211.467761 59.801994 
L 211.336278 59.622819 
L 211.083726 59.437729 
L 210.707909 59.08449 
L 210.87493 58.851759 
L 211.018999 58.651119 
L 211.552188 57.813767 
L 211.990473 57.125394 
L 212.701303 56.009016 
L 212.702131 56.008194 
L 212.702683 56.007646 
L 212.885315 56.118257 
L 213.039402 56.206361 
L 213.107794 56.245503 
L 213.295911 56.361632 
L 213.54614 56.502171 
L 213.798567 56.643817 
L 213.992192 56.758591 
L 214.186933 56.868969 
L 214.658266 57.1362 
" style="fill:#c6dbef;stroke:#000000;stroke-width:0.25;"/>
    <path clip-path="url(#pc975fde5c8)" d="M 215.85352 45.862218 
L 215.457965 46.086055 
L 215.478099 46.162235 
L 215.635916 46.759358 
L 215.855979 47.591596 
L 215.863775 47.645515 
L 215.915805 48.002043 
L 215.864119 48.387499 
L 215.260571 48.231999 
L 215.052062 48.24352 
L 215.051734 48.379212 
L 215.053886 48.863167 
L 215.053909 48.868238 
L 214.326772 48.919498 
L 214.324757 48.930879 
L 214.291551 49.118449 
L 214.229019 49.336554 
L 214.117746 49.72373 
L 213.663702 49.50894 
L 213.292572 49.352315 
L 213.191987 49.311138 
L 213.094339 49.417076 
L 213.001572 49.503645 
L 212.797911 49.385659 
L 212.797224 49.385261 
L 212.832729 49.303995 
L 212.879422 49.130242 
L 212.489688 48.941245 
L 212.496324 48.857357 
L 212.519606 48.563002 
L 212.518139 48.268513 
L 212.527321 47.958114 
L 212.532048 47.582671 
L 212.536174 47.262081 
L 212.552717 45.968309 
L 213.485455 45.876977 
L 213.582342 45.86749 
L 213.625684 45.868326 
L 214.470144 45.793408 
L 215.773487 45.726388 
L 216.226394 45.631431 
L 216.094832 45.71286 
L 215.85352 45.862218 
" style="fill:#c6dbef;stroke:#000000;stroke-width:0.25;"/>
    <path clip-path="url(#pc975fde5c8)" d="M 253.286825 182.185713 
L 253.495269 182.954014 
L 254.136832 182.908578 
L 254.148307 183.009394 
L 254.193007 183.40193 
L 254.200037 183.668398 
L 254.209987 184.0461 
L 254.285797 184.395026 
L 254.315986 184.533853 
L 254.381068 184.920687 
L 254.645583 185.828876 
L 254.718473 185.992052 
L 255.135617 186.924018 
L 255.555764 187.862043 
L 255.842286 188.654551 
L 255.918274 188.836299 
L 256.027546 189.098317 
L 256.039294 189.148914 
L 256.199645 189.839551 
L 256.281615 190.196473 
L 255.984126 190.246493 
L 255.681823 190.297322 
L 255.130903 190.389545 
L 254.917668 190.308224 
L 254.890644 190.09173 
L 254.859671 189.86381 
L 254.478006 189.791516 
L 253.703499 189.92818 
L 253.296605 190.1447 
L 253.288741 190.148884 
L 253.071888 189.457263 
L 253.006634 189.235821 
L 252.957553 189.069157 
L 252.731889 188.302987 
L 252.442894 187.858443 
L 251.958801 187.105521 
L 251.458204 186.622833 
L 251.35773 186.451107 
L 251.18374 186.153732 
L 251.176761 186.106652 
L 251.133619 185.815621 
L 251.257052 185.5756 
L 251.624484 185.549403 
L 252.112357 185.662078 
L 252.339849 185.595569 
L 252.546321 185.535204 
L 252.747874 185.341654 
L 252.774825 184.995979 
L 252.714707 184.650279 
L 252.705518 184.597444 
L 252.624708 184.456238 
L 252.40047 184.064603 
L 252.075714 183.497412 
L 251.977474 183.362976 
L 251.376063 182.53998 
L 251.171068 182.267451 
L 252.125075 182.105844 
L 252.31351 182.120259 
L 253.005353 182.173575 
L 253.283949 182.175111 
L 253.286825 182.185713 
" style="fill:#08306b;stroke:#000000;stroke-width:0.25;"/>
    <path clip-path="url(#pc975fde5c8)" d="M 251.832522 189.8601 
L 251.737851 190.603137 
L 251.621203 190.597912 
L 251.484891 190.589456 
L 251.378995 191.0447 
L 251.37409 191.147795 
L 251.59091 191.14925 
L 251.555493 191.554425 
L 251.48325 191.558432 
L 251.443644 191.942419 
L 251.553852 191.979105 
L 251.660074 192.014952 
L 251.726165 192.155281 
L 251.765432 192.255921 
L 251.765945 192.256873 
L 251.892272 192.491191 
L 252.003032 192.488696 
L 252.543058 192.441664 
L 252.679682 192.439536 
L 253.017264 192.411173 
L 253.626917 192.360952 
L 253.912339 192.337353 
L 254.289708 192.301433 
L 255.134038 192.222073 
L 255.461056 192.185287 
L 256.223606 192.110418 
L 256.616574 192.071836 
L 256.678465 193.279711 
L 256.678389 193.3011 
L 256.676607 193.803242 
L 256.161004 193.67479 
L 256.007924 193.700782 
L 255.701413 193.9682 
L 255.200567 193.905169 
L 255.173071 193.901709 
L 255.097713 193.891818 
L 255.011388 193.870614 
L 254.850717 193.825912 
L 254.426985 193.706587 
L 254.317664 193.497225 
L 254.198249 193.418436 
L 253.540674 193.403732 
L 253.108098 193.567179 
L 252.669173 193.580748 
L 252.573629 193.560062 
L 252.230678 193.473332 
L 251.746353 193.48674 
L 251.352454 193.606331 
L 250.640288 193.467702 
L 250.354369 193.39836 
L 249.713754 193.256823 
L 249.421661 193.143879 
L 248.959478 192.96544 
L 248.630635 192.973901 
L 248.216105 192.702969 
L 247.852017 192.173747 
L 247.852185 192.173162 
L 248.242732 190.814046 
L 248.317345 190.554225 
L 248.317394 190.554055 
L 248.547274 189.935506 
L 248.77702 189.315995 
L 249.137561 188.903445 
L 249.614817 188.555238 
L 249.801794 188.436564 
L 250.116918 188.340066 
L 250.416198 188.249698 
L 250.529571 188.208579 
L 250.969852 188.201475 
L 251.262119 188.3444 
L 251.266108 188.35312 
L 251.312629 188.454832 
L 251.419148 188.679169 
L 251.563379 189.28763 
L 251.56406 189.289557 
L 251.749481 189.610687 
L 251.754528 189.626778 
L 251.764718 189.659272 
L 251.832522 189.8601 
" style="fill:#08306b;stroke:#000000;stroke-width:0.25;"/>
    <path clip-path="url(#pc975fde5c8)" d="M 248.216105 192.702969 
L 248.630635 192.973901 
L 248.959478 192.96544 
L 249.421661 193.143879 
L 249.713754 193.256823 
L 250.354369 193.39836 
L 250.640288 193.467702 
L 251.352454 193.606331 
L 251.746353 193.48674 
L 252.230678 193.473332 
L 252.573629 193.560062 
L 252.669173 193.580748 
L 253.108098 193.567179 
L 253.540674 193.403732 
L 254.198249 193.418436 
L 254.317664 193.497225 
L 254.426985 193.706587 
L 254.350135 194.15616 
L 254.29634 194.467094 
L 254.259286 194.674013 
L 254.210696 194.939257 
L 254.126569 195.398492 
L 254.028209 195.979286 
L 253.974526 196.29627 
L 253.893525 196.791473 
L 253.827411 197.123673 
L 253.696458 197.777217 
L 253.628238 198.144162 
L 253.627874 198.146117 
L 253.055675 197.94597 
L 252.524261 197.760089 
L 252.453727 197.735417 
L 251.647731 197.481517 
L 251.05482 197.312237 
L 250.53218 197.190363 
L 249.836443 197.075164 
L 249.739219 197.062996 
L 249.133731 196.987437 
L 248.372281 196.936211 
L 248.026692 196.895394 
L 247.713322 196.891015 
L 247.382601 196.886394 
L 247.381208 196.886374 
L 247.38052 196.862854 
L 247.339597 195.464653 
L 247.397063 194.776066 
L 247.447081 194.248308 
L 247.559151 193.563627 
L 247.698642 192.71145 
L 247.69935 192.708967 
L 247.852017 192.173747 
L 248.216105 192.702969 
" style="fill:#08306b;stroke:#000000;stroke-width:0.25;"/>
    <path clip-path="url(#pc975fde5c8)" d="M 217.968845 48.766748 
L 217.910554 48.871583 
L 217.870263 48.943897 
L 217.798541 49.072745 
L 217.772232 49.120773 
L 217.749478 49.175 
L 217.710761 49.269729 
L 217.627638 49.473052 
L 217.406578 50.013829 
L 217.17969 50.56861 
L 217.166721 50.600348 
L 217.063679 50.852521 
L 216.862367 50.811686 
L 216.578821 50.715575 
L 216.103453 50.54003 
L 216.007534 50.502718 
L 215.872266 50.463759 
L 215.664694 50.40283 
L 215.225743 50.241296 
L 214.931372 50.131539 
L 214.838278 50.11321 
L 214.788646 50.092225 
L 214.103302 49.802457 
L 214.117746 49.72373 
L 214.229019 49.336554 
L 214.291551 49.118449 
L 214.324757 48.930879 
L 214.326772 48.919498 
L 215.053909 48.868238 
L 215.053886 48.863167 
L 215.051734 48.379212 
L 215.052062 48.24352 
L 215.260571 48.231999 
L 215.864119 48.387499 
L 215.915805 48.002043 
L 215.863775 47.645515 
L 215.855979 47.591596 
L 215.635916 46.759358 
L 215.478099 46.162235 
L 215.457965 46.086055 
L 215.85352 45.862218 
L 216.024901 45.852935 
L 216.667463 45.818131 
L 216.903655 45.800106 
L 217.474726 45.756286 
L 217.743288 45.728474 
L 218.281927 45.672444 
L 219.041836 45.593427 
L 219.278953 45.568772 
L 219.271534 45.59169 
L 219.234587 45.705825 
L 219.159205 45.938733 
L 219.113262 46.053922 
L 219.017073 46.295283 
L 218.929906 46.513853 
L 218.910751 46.562043 
L 218.879096 46.644147 
L 218.761079 46.950599 
L 218.733033 47.023368 
L 218.64111 47.224736 
L 218.603412 47.302971 
L 218.555506 47.428876 
L 218.516673 47.517555 
L 218.42354 47.710396 
L 218.380854 47.798924 
L 218.250245 48.085948 
L 218.158982 48.286445 
L 218.142652 48.32232 
L 218.075317 48.496139 
L 218.047477 48.568116 
L 218.044356 48.576184 
L 217.968845 48.766748 
" style="fill:#c6dbef;stroke:#000000;stroke-width:0.25;"/>
   </g>
   <g id="patch_3">
    <path d="M 201.493689 233.497325 
L 201.493689 30.48 
" style="fill:none;stroke:#000000;stroke-linecap:square;stroke-linejoin:miter;stroke-width:0.8;"/>
   </g>
   <g id="patch_4">
    <path d="M 259.306311 233.497325 
L 259.306311 30.48 
" style="fill:none;stroke:#000000;stroke-linecap:square;stroke-linejoin:miter;stroke-width:0.8;"/>
   </g>
   <g id="patch_5">
    <path d="M 201.493689 233.497325 
L 259.306311 233.497325 
" style="fill:none;stroke:#000000;stroke-linecap:square;stroke-linejoin:miter;stroke-width:0.8;"/>
   </g>
   <g id="patch_6">
    <path d="M 201.493689 30.48 
L 259.306311 30.48 
" style="fill:none;stroke:#000000;stroke-linecap:square;stroke-linejoin:miter;stroke-width:0.8;"/>
   </g>
   <g id="text_1">
    <!-- Jakarta Floods in JUN 2013 -->
    <g transform="translate(95.446406 24.48)scale(0.18 -0.18)">
     <defs>
      <path d="M 9.1875 72.90625 
L 27.984375 72.90625 
L 27.984375 7.078125 
Q 27.984375 -6.546875 20.578125 -13.28125 
Q 13.1875 -20.015625 -1.8125 -20.015625 
L -5.609375 -20.015625 
L -5.609375 -5.8125 
L -2.6875 -5.8125 
Q 3.171875 -5.8125 6.171875 -2.53125 
Q 9.1875 0.734375 9.1875 7.078125 
z
" id="DejaVuSans-Bold-74"/>
      <path d="M 32.90625 24.609375 
Q 27.4375 24.609375 24.671875 22.75 
Q 21.921875 20.90625 21.921875 17.28125 
Q 21.921875 13.96875 24.140625 12.078125 
Q 26.375 10.203125 30.328125 10.203125 
Q 35.25 10.203125 38.625 13.734375 
Q 42 17.28125 42 22.609375 
L 42 24.609375 
z
M 59.625 31.203125 
L 59.625 0 
L 42 0 
L 42 8.109375 
Q 38.484375 3.125 34.078125 0.84375 
Q 29.6875 -1.421875 23.390625 -1.421875 
Q 14.890625 -1.421875 9.59375 3.53125 
Q 4.296875 8.5 4.296875 16.40625 
Q 4.296875 26.03125 10.90625 30.515625 
Q 17.53125 35.015625 31.6875 35.015625 
L 42 35.015625 
L 42 36.375 
Q 42 40.53125 38.71875 42.453125 
Q 35.453125 44.390625 28.515625 44.390625 
Q 22.90625 44.390625 18.0625 43.265625 
Q 13.234375 42.140625 9.078125 39.890625 
L 9.078125 53.21875 
Q 14.703125 54.59375 20.359375 55.296875 
Q 26.03125 56 31.6875 56 
Q 46.484375 56 53.046875 50.171875 
Q 59.625 44.34375 59.625 31.203125 
z
" id="DejaVuSans-Bold-97"/>
      <path d="M 8.40625 75.984375 
L 25.875 75.984375 
L 25.875 34.625 
L 46 54.6875 
L 66.3125 54.6875 
L 39.59375 29.59375 
L 68.40625 0 
L 47.21875 0 
L 25.875 22.796875 
L 25.875 0 
L 8.40625 0 
z
" id="DejaVuSans-Bold-107"/>
      <path d="M 49.03125 39.796875 
Q 46.734375 40.875 44.453125 41.375 
Q 42.1875 41.890625 39.890625 41.890625 
Q 33.15625 41.890625 29.515625 37.5625 
Q 25.875 33.25 25.875 25.203125 
L 25.875 0 
L 8.40625 0 
L 8.40625 54.6875 
L 25.875 54.6875 
L 25.875 45.703125 
Q 29.25 51.078125 33.609375 53.53125 
Q 37.984375 56 44.09375 56 
Q 44.96875 56 45.984375 55.921875 
Q 47.015625 55.859375 48.96875 55.609375 
z
" id="DejaVuSans-Bold-114"/>
      <path d="M 27.484375 70.21875 
L 27.484375 54.6875 
L 45.515625 54.6875 
L 45.515625 42.1875 
L 27.484375 42.1875 
L 27.484375 19 
Q 27.484375 15.1875 29 13.84375 
Q 30.515625 12.5 35.015625 12.5 
L 44 12.5 
L 44 0 
L 29 0 
Q 18.65625 0 14.328125 4.3125 
Q 10.015625 8.640625 10.015625 19 
L 10.015625 42.1875 
L 1.3125 42.1875 
L 1.3125 54.6875 
L 10.015625 54.6875 
L 10.015625 70.21875 
z
" id="DejaVuSans-Bold-116"/>
      <path id="DejaVuSans-Bold-32"/>
      <path d="M 9.1875 72.90625 
L 59.90625 72.90625 
L 59.90625 58.6875 
L 27.984375 58.6875 
L 27.984375 45.125 
L 58.015625 45.125 
L 58.015625 30.90625 
L 27.984375 30.90625 
L 27.984375 0 
L 9.1875 0 
z
" id="DejaVuSans-Bold-70"/>
      <path d="M 8.40625 75.984375 
L 25.875 75.984375 
L 25.875 0 
L 8.40625 0 
z
" id="DejaVuSans-Bold-108"/>
      <path d="M 34.421875 43.5 
Q 28.609375 43.5 25.5625 39.328125 
Q 22.515625 35.15625 22.515625 27.296875 
Q 22.515625 19.4375 25.5625 15.25 
Q 28.609375 11.078125 34.421875 11.078125 
Q 40.140625 11.078125 43.15625 15.25 
Q 46.1875 19.4375 46.1875 27.296875 
Q 46.1875 35.15625 43.15625 39.328125 
Q 40.140625 43.5 34.421875 43.5 
z
M 34.421875 56 
Q 48.53125 56 56.46875 48.375 
Q 64.40625 40.765625 64.40625 27.296875 
Q 64.40625 13.8125 56.46875 6.1875 
Q 48.53125 -1.421875 34.421875 -1.421875 
Q 20.265625 -1.421875 12.28125 6.1875 
Q 4.296875 13.8125 4.296875 27.296875 
Q 4.296875 40.765625 12.28125 48.375 
Q 20.265625 56 34.421875 56 
z
" id="DejaVuSans-Bold-111"/>
      <path d="M 45.609375 46.6875 
L 45.609375 75.984375 
L 63.1875 75.984375 
L 63.1875 0 
L 45.609375 0 
L 45.609375 7.90625 
Q 42 3.078125 37.640625 0.828125 
Q 33.296875 -1.421875 27.59375 -1.421875 
Q 17.484375 -1.421875 10.984375 6.609375 
Q 4.5 14.65625 4.5 27.296875 
Q 4.5 39.9375 10.984375 47.96875 
Q 17.484375 56 27.59375 56 
Q 33.25 56 37.625 53.734375 
Q 42 51.46875 45.609375 46.6875 
z
M 34.078125 11.28125 
Q 39.703125 11.28125 42.65625 15.375 
Q 45.609375 19.484375 45.609375 27.296875 
Q 45.609375 35.109375 42.65625 39.203125 
Q 39.703125 43.3125 34.078125 43.3125 
Q 28.515625 43.3125 25.5625 39.203125 
Q 22.609375 35.109375 22.609375 27.296875 
Q 22.609375 19.484375 25.5625 15.375 
Q 28.515625 11.28125 34.078125 11.28125 
z
" id="DejaVuSans-Bold-100"/>
      <path d="M 51.125 52.984375 
L 51.125 39.703125 
Q 45.515625 42.046875 40.28125 43.21875 
Q 35.0625 44.390625 30.421875 44.390625 
Q 25.4375 44.390625 23.015625 43.140625 
Q 20.609375 41.890625 20.609375 39.3125 
Q 20.609375 37.203125 22.4375 36.078125 
Q 24.265625 34.96875 29 34.421875 
L 32.078125 33.984375 
Q 45.515625 32.28125 50.140625 28.375 
Q 54.78125 24.46875 54.78125 16.109375 
Q 54.78125 7.375 48.328125 2.96875 
Q 41.890625 -1.421875 29.109375 -1.421875 
Q 23.6875 -1.421875 17.890625 -0.5625 
Q 12.109375 0.296875 6 2 
L 6 15.28125 
Q 11.234375 12.75 16.71875 11.46875 
Q 22.21875 10.203125 27.875 10.203125 
Q 33.015625 10.203125 35.59375 11.609375 
Q 38.1875 13.03125 38.1875 15.828125 
Q 38.1875 18.171875 36.40625 19.3125 
Q 34.625 20.453125 29.296875 21.09375 
L 26.21875 21.484375 
Q 14.546875 22.953125 9.859375 26.90625 
Q 5.171875 30.859375 5.171875 38.921875 
Q 5.171875 47.609375 11.125 51.796875 
Q 17.09375 56 29.390625 56 
Q 34.234375 56 39.546875 55.265625 
Q 44.875 54.546875 51.125 52.984375 
z
" id="DejaVuSans-Bold-115"/>
      <path d="M 8.40625 54.6875 
L 25.875 54.6875 
L 25.875 0 
L 8.40625 0 
z
M 8.40625 75.984375 
L 25.875 75.984375 
L 25.875 61.71875 
L 8.40625 61.71875 
z
" id="DejaVuSans-Bold-105"/>
      <path d="M 63.375 33.296875 
L 63.375 0 
L 45.796875 0 
L 45.796875 5.421875 
L 45.796875 25.484375 
Q 45.796875 32.5625 45.484375 35.25 
Q 45.171875 37.9375 44.390625 39.203125 
Q 43.359375 40.921875 41.59375 41.875 
Q 39.84375 42.828125 37.59375 42.828125 
Q 32.125 42.828125 29 38.59375 
Q 25.875 34.375 25.875 26.90625 
L 25.875 0 
L 8.40625 0 
L 8.40625 54.6875 
L 25.875 54.6875 
L 25.875 46.6875 
Q 29.828125 51.46875 34.265625 53.734375 
Q 38.71875 56 44.09375 56 
Q 53.5625 56 58.46875 50.1875 
Q 63.375 44.390625 63.375 33.296875 
z
" id="DejaVuSans-Bold-110"/>
      <path d="M 9.1875 72.90625 
L 27.984375 72.90625 
L 27.984375 29.203125 
Q 27.984375 20.171875 30.9375 16.28125 
Q 33.890625 12.40625 40.578125 12.40625 
Q 47.3125 12.40625 50.265625 16.28125 
Q 53.21875 20.171875 53.21875 29.203125 
L 53.21875 72.90625 
L 72.015625 72.90625 
L 72.015625 29.203125 
Q 72.015625 13.71875 64.25 6.140625 
Q 56.5 -1.421875 40.578125 -1.421875 
Q 24.703125 -1.421875 16.9375 6.140625 
Q 9.1875 13.71875 9.1875 29.203125 
z
" id="DejaVuSans-Bold-85"/>
      <path d="M 9.1875 72.90625 
L 30.171875 72.90625 
L 56.6875 22.90625 
L 56.6875 72.90625 
L 74.515625 72.90625 
L 74.515625 0 
L 53.515625 0 
L 27 50 
L 27 0 
L 9.1875 0 
z
" id="DejaVuSans-Bold-78"/>
      <path d="M 28.8125 13.8125 
L 60.890625 13.8125 
L 60.890625 0 
L 7.90625 0 
L 7.90625 13.8125 
L 34.515625 37.3125 
Q 38.09375 40.53125 39.796875 43.609375 
Q 41.5 46.6875 41.5 50 
Q 41.5 55.125 38.0625 58.25 
Q 34.625 61.375 28.90625 61.375 
Q 24.515625 61.375 19.28125 59.5 
Q 14.0625 57.625 8.109375 53.90625 
L 8.109375 69.921875 
Q 14.453125 72.015625 20.65625 73.109375 
Q 26.859375 74.21875 32.8125 74.21875 
Q 45.90625 74.21875 53.15625 68.453125 
Q 60.40625 62.703125 60.40625 52.390625 
Q 60.40625 46.4375 57.328125 41.28125 
Q 54.25 36.140625 44.390625 27.484375 
z
" id="DejaVuSans-Bold-50"/>
      <path d="M 46 36.53125 
Q 46 50.203125 43.4375 55.78125 
Q 40.875 61.375 34.8125 61.375 
Q 28.765625 61.375 26.171875 55.78125 
Q 23.578125 50.203125 23.578125 36.53125 
Q 23.578125 22.703125 26.171875 17.03125 
Q 28.765625 11.375 34.8125 11.375 
Q 40.828125 11.375 43.40625 17.03125 
Q 46 22.703125 46 36.53125 
z
M 64.796875 36.375 
Q 64.796875 18.265625 56.984375 8.421875 
Q 49.171875 -1.421875 34.8125 -1.421875 
Q 20.40625 -1.421875 12.59375 8.421875 
Q 4.78125 18.265625 4.78125 36.375 
Q 4.78125 54.546875 12.59375 64.375 
Q 20.40625 74.21875 34.8125 74.21875 
Q 49.171875 74.21875 56.984375 64.375 
Q 64.796875 54.546875 64.796875 36.375 
z
" id="DejaVuSans-Bold-48"/>
      <path d="M 11.71875 12.984375 
L 28.328125 12.984375 
L 28.328125 60.109375 
L 11.28125 56.59375 
L 11.28125 69.390625 
L 28.21875 72.90625 
L 46.09375 72.90625 
L 46.09375 12.984375 
L 62.703125 12.984375 
L 62.703125 0 
L 11.71875 0 
z
" id="DejaVuSans-Bold-49"/>
      <path d="M 46.578125 39.3125 
Q 53.953125 37.40625 57.78125 32.6875 
Q 61.625 27.984375 61.625 20.703125 
Q 61.625 9.859375 53.3125 4.21875 
Q 45.015625 -1.421875 29.109375 -1.421875 
Q 23.484375 -1.421875 17.84375 -0.515625 
Q 12.203125 0.390625 6.6875 2.203125 
L 6.6875 16.703125 
Q 11.96875 14.0625 17.15625 12.71875 
Q 22.359375 11.375 27.390625 11.375 
Q 34.859375 11.375 38.84375 13.953125 
Q 42.828125 16.546875 42.828125 21.390625 
Q 42.828125 26.375 38.75 28.9375 
Q 34.671875 31.5 26.703125 31.5 
L 19.1875 31.5 
L 19.1875 43.609375 
L 27.09375 43.609375 
Q 34.1875 43.609375 37.640625 45.828125 
Q 41.109375 48.046875 41.109375 52.59375 
Q 41.109375 56.78125 37.734375 59.078125 
Q 34.375 61.375 28.21875 61.375 
Q 23.6875 61.375 19.046875 60.34375 
Q 14.40625 59.328125 9.8125 57.328125 
L 9.8125 71.09375 
Q 15.375 72.65625 20.84375 73.4375 
Q 26.3125 74.21875 31.59375 74.21875 
Q 45.796875 74.21875 52.84375 69.546875 
Q 59.90625 64.890625 59.90625 55.515625 
Q 59.90625 49.125 56.53125 45.046875 
Q 53.171875 40.96875 46.578125 39.3125 
z
" id="DejaVuSans-Bold-51"/>
     </defs>
     <use xlink:href="#DejaVuSans-Bold-74"/>
     <use x="37.207031" xlink:href="#DejaVuSans-Bold-97"/>
     <use x="104.6875" xlink:href="#DejaVuSans-Bold-107"/>
     <use x="171.191406" xlink:href="#DejaVuSans-Bold-97"/>
     <use x="238.671875" xlink:href="#DejaVuSans-Bold-114"/>
     <use x="287.988281" xlink:href="#DejaVuSans-Bold-116"/>
     <use x="335.791016" xlink:href="#DejaVuSans-Bold-97"/>
     <use x="403.271484" xlink:href="#DejaVuSans-Bold-32"/>
     <use x="438.085938" xlink:href="#DejaVuSans-Bold-70"/>
     <use x="506.396484" xlink:href="#DejaVuSans-Bold-108"/>
     <use x="540.673828" xlink:href="#DejaVuSans-Bold-111"/>
     <use x="609.375" xlink:href="#DejaVuSans-Bold-111"/>
     <use x="678.076172" xlink:href="#DejaVuSans-Bold-100"/>
     <use x="749.658203" xlink:href="#DejaVuSans-Bold-115"/>
     <use x="809.179688" xlink:href="#DejaVuSans-Bold-32"/>
     <use x="843.994141" xlink:href="#DejaVuSans-Bold-105"/>
     <use x="878.271484" xlink:href="#DejaVuSans-Bold-110"/>
     <use x="949.462891" xlink:href="#DejaVuSans-Bold-32"/>
     <use x="984.277344" xlink:href="#DejaVuSans-Bold-74"/>
     <use x="1021.484375" xlink:href="#DejaVuSans-Bold-85"/>
     <use x="1102.685547" xlink:href="#DejaVuSans-Bold-78"/>
     <use x="1186.376953" xlink:href="#DejaVuSans-Bold-32"/>
     <use x="1221.191406" xlink:href="#DejaVuSans-Bold-50"/>
     <use x="1290.771484" xlink:href="#DejaVuSans-Bold-48"/>
     <use x="1360.351562" xlink:href="#DejaVuSans-Bold-49"/>
     <use x="1429.931641" xlink:href="#DejaVuSans-Bold-51"/>
    </g>
   </g>
  </g>
  <g id="axes_2">
   <g id="patch_7">
    <path clip-path="url(#pfea6df3b71)" d="M 10.8 298.961037 
L 120.6 298.961037 
L 340.2 298.961037 
L 450 298.961037 
L 450 277.001037 
L 340.2 277.001037 
L 120.6 277.001037 
L 10.8 277.001037 
z
" style="fill:#ffffff;stroke:#ffffff;stroke-linejoin:miter;stroke-width:0.01;"/>
   </g>
   <g id="QuadMesh_1">
    <path clip-path="url(#pfea6df3b71)" d="M 10.8 298.961037 
L 120.6 298.961037 
L 120.6 277.001037 
L 10.8 277.001037 
L 10.8 298.961037 
" style="fill:#f7fbff;"/>
    <path clip-path="url(#pfea6df3b71)" d="M 120.6 298.961037 
L 230.4 298.961037 
L 230.4 277.001037 
L 120.6 277.001037 
L 120.6 298.961037 
" style="fill:#c6dbef;"/>
    <path clip-path="url(#pfea6df3b71)" d="M 230.4 298.961037 
L 340.2 298.961037 
L 340.2 277.001037 
L 230.4 277.001037 
L 230.4 298.961037 
" style="fill:#6baed6;"/>
    <path clip-path="url(#pfea6df3b71)" d="M 340.2 298.961037 
L 450 298.961037 
L 450 277.001037 
L 340.2 277.001037 
L 340.2 298.961037 
" style="fill:#08306b;"/>
   </g>
   <g id="matplotlib.axis_1">
    <g id="xtick_1">
     <g id="line2d_1"/>
     <g id="text_2">
      <!-- 1 -->
      <g transform="translate(62.51875 310.059475)scale(0.1 -0.1)">
       <defs>
        <path d="M 12.40625 8.296875 
L 28.515625 8.296875 
L 28.515625 63.921875 
L 10.984375 60.40625 
L 10.984375 69.390625 
L 28.421875 72.90625 
L 38.28125 72.90625 
L 38.28125 8.296875 
L 54.390625 8.296875 
L 54.390625 0 
L 12.40625 0 
z
" id="DejaVuSans-49"/>
       </defs>
       <use xlink:href="#DejaVuSans-49"/>
      </g>
     </g>
    </g>
    <g id="xtick_2">
     <g id="line2d_2"/>
     <g id="text_3">
      <!-- 2 -->
      <g transform="translate(172.31875 310.059475)scale(0.1 -0.1)">
       <defs>
        <path d="M 19.1875 8.296875 
L 53.609375 8.296875 
L 53.609375 0 
L 7.328125 0 
L 7.328125 8.296875 
Q 12.9375 14.109375 22.625 23.890625 
Q 32.328125 33.6875 34.8125 36.53125 
Q 39.546875 41.84375 41.421875 45.53125 
Q 43.3125 49.21875 43.3125 52.78125 
Q 43.3125 58.59375 39.234375 62.25 
Q 35.15625 65.921875 28.609375 65.921875 
Q 23.96875 65.921875 18.8125 64.3125 
Q 13.671875 62.703125 7.8125 59.421875 
L 7.8125 69.390625 
Q 13.765625 71.78125 18.9375 73 
Q 24.125 74.21875 28.421875 74.21875 
Q 39.75 74.21875 46.484375 68.546875 
Q 53.21875 62.890625 53.21875 53.421875 
Q 53.21875 48.921875 51.53125 44.890625 
Q 49.859375 40.875 45.40625 35.40625 
Q 44.1875 33.984375 37.640625 27.21875 
Q 31.109375 20.453125 19.1875 8.296875 
z
" id="DejaVuSans-50"/>
       </defs>
       <use xlink:href="#DejaVuSans-50"/>
      </g>
     </g>
    </g>
    <g id="xtick_3">
     <g id="line2d_3"/>
     <g id="text_4">
      <!-- 3 -->
      <g transform="translate(282.11875 310.059475)scale(0.1 -0.1)">
       <defs>
        <path d="M 40.578125 39.3125 
Q 47.65625 37.796875 51.625 33 
Q 55.609375 28.21875 55.609375 21.1875 
Q 55.609375 10.40625 48.1875 4.484375 
Q 40.765625 -1.421875 27.09375 -1.421875 
Q 22.515625 -1.421875 17.65625 -0.515625 
Q 12.796875 0.390625 7.625 2.203125 
L 7.625 11.71875 
Q 11.71875 9.328125 16.59375 8.109375 
Q 21.484375 6.890625 26.8125 6.890625 
Q 36.078125 6.890625 40.9375 10.546875 
Q 45.796875 14.203125 45.796875 21.1875 
Q 45.796875 27.640625 41.28125 31.265625 
Q 36.765625 34.90625 28.71875 34.90625 
L 20.21875 34.90625 
L 20.21875 43.015625 
L 29.109375 43.015625 
Q 36.375 43.015625 40.234375 45.921875 
Q 44.09375 48.828125 44.09375 54.296875 
Q 44.09375 59.90625 40.109375 62.90625 
Q 36.140625 65.921875 28.71875 65.921875 
Q 24.65625 65.921875 20.015625 65.03125 
Q 15.375 64.15625 9.8125 62.3125 
L 9.8125 71.09375 
Q 15.4375 72.65625 20.34375 73.4375 
Q 25.25 74.21875 29.59375 74.21875 
Q 40.828125 74.21875 47.359375 69.109375 
Q 53.90625 64.015625 53.90625 55.328125 
Q 53.90625 49.265625 50.4375 45.09375 
Q 46.96875 40.921875 40.578125 39.3125 
z
" id="DejaVuSans-51"/>
       </defs>
       <use xlink:href="#DejaVuSans-51"/>
      </g>
     </g>
    </g>
    <g id="xtick_4">
     <g id="line2d_4"/>
     <g id="text_5">
      <!-- 4 -->
      <g transform="translate(391.91875 310.059475)scale(0.1 -0.1)">
       <defs>
        <path d="M 37.796875 64.3125 
L 12.890625 25.390625 
L 37.796875 25.390625 
z
M 35.203125 72.90625 
L 47.609375 72.90625 
L 47.609375 25.390625 
L 58.015625 25.390625 
L 58.015625 17.1875 
L 47.609375 17.1875 
L 47.609375 0 
L 37.796875 0 
L 37.796875 17.1875 
L 4.890625 17.1875 
L 4.890625 26.703125 
z
" id="DejaVuSans-52"/>
       </defs>
       <use xlink:href="#DejaVuSans-52"/>
      </g>
     </g>
    </g>
    <g id="text_6">
     <!-- Flood Depth  -->
     <g transform="translate(198.434375 323.7376)scale(0.1 -0.1)">
      <defs>
       <path d="M 9.8125 72.90625 
L 51.703125 72.90625 
L 51.703125 64.59375 
L 19.671875 64.59375 
L 19.671875 43.109375 
L 48.578125 43.109375 
L 48.578125 34.8125 
L 19.671875 34.8125 
L 19.671875 0 
L 9.8125 0 
z
" id="DejaVuSans-70"/>
       <path d="M 9.421875 75.984375 
L 18.40625 75.984375 
L 18.40625 0 
L 9.421875 0 
z
" id="DejaVuSans-108"/>
       <path d="M 30.609375 48.390625 
Q 23.390625 48.390625 19.1875 42.75 
Q 14.984375 37.109375 14.984375 27.296875 
Q 14.984375 17.484375 19.15625 11.84375 
Q 23.34375 6.203125 30.609375 6.203125 
Q 37.796875 6.203125 41.984375 11.859375 
Q 46.1875 17.53125 46.1875 27.296875 
Q 46.1875 37.015625 41.984375 42.703125 
Q 37.796875 48.390625 30.609375 48.390625 
z
M 30.609375 56 
Q 42.328125 56 49.015625 48.375 
Q 55.71875 40.765625 55.71875 27.296875 
Q 55.71875 13.875 49.015625 6.21875 
Q 42.328125 -1.421875 30.609375 -1.421875 
Q 18.84375 -1.421875 12.171875 6.21875 
Q 5.515625 13.875 5.515625 27.296875 
Q 5.515625 40.765625 12.171875 48.375 
Q 18.84375 56 30.609375 56 
z
" id="DejaVuSans-111"/>
       <path d="M 45.40625 46.390625 
L 45.40625 75.984375 
L 54.390625 75.984375 
L 54.390625 0 
L 45.40625 0 
L 45.40625 8.203125 
Q 42.578125 3.328125 38.25 0.953125 
Q 33.9375 -1.421875 27.875 -1.421875 
Q 17.96875 -1.421875 11.734375 6.484375 
Q 5.515625 14.40625 5.515625 27.296875 
Q 5.515625 40.1875 11.734375 48.09375 
Q 17.96875 56 27.875 56 
Q 33.9375 56 38.25 53.625 
Q 42.578125 51.265625 45.40625 46.390625 
z
M 14.796875 27.296875 
Q 14.796875 17.390625 18.875 11.75 
Q 22.953125 6.109375 30.078125 6.109375 
Q 37.203125 6.109375 41.296875 11.75 
Q 45.40625 17.390625 45.40625 27.296875 
Q 45.40625 37.203125 41.296875 42.84375 
Q 37.203125 48.484375 30.078125 48.484375 
Q 22.953125 48.484375 18.875 42.84375 
Q 14.796875 37.203125 14.796875 27.296875 
z
" id="DejaVuSans-100"/>
       <path id="DejaVuSans-32"/>
       <path d="M 19.671875 64.796875 
L 19.671875 8.109375 
L 31.59375 8.109375 
Q 46.6875 8.109375 53.6875 14.9375 
Q 60.6875 21.78125 60.6875 36.53125 
Q 60.6875 51.171875 53.6875 57.984375 
Q 46.6875 64.796875 31.59375 64.796875 
z
M 9.8125 72.90625 
L 30.078125 72.90625 
Q 51.265625 72.90625 61.171875 64.09375 
Q 71.09375 55.28125 71.09375 36.53125 
Q 71.09375 17.671875 61.125 8.828125 
Q 51.171875 0 30.078125 0 
L 9.8125 0 
z
" id="DejaVuSans-68"/>
       <path d="M 56.203125 29.59375 
L 56.203125 25.203125 
L 14.890625 25.203125 
Q 15.484375 15.921875 20.484375 11.0625 
Q 25.484375 6.203125 34.421875 6.203125 
Q 39.59375 6.203125 44.453125 7.46875 
Q 49.3125 8.734375 54.109375 11.28125 
L 54.109375 2.78125 
Q 49.265625 0.734375 44.1875 -0.34375 
Q 39.109375 -1.421875 33.890625 -1.421875 
Q 20.796875 -1.421875 13.15625 6.1875 
Q 5.515625 13.8125 5.515625 26.8125 
Q 5.515625 40.234375 12.765625 48.109375 
Q 20.015625 56 32.328125 56 
Q 43.359375 56 49.78125 48.890625 
Q 56.203125 41.796875 56.203125 29.59375 
z
M 47.21875 32.234375 
Q 47.125 39.59375 43.09375 43.984375 
Q 39.0625 48.390625 32.421875 48.390625 
Q 24.90625 48.390625 20.390625 44.140625 
Q 15.875 39.890625 15.1875 32.171875 
z
" id="DejaVuSans-101"/>
       <path d="M 18.109375 8.203125 
L 18.109375 -20.796875 
L 9.078125 -20.796875 
L 9.078125 54.6875 
L 18.109375 54.6875 
L 18.109375 46.390625 
Q 20.953125 51.265625 25.265625 53.625 
Q 29.59375 56 35.59375 56 
Q 45.5625 56 51.78125 48.09375 
Q 58.015625 40.1875 58.015625 27.296875 
Q 58.015625 14.40625 51.78125 6.484375 
Q 45.5625 -1.421875 35.59375 -1.421875 
Q 29.59375 -1.421875 25.265625 0.953125 
Q 20.953125 3.328125 18.109375 8.203125 
z
M 48.6875 27.296875 
Q 48.6875 37.203125 44.609375 42.84375 
Q 40.53125 48.484375 33.40625 48.484375 
Q 26.265625 48.484375 22.1875 42.84375 
Q 18.109375 37.203125 18.109375 27.296875 
Q 18.109375 17.390625 22.1875 11.75 
Q 26.265625 6.109375 33.40625 6.109375 
Q 40.53125 6.109375 44.609375 11.75 
Q 48.6875 17.390625 48.6875 27.296875 
z
" id="DejaVuSans-112"/>
       <path d="M 18.3125 70.21875 
L 18.3125 54.6875 
L 36.8125 54.6875 
L 36.8125 47.703125 
L 18.3125 47.703125 
L 18.3125 18.015625 
Q 18.3125 11.328125 20.140625 9.421875 
Q 21.96875 7.515625 27.59375 7.515625 
L 36.8125 7.515625 
L 36.8125 0 
L 27.59375 0 
Q 17.1875 0 13.234375 3.875 
Q 9.28125 7.765625 9.28125 18.015625 
L 9.28125 47.703125 
L 2.6875 47.703125 
L 2.6875 54.6875 
L 9.28125 54.6875 
L 9.28125 70.21875 
z
" id="DejaVuSans-116"/>
       <path d="M 54.890625 33.015625 
L 54.890625 0 
L 45.90625 0 
L 45.90625 32.71875 
Q 45.90625 40.484375 42.875 44.328125 
Q 39.84375 48.1875 33.796875 48.1875 
Q 26.515625 48.1875 22.3125 43.546875 
Q 18.109375 38.921875 18.109375 30.90625 
L 18.109375 0 
L 9.078125 0 
L 9.078125 75.984375 
L 18.109375 75.984375 
L 18.109375 46.1875 
Q 21.34375 51.125 25.703125 53.5625 
Q 30.078125 56 35.796875 56 
Q 45.21875 56 50.046875 50.171875 
Q 54.890625 44.34375 54.890625 33.015625 
z
" id="DejaVuSans-104"/>
      </defs>
      <use xlink:href="#DejaVuSans-70"/>
      <use x="57.519531" xlink:href="#DejaVuSans-108"/>
      <use x="85.302734" xlink:href="#DejaVuSans-111"/>
      <use x="146.484375" xlink:href="#DejaVuSans-111"/>
      <use x="207.666016" xlink:href="#DejaVuSans-100"/>
      <use x="271.142578" xlink:href="#DejaVuSans-32"/>
      <use x="302.929688" xlink:href="#DejaVuSans-68"/>
      <use x="379.931641" xlink:href="#DejaVuSans-101"/>
      <use x="441.455078" xlink:href="#DejaVuSans-112"/>
      <use x="504.931641" xlink:href="#DejaVuSans-116"/>
      <use x="544.140625" xlink:href="#DejaVuSans-104"/>
      <use x="607.519531" xlink:href="#DejaVuSans-32"/>
     </g>
     <!--  Codes: 1 = 10-30 cm, 2 = 31-70cm, 3 = 71-50cm, 4 = 150+cm -->
     <g transform="translate(69.0125 334.935412)scale(0.1 -0.1)">
      <defs>
       <path d="M 64.40625 67.28125 
L 64.40625 56.890625 
Q 59.421875 61.53125 53.78125 63.8125 
Q 48.140625 66.109375 41.796875 66.109375 
Q 29.296875 66.109375 22.65625 58.46875 
Q 16.015625 50.828125 16.015625 36.375 
Q 16.015625 21.96875 22.65625 14.328125 
Q 29.296875 6.6875 41.796875 6.6875 
Q 48.140625 6.6875 53.78125 8.984375 
Q 59.421875 11.28125 64.40625 15.921875 
L 64.40625 5.609375 
Q 59.234375 2.09375 53.4375 0.328125 
Q 47.65625 -1.421875 41.21875 -1.421875 
Q 24.65625 -1.421875 15.125 8.703125 
Q 5.609375 18.84375 5.609375 36.375 
Q 5.609375 53.953125 15.125 64.078125 
Q 24.65625 74.21875 41.21875 74.21875 
Q 47.75 74.21875 53.53125 72.484375 
Q 59.328125 70.75 64.40625 67.28125 
z
" id="DejaVuSans-67"/>
       <path d="M 44.28125 53.078125 
L 44.28125 44.578125 
Q 40.484375 46.53125 36.375 47.5 
Q 32.28125 48.484375 27.875 48.484375 
Q 21.1875 48.484375 17.84375 46.4375 
Q 14.5 44.390625 14.5 40.28125 
Q 14.5 37.15625 16.890625 35.375 
Q 19.28125 33.59375 26.515625 31.984375 
L 29.59375 31.296875 
Q 39.15625 29.25 43.1875 25.515625 
Q 47.21875 21.78125 47.21875 15.09375 
Q 47.21875 7.46875 41.1875 3.015625 
Q 35.15625 -1.421875 24.609375 -1.421875 
Q 20.21875 -1.421875 15.453125 -0.5625 
Q 10.6875 0.296875 5.421875 2 
L 5.421875 11.28125 
Q 10.40625 8.6875 15.234375 7.390625 
Q 20.0625 6.109375 24.8125 6.109375 
Q 31.15625 6.109375 34.5625 8.28125 
Q 37.984375 10.453125 37.984375 14.40625 
Q 37.984375 18.0625 35.515625 20.015625 
Q 33.0625 21.96875 24.703125 23.78125 
L 21.578125 24.515625 
Q 13.234375 26.265625 9.515625 29.90625 
Q 5.8125 33.546875 5.8125 39.890625 
Q 5.8125 47.609375 11.28125 51.796875 
Q 16.75 56 26.8125 56 
Q 31.78125 56 36.171875 55.265625 
Q 40.578125 54.546875 44.28125 53.078125 
z
" id="DejaVuSans-115"/>
       <path d="M 11.71875 12.40625 
L 22.015625 12.40625 
L 22.015625 0 
L 11.71875 0 
z
M 11.71875 51.703125 
L 22.015625 51.703125 
L 22.015625 39.3125 
L 11.71875 39.3125 
z
" id="DejaVuSans-58"/>
       <path d="M 10.59375 45.40625 
L 73.1875 45.40625 
L 73.1875 37.203125 
L 10.59375 37.203125 
z
M 10.59375 25.484375 
L 73.1875 25.484375 
L 73.1875 17.1875 
L 10.59375 17.1875 
z
" id="DejaVuSans-61"/>
       <path d="M 31.78125 66.40625 
Q 24.171875 66.40625 20.328125 58.90625 
Q 16.5 51.421875 16.5 36.375 
Q 16.5 21.390625 20.328125 13.890625 
Q 24.171875 6.390625 31.78125 6.390625 
Q 39.453125 6.390625 43.28125 13.890625 
Q 47.125 21.390625 47.125 36.375 
Q 47.125 51.421875 43.28125 58.90625 
Q 39.453125 66.40625 31.78125 66.40625 
z
M 31.78125 74.21875 
Q 44.046875 74.21875 50.515625 64.515625 
Q 56.984375 54.828125 56.984375 36.375 
Q 56.984375 17.96875 50.515625 8.265625 
Q 44.046875 -1.421875 31.78125 -1.421875 
Q 19.53125 -1.421875 13.0625 8.265625 
Q 6.59375 17.96875 6.59375 36.375 
Q 6.59375 54.828125 13.0625 64.515625 
Q 19.53125 74.21875 31.78125 74.21875 
z
" id="DejaVuSans-48"/>
       <path d="M 4.890625 31.390625 
L 31.203125 31.390625 
L 31.203125 23.390625 
L 4.890625 23.390625 
z
" id="DejaVuSans-45"/>
       <path d="M 48.78125 52.59375 
L 48.78125 44.1875 
Q 44.96875 46.296875 41.140625 47.34375 
Q 37.3125 48.390625 33.40625 48.390625 
Q 24.65625 48.390625 19.8125 42.84375 
Q 14.984375 37.3125 14.984375 27.296875 
Q 14.984375 17.28125 19.8125 11.734375 
Q 24.65625 6.203125 33.40625 6.203125 
Q 37.3125 6.203125 41.140625 7.25 
Q 44.96875 8.296875 48.78125 10.40625 
L 48.78125 2.09375 
Q 45.015625 0.34375 40.984375 -0.53125 
Q 36.96875 -1.421875 32.421875 -1.421875 
Q 20.0625 -1.421875 12.78125 6.34375 
Q 5.515625 14.109375 5.515625 27.296875 
Q 5.515625 40.671875 12.859375 48.328125 
Q 20.21875 56 33.015625 56 
Q 37.15625 56 41.109375 55.140625 
Q 45.0625 54.296875 48.78125 52.59375 
z
" id="DejaVuSans-99"/>
       <path d="M 52 44.1875 
Q 55.375 50.25 60.0625 53.125 
Q 64.75 56 71.09375 56 
Q 79.640625 56 84.28125 50.015625 
Q 88.921875 44.046875 88.921875 33.015625 
L 88.921875 0 
L 79.890625 0 
L 79.890625 32.71875 
Q 79.890625 40.578125 77.09375 44.375 
Q 74.3125 48.1875 68.609375 48.1875 
Q 61.625 48.1875 57.5625 43.546875 
Q 53.515625 38.921875 53.515625 30.90625 
L 53.515625 0 
L 44.484375 0 
L 44.484375 32.71875 
Q 44.484375 40.625 41.703125 44.40625 
Q 38.921875 48.1875 33.109375 48.1875 
Q 26.21875 48.1875 22.15625 43.53125 
Q 18.109375 38.875 18.109375 30.90625 
L 18.109375 0 
L 9.078125 0 
L 9.078125 54.6875 
L 18.109375 54.6875 
L 18.109375 46.1875 
Q 21.1875 51.21875 25.484375 53.609375 
Q 29.78125 56 35.6875 56 
Q 41.65625 56 45.828125 52.96875 
Q 50 49.953125 52 44.1875 
z
" id="DejaVuSans-109"/>
       <path d="M 11.71875 12.40625 
L 22.015625 12.40625 
L 22.015625 4 
L 14.015625 -11.625 
L 7.71875 -11.625 
L 11.71875 4 
z
" id="DejaVuSans-44"/>
       <path d="M 8.203125 72.90625 
L 55.078125 72.90625 
L 55.078125 68.703125 
L 28.609375 0 
L 18.3125 0 
L 43.21875 64.59375 
L 8.203125 64.59375 
z
" id="DejaVuSans-55"/>
       <path d="M 10.796875 72.90625 
L 49.515625 72.90625 
L 49.515625 64.59375 
L 19.828125 64.59375 
L 19.828125 46.734375 
Q 21.96875 47.46875 24.109375 47.828125 
Q 26.265625 48.1875 28.421875 48.1875 
Q 40.625 48.1875 47.75 41.5 
Q 54.890625 34.8125 54.890625 23.390625 
Q 54.890625 11.625 47.5625 5.09375 
Q 40.234375 -1.421875 26.90625 -1.421875 
Q 22.3125 -1.421875 17.546875 -0.640625 
Q 12.796875 0.140625 7.71875 1.703125 
L 7.71875 11.625 
Q 12.109375 9.234375 16.796875 8.0625 
Q 21.484375 6.890625 26.703125 6.890625 
Q 35.15625 6.890625 40.078125 11.328125 
Q 45.015625 15.765625 45.015625 23.390625 
Q 45.015625 31 40.078125 35.4375 
Q 35.15625 39.890625 26.703125 39.890625 
Q 22.75 39.890625 18.8125 39.015625 
Q 14.890625 38.140625 10.796875 36.28125 
z
" id="DejaVuSans-53"/>
       <path d="M 46 62.703125 
L 46 35.5 
L 73.1875 35.5 
L 73.1875 27.203125 
L 46 27.203125 
L 46 0 
L 37.796875 0 
L 37.796875 27.203125 
L 10.59375 27.203125 
L 10.59375 35.5 
L 37.796875 35.5 
L 37.796875 62.703125 
z
" id="DejaVuSans-43"/>
      </defs>
      <use xlink:href="#DejaVuSans-32"/>
      <use x="31.787109" xlink:href="#DejaVuSans-67"/>
      <use x="101.611328" xlink:href="#DejaVuSans-111"/>
      <use x="162.792969" xlink:href="#DejaVuSans-100"/>
      <use x="226.269531" xlink:href="#DejaVuSans-101"/>
      <use x="287.792969" xlink:href="#DejaVuSans-115"/>
      <use x="339.892578" xlink:href="#DejaVuSans-58"/>
      <use x="373.583984" xlink:href="#DejaVuSans-32"/>
      <use x="405.371094" xlink:href="#DejaVuSans-49"/>
      <use x="468.994141" xlink:href="#DejaVuSans-32"/>
      <use x="500.78125" xlink:href="#DejaVuSans-61"/>
      <use x="584.570312" xlink:href="#DejaVuSans-32"/>
      <use x="616.357422" xlink:href="#DejaVuSans-49"/>
      <use x="679.980469" xlink:href="#DejaVuSans-48"/>
      <use x="743.603516" xlink:href="#DejaVuSans-45"/>
      <use x="779.6875" xlink:href="#DejaVuSans-51"/>
      <use x="843.310547" xlink:href="#DejaVuSans-48"/>
      <use x="906.933594" xlink:href="#DejaVuSans-32"/>
      <use x="938.720703" xlink:href="#DejaVuSans-99"/>
      <use x="993.701172" xlink:href="#DejaVuSans-109"/>
      <use x="1091.113281" xlink:href="#DejaVuSans-44"/>
      <use x="1122.900391" xlink:href="#DejaVuSans-32"/>
      <use x="1154.6875" xlink:href="#DejaVuSans-50"/>
      <use x="1218.310547" xlink:href="#DejaVuSans-32"/>
      <use x="1250.097656" xlink:href="#DejaVuSans-61"/>
      <use x="1333.886719" xlink:href="#DejaVuSans-32"/>
      <use x="1365.673828" xlink:href="#DejaVuSans-51"/>
      <use x="1429.296875" xlink:href="#DejaVuSans-49"/>
      <use x="1492.919922" xlink:href="#DejaVuSans-45"/>
      <use x="1529.003906" xlink:href="#DejaVuSans-55"/>
      <use x="1592.626953" xlink:href="#DejaVuSans-48"/>
      <use x="1656.25" xlink:href="#DejaVuSans-99"/>
      <use x="1711.230469" xlink:href="#DejaVuSans-109"/>
      <use x="1808.642578" xlink:href="#DejaVuSans-44"/>
      <use x="1840.429688" xlink:href="#DejaVuSans-32"/>
      <use x="1872.216797" xlink:href="#DejaVuSans-51"/>
      <use x="1935.839844" xlink:href="#DejaVuSans-32"/>
      <use x="1967.626953" xlink:href="#DejaVuSans-61"/>
      <use x="2051.416016" xlink:href="#DejaVuSans-32"/>
      <use x="2083.203125" xlink:href="#DejaVuSans-55"/>
      <use x="2146.826172" xlink:href="#DejaVuSans-49"/>
      <use x="2210.449219" xlink:href="#DejaVuSans-45"/>
      <use x="2246.533203" xlink:href="#DejaVuSans-53"/>
      <use x="2310.15625" xlink:href="#DejaVuSans-48"/>
      <use x="2373.779297" xlink:href="#DejaVuSans-99"/>
      <use x="2428.759766" xlink:href="#DejaVuSans-109"/>
      <use x="2526.171875" xlink:href="#DejaVuSans-44"/>
      <use x="2557.958984" xlink:href="#DejaVuSans-32"/>
      <use x="2589.746094" xlink:href="#DejaVuSans-52"/>
      <use x="2653.369141" xlink:href="#DejaVuSans-32"/>
      <use x="2685.15625" xlink:href="#DejaVuSans-61"/>
      <use x="2768.945312" xlink:href="#DejaVuSans-32"/>
      <use x="2800.732422" xlink:href="#DejaVuSans-49"/>
      <use x="2864.355469" xlink:href="#DejaVuSans-53"/>
      <use x="2927.978516" xlink:href="#DejaVuSans-48"/>
      <use x="2991.601562" xlink:href="#DejaVuSans-43"/>
      <use x="3075.390625" xlink:href="#DejaVuSans-99"/>
      <use x="3130.371094" xlink:href="#DejaVuSans-109"/>
     </g>
    </g>
   </g>
   <g id="matplotlib.axis_2"/>
   <g id="patch_8">
    <path d="M 10.8 298.961037 
L 120.6 298.961037 
L 340.2 298.961037 
L 450 298.961037 
L 450 277.001037 
L 340.2 277.001037 
L 120.6 277.001037 
L 10.8 277.001037 
z
" style="fill:none;stroke:#000000;stroke-linejoin:miter;stroke-width:0.8;"/>
   </g>
  </g>
 </g>
 <defs>
  <clipPath id="pc975fde5c8">
   <rect height="203.017325" width="57.812622" x="201.493689" y="30.48"/>
  </clipPath>
  <clipPath id="pfea6df3b71">
   <rect height="21.96" width="439.2" x="10.8" y="277.001037"/>
  </clipPath>
 </defs>
</svg>
