<?xml version="1.0" encoding="utf-8" standalone="no"?>
<!DOCTYPE svg PUBLIC "-//W3C//DTD SVG 1.1//EN"
  "http://www.w3.org/Graphics/SVG/1.1/DTD/svg11.dtd">
<!-- Created with matplotlib (https://matplotlib.org/) -->
<svg height="345.6pt" version="1.1" viewBox="0 0 460.8 345.6" width="460.8pt" xmlns="http://www.w3.org/2000/svg" xmlns:xlink="http://www.w3.org/1999/xlink">
 <metadata>
  <rdf:RDF xmlns:cc="http://creativecommons.org/ns#" xmlns:dc="http://purl.org/dc/elements/1.1/" xmlns:rdf="http://www.w3.org/1999/02/22-rdf-syntax-ns#">
   <cc:Work>
    <dc:type rdf:resource="http://purl.org/dc/dcmitype/StillImage"/>
    <dc:date>2021-07-15T21:52:42.005010</dc:date>
    <dc:format>image/svg+xml</dc:format>
    <dc:creator>
     <cc:Agent>
      <dc:title>Matplotlib v3.3.4, https://matplotlib.org/</dc:title>
     </cc:Agent>
    </dc:creator>
   </cc:Work>
  </rdf:RDF>
 </metadata>
 <defs>
  <style type="text/css">*{stroke-linecap:butt;stroke-linejoin:round;}</style>
 </defs>
 <g id="figure_1">
  <g id="patch_1">
   <path d="M 0 345.6 
L 460.8 345.6 
L 460.8 0 
L 0 0 
z
" style="fill:#ffffff;"/>
  </g>
  <g id="axes_1">
   <g id="patch_2">
    <path d="M 156.508684 233.497325 
L 304.291316 233.497325 
L 304.291316 30.48 
L 156.508684 30.48 
z
" style="fill:#ffffff;"/>
   </g>
   <g id="PatchCollection_1">
    <path clip-path="url(#p7bc672c256)" d="M 224.433186 75.850693 
L 224.714844 77.707049 
L 224.494232 78.314455 
L 224.273504 78.880751 
L 224.076344 79.425683 
L 224.000201 79.748343 
L 223.935051 79.988149 
L 223.93449 79.990214 
L 223.923328 79.990098 
L 223.106865 79.981591 
L 222.931114 79.976939 
L 222.560182 79.967316 
L 221.661995 79.943993 
L 221.512155 79.93854 
L 221.345639 79.944324 
L 221.208291 79.962895 
L 221.111334 80.017509 
L 221.070772 80.069775 
L 221.05821 80.142056 
L 220.960665 80.145153 
L 220.80609 80.150089 
L 220.802391 80.268332 
L 220.717267 80.27845 
L 220.494677 80.304727 
L 220.484806 80.482964 
L 220.333386 80.494001 
L 220.32764 80.390065 
L 220.313439 80.269859 
L 220.123176 80.313121 
L 220.037951 80.353691 
L 219.102647 80.378588 
L 218.772707 80.377733 
L 218.7623 79.16597 
L 218.815713 78.91746 
L 218.904343 78.506278 
L 218.934664 78.364398 
L 218.953313 78.030125 
L 218.905265 77.740291 
L 218.800826 77.073426 
L 219.770823 76.967439 
L 222.050589 76.666779 
L 222.219515 76.926061 
L 222.53805 76.895998 
L 222.546643 76.895187 
L 223.174208 76.68883 
L 223.581035 75.807095 
L 224.433186 75.850693 
" style="fill:#c6dbef;stroke:#000000;stroke-width:0.25;"/>
    <path clip-path="url(#p7bc672c256)" d="M 212.465875 45.111138 
L 212.576012 45.180402 
L 214.00763 44.947149 
L 213.622329 42.691549 
L 213.859808 42.622049 
L 214.146401 44.504159 
L 214.540673 46.505899 
L 216.301981 46.206741 
L 216.415442 46.18747 
L 216.434503 46.602312 
L 216.394216 46.604509 
L 216.316113 46.608768 
L 216.315516 46.787289 
L 216.206833 46.800944 
L 216.189601 46.803109 
L 216.179415 46.625071 
L 216.169082 46.444471 
L 215.014883 46.642949 
L 214.581553 46.717466 
L 214.544899 46.723769 
L 214.747344 47.978802 
L 214.855623 48.603932 
L 214.978223 49.275802 
L 216.386935 49.054234 
L 216.387444 49.054154 
L 216.678376 50.622122 
L 216.810534 51.397434 
L 216.945456 52.181638 
L 218.35357 51.964261 
L 219.558392 51.77827 
L 219.464492 51.146715 
L 219.375529 51.167553 
L 219.276505 51.190748 
L 219.184579 50.614267 
L 219.004702 49.449392 
L 218.567388 47.107203 
L 217.747913 42.408294 
L 218.322119 42.296978 
L 218.527726 42.257119 
L 219.358631 46.916989 
L 219.562088 48.132823 
L 219.974505 49.602614 
L 221.695872 59.314896 
L 221.656492 59.620297 
L 221.575988 60.599814 
L 222.047586 61.232004 
L 222.296349 62.793495 
L 222.411958 62.782464 
L 222.433548 63.160647 
L 222.272181 63.182944 
L 222.512245 64.724232 
L 222.579034 65.068943 
L 222.231303 65.144412 
L 222.255442 65.444443 
L 222.469402 66.703203 
L 222.510073 66.958755 
L 222.975591 67.017163 
L 223.029001 67.412328 
L 223.09752 67.808559 
L 223.04511 67.947446 
L 222.979196 68.325208 
L 222.941057 68.412248 
L 222.941288 68.683651 
L 222.957596 68.894966 
L 222.975143 69.11542 
L 222.975198 69.325792 
L 223.034762 69.703468 
L 223.08973 69.899179 
L 223.175507 70.072789 
L 223.249735 70.319699 
L 223.354947 70.454167 
L 223.387346 70.601333 
L 223.415376 70.876763 
L 223.508976 71.367607 
L 223.536381 71.602051 
L 223.654182 71.996291 
L 223.67018 72.374963 
L 223.807322 72.909093 
L 223.973574 72.868797 
L 224.198593 74.348499 
L 224.305809 75.094677 
L 224.362231 75.462066 
L 224.428208 75.823428 
L 224.433186 75.850693 
L 223.581035 75.807095 
L 223.174208 76.68883 
L 222.546643 76.895187 
L 222.53805 76.895998 
L 222.219515 76.926061 
L 222.050589 76.666779 
L 219.770823 76.967439 
L 218.800826 77.073426 
L 218.905265 77.740291 
L 218.953313 78.030125 
L 218.934664 78.364398 
L 218.904343 78.506278 
L 218.815713 78.91746 
L 218.7623 79.16597 
L 218.772707 80.377733 
L 218.834781 81.195462 
L 218.836311 81.215625 
L 218.300594 81.22558 
L 217.188401 81.24625 
L 216.81373 81.253747 
L 216.384833 81.260554 
L 216.141719 81.271919 
L 216.134909 80.955198 
L 216.118677 80.645423 
L 216.197313 80.486704 
L 216.458008 80.08054 
L 216.20853 79.869332 
L 216.04934 79.735825 
L 216.293755 79.223279 
L 216.202635 79.128192 
L 216.346488 78.912087 
L 216.52173 79.030422 
L 216.661002 78.892968 
L 216.596007 78.770943 
L 216.657564 78.706312 
L 216.759426 78.779612 
L 216.992848 78.553276 
L 216.940198 78.423298 
L 217.224262 78.130519 
L 217.427521 77.809935 
L 217.361265 77.76099 
L 217.410517 77.692258 
L 217.563675 77.655469 
L 217.572773 77.517832 
L 217.471839 77.508865 
L 217.47344 77.410156 
L 217.534735 77.386 
L 217.531011 77.284609 
L 217.457834 77.178797 
L 217.441864 77.093605 
L 217.519473 77.089806 
L 217.507468 76.996507 
L 217.368434 76.798104 
L 217.353159 76.505969 
L 217.550663 76.310979 
L 217.550234 76.173945 
L 217.494982 75.305757 
L 217.506368 74.448324 
L 217.478235 73.673232 
L 217.302299 72.246864 
L 217.171748 71.071622 
L 217.003927 69.951322 
L 216.935615 69.568289 
L 216.826898 69.077017 
L 216.678425 68.32195 
L 216.366724 67.576106 
L 216.234916 67.229276 
L 215.944004 66.911856 
L 215.612245 66.58009 
L 215.206869 66.349075 
L 214.893055 65.854326 
L 214.801305 65.718762 
L 214.735702 65.512359 
L 214.616134 65.264411 
L 214.439005 65.101536 
L 214.185995 65.070364 
L 214.022784 64.998764 
L 213.955786 64.905281 
L 213.498814 64.759741 
L 213.465706 64.899581 
L 213.335044 64.893054 
L 213.362331 64.746596 
L 213.162396 64.642899 
L 212.941919 64.605746 
L 212.840008 64.660599 
L 212.65583 64.744233 
L 212.280421 64.66596 
L 211.912667 64.729567 
L 211.888847 64.52267 
L 211.823556 64.526385 
L 211.68427 64.668027 
L 211.332703 64.75199 
L 211.006059 64.750898 
L 210.810012 64.738062 
L 210.65966 64.542796 
L 210.665269 64.080457 
L 210.825503 63.78891 
L 210.858793 63.594257 
L 210.834878 63.415654 
L 210.518836 63.441385 
L 210.307933 63.458556 
L 210.319344 63.730375 
L 210.244578 64.099225 
L 210.174702 64.220799 
L 209.838638 64.568474 
L 209.614235 64.811884 
L 209.383722 65.061921 
L 209.158767 65.18691 
L 209.052114 64.996355 
L 208.997401 64.8986 
L 208.994771 64.8939 
L 210.080943 64.078251 
L 210.048575 63.692675 
L 210.009198 63.276625 
L 209.968553 62.631548 
L 209.934121 62.521807 
L 209.679624 62.060883 
L 209.175928 61.26416 
L 209.092436 60.670835 
L 209.821658 60.629255 
L 209.870115 60.626492 
L 211.591931 60.528319 
L 214.094044 60.287994 
L 214.723595 59.566618 
L 211.614315 41.832333 
L 214.578096 39.70806 
L 214.415382 40.132572 
L 211.969275 42.008636 
L 211.907205 42.056241 
L 212.370428 44.826477 
L 212.409075 45.00551 
L 212.465875 45.111138 
" style="fill:#c6dbef;stroke:#000000;stroke-width:0.25;"/>
    <path clip-path="url(#p7bc672c256)" d="M 292.024947 194.705427 
L 292.000745 194.726913 
L 291.960036 194.748341 
L 291.545665 195.009285 
L 291.53912 195.013462 
L 291.403508 195.100016 
L 291.044361 195.328926 
L 290.79812 195.480197 
L 290.665257 195.563729 
L 290.631339 195.585014 
L 290.604935 195.601583 
L 290.474872 195.683348 
L 290.339003 195.611052 
L 290.224051 195.620545 
L 290.166437 195.646481 
L 289.977854 195.759382 
L 289.940883 195.787002 
L 289.890332 195.824768 
L 289.845828 195.858017 
L 289.713398 195.890668 
L 289.668535 195.901677 
L 289.615673 195.91253 
L 289.355674 195.968081 
L 289.275743 195.985183 
L 289.074951 196.031045 
L 288.98855 196.018657 
L 288.940673 196.011793 
L 288.883136 196.015905 
L 288.882693 196.025615 
L 288.872542 196.248071 
L 288.876944 196.476864 
L 288.593821 196.500231 
L 288.673667 197.013261 
L 288.443213 197.044681 
L 288.191302 197.151949 
L 288.190523 197.152281 
L 288.025681 197.077747 
L 287.935697 197.03706 
L 287.935048 197.037235 
L 287.896394 197.047672 
L 287.852191 197.059606 
L 287.746187 197.088545 
L 287.687683 197.114985 
L 287.55873 197.315013 
L 287.41449 197.528945 
L 287.227184 197.350646 
L 287.531476 197.120781 
L 287.496444 196.94972 
L 287.495772 196.94644 
L 287.383121 196.698995 
L 287.29702 196.628905 
L 287.313291 196.334585 
L 287.410861 196.031668 
L 287.423949 195.956978 
L 287.561063 195.566521 
L 287.676588 195.57454 
L 287.719592 195.369769 
L 287.722828 195.338324 
L 287.729627 195.272253 
L 287.732344 195.245846 
L 287.707603 195.087927 
L 287.70706 195.084465 
L 287.706884 195.083341 
L 287.708132 195.083532 
L 287.987996 195.126455 
L 288.229759 194.984684 
L 288.383723 194.894374 
L 288.44709 194.857418 
L 288.559642 194.791675 
L 289.121221 194.463647 
L 289.194851 194.433199 
L 289.999928 194.19191 
L 290.0075 194.189641 
L 290.128773 194.152001 
L 290.356063 194.081617 
L 291.361958 193.66389 
L 291.398791 193.661482 
L 291.832848 194.445902 
L 292.024947 194.705427 
" style="fill:#08306b;stroke:#000000;stroke-width:0.25;"/>
    <path clip-path="url(#p7bc672c256)" d="M 290.179512 203.375378 
L 289.943654 203.747684 
L 289.94361 203.74765 
L 289.719358 203.570079 
L 289.65811 203.521582 
L 289.717662 203.089234 
L 289.738201 202.953918 
L 289.835218 202.808339 
L 289.882624 202.751155 
L 290.012473 202.594524 
L 290.01258 202.594351 
L 290.140175 202.389417 
L 290.173635 202.301516 
L 290.237677 202.133277 
L 290.237708 202.133194 
L 290.504885 201.661561 
L 290.516767 201.640586 
L 290.531297 201.615719 
L 290.645028 201.421016 
L 290.788235 201.17612 
L 290.975766 200.892934 
L 291.023619 200.8208 
L 291.218445 200.526704 
L 291.234006 200.506965 
L 291.244251 200.494027 
L 291.546498 200.112304 
L 291.705804 199.911241 
L 291.771503 199.826463 
L 292.133899 199.358888 
L 292.222555 199.244496 
L 292.306231 199.136426 
L 292.495658 198.892074 
L 292.76953 198.53877 
L 293.150313 198.223655 
L 293.314597 198.087703 
L 293.40314 198.040299 
L 293.501994 197.987361 
L 293.57941 197.927235 
L 293.667777 197.858647 
L 293.803618 197.697901 
L 293.839154 197.65585 
L 293.957741 197.51555 
L 294.104105 197.351294 
L 294.104604 197.350734 
L 294.104514 197.350332 
L 294.103979 197.34794 
L 294.022683 197.139558 
L 293.979393 197.026284 
L 293.9716 197.005893 
L 294.244132 196.99721 
L 294.26068 196.985848 
L 294.26789 196.977926 
L 294.283243 196.961058 
L 294.422739 197.121174 
L 294.505521 197.291031 
L 294.541118 197.364072 
L 294.574498 197.656919 
L 294.615188 197.929235 
L 294.637365 198.086019 
L 294.696072 198.470694 
L 294.709717 198.562101 
L 294.734465 198.746175 
L 294.701432 198.751134 
L 294.59722 198.776144 
L 294.240969 199.011914 
L 294.083777 199.115908 
L 293.927739 199.219159 
L 293.872372 199.256015 
L 293.626087 199.419846 
L 293.427315 199.613283 
L 293.207104 199.801826 
L 293.08343 199.907719 
L 292.979828 200.011655 
L 292.892921 200.098647 
L 292.734266 200.258854 
L 292.618303 200.375563 
L 292.525927 200.46482 
L 292.484008 200.505403 
L 292.279381 200.703007 
L 292.072906 200.920525 
L 292.011778 200.971065 
L 291.666682 201.249001 
L 291.583229 201.330556 
L 291.497215 201.414626 
L 291.407999 201.508209 
L 291.261937 201.698532 
L 291.151593 201.842288 
L 291.104222 201.952512 
L 291.047227 202.055217 
L 290.98394 202.177821 
L 290.9625 202.212905 
L 290.961343 202.214797 
L 290.917017 202.287343 
L 290.709168 202.534802 
L 290.642223 202.614505 
L 290.468581 202.884163 
L 290.381628 203.056423 
L 290.328637 203.139982 
L 290.179512 203.375378 
" style="fill:#08306b;stroke:#000000;stroke-width:0.25;"/>
    <path clip-path="url(#p7bc672c256)" d="M 293.670058 196.309997 
L 293.767508 196.40246 
L 293.813338 196.445597 
L 293.904447 196.531352 
L 294.09251 196.746581 
L 294.188646 196.851602 
L 294.283243 196.961058 
L 294.26789 196.977926 
L 294.26068 196.985848 
L 294.244132 196.99721 
L 293.9716 197.005893 
L 293.947006 196.996117 
L 293.833764 196.9511 
L 293.680702 196.880359 
L 293.650067 196.8662 
L 293.514768 196.848213 
L 293.448086 196.862055 
L 293.372318 196.877783 
L 293.269748 196.90521 
L 293.083544 196.955182 
L 292.649544 197.057321 
L 292.16648 197.281606 
L 291.562261 197.618395 
L 291.029674 197.915212 
L 290.154489 198.32147 
L 289.95578 198.270543 
L 289.934122 198.264992 
L 289.370453 198.120769 
L 288.787897 197.678423 
L 288.45674 197.386688 
L 288.406688 197.342617 
L 288.190523 197.152281 
L 288.191302 197.151949 
L 288.443213 197.044681 
L 288.673667 197.013261 
L 288.593821 196.500231 
L 288.876944 196.476864 
L 288.872542 196.248071 
L 288.882693 196.025615 
L 288.883136 196.015905 
L 288.940673 196.011793 
L 288.98855 196.018657 
L 289.074951 196.031045 
L 289.275743 195.985183 
L 289.355674 195.968081 
L 289.615673 195.91253 
L 289.668535 195.901677 
L 289.713398 195.890668 
L 289.845828 195.858017 
L 289.890332 195.824768 
L 289.940883 195.787002 
L 289.977854 195.759382 
L 290.166437 195.646481 
L 290.224051 195.620545 
L 290.339003 195.611052 
L 290.474872 195.683348 
L 290.604935 195.601583 
L 290.631339 195.585014 
L 290.665257 195.563729 
L 290.79812 195.480197 
L 291.044361 195.328926 
L 291.403508 195.100016 
L 291.53912 195.013462 
L 291.545665 195.009285 
L 291.960036 194.748341 
L 292.000745 194.726913 
L 292.024947 194.705427 
L 292.148798 194.873354 
L 292.413106 195.181351 
L 292.96128 195.651494 
L 293.28533 195.941938 
L 293.670058 196.309997 
" style="fill:#08306b;stroke:#000000;stroke-width:0.25;"/>
    <path clip-path="url(#p7bc672c256)" d="M 291.398791 193.661482 
L 291.361958 193.66389 
L 290.356063 194.081617 
L 290.128773 194.152001 
L 290.0075 194.189641 
L 289.999928 194.19191 
L 289.194851 194.433199 
L 289.121221 194.463647 
L 288.559642 194.791675 
L 288.44709 194.857418 
L 288.383723 194.894374 
L 288.229759 194.984684 
L 287.987996 195.126455 
L 287.708132 195.083532 
L 287.706884 195.083341 
L 287.817055 194.988817 
L 287.846252 194.665992 
L 287.847448 194.476616 
L 287.848254 194.348909 
L 287.837613 194.197115 
L 287.859744 194.042391 
L 287.282702 193.727842 
L 287.421275 193.536603 
L 287.399977 193.454432 
L 287.373043 193.34991 
L 287.237641 193.180294 
L 288.858519 192.544234 
L 288.884578 192.534008 
L 289.468593 192.310074 
L 289.88769 192.149385 
L 289.918461 192.137566 
L 289.96678 192.119084 
L 290.033408 192.09356 
L 290.584745 191.882201 
L 290.681469 191.820366 
L 290.623765 191.980041 
L 290.964185 192.671503 
L 290.98896 192.739983 
L 291.167917 193.234329 
L 291.282597 193.44638 
L 291.398791 193.661482 
" style="fill:#08306b;stroke:#000000;stroke-width:0.25;"/>
    <path clip-path="url(#p7bc672c256)" d="M 287.706884 195.083341 
L 287.70706 195.084465 
L 287.707603 195.087927 
L 287.732344 195.245846 
L 287.729627 195.272253 
L 287.722828 195.338324 
L 287.719592 195.369769 
L 287.676588 195.57454 
L 287.561063 195.566521 
L 287.423949 195.956978 
L 287.410861 196.031668 
L 286.959166 195.929841 
L 286.921825 196.076899 
L 286.825532 196.088742 
L 286.698062 196.047183 
L 286.508108 196.008196 
L 286.329969 196.003891 
L 286.187588 195.993836 
L 286.169251 195.992541 
L 285.832294 195.977908 
L 285.15591 195.947875 
L 285.155845 195.947872 
L 285.254855 195.559947 
L 285.273731 195.517825 
L 285.360057 195.325195 
L 285.449902 195.124649 
L 285.551079 194.987585 
L 285.667771 194.843852 
L 285.70994 194.772338 
L 285.79335 194.630885 
L 285.799856 194.619853 
L 285.846354 194.540838 
L 285.869117 194.498203 
L 285.923303 194.396711 
L 286.17567 194.127836 
L 286.395972 193.877501 
L 286.550917 193.905833 
L 286.712173 193.926536 
L 286.733815 193.929314 
L 286.819726 193.90906 
L 286.82155 193.908329 
L 286.992723 193.839768 
L 287.103929 193.795226 
L 287.260754 193.736115 
L 287.282702 193.727842 
L 287.859744 194.042391 
L 287.837613 194.197115 
L 287.848254 194.348909 
L 287.847448 194.476616 
L 287.846252 194.665992 
L 287.817055 194.988817 
L 287.706884 195.083341 
" style="fill:#08306b;stroke:#000000;stroke-width:0.25;"/>
    <path clip-path="url(#p7bc672c256)" d="M 287.410861 196.031668 
L 287.313291 196.334585 
L 287.29702 196.628905 
L 287.383121 196.698995 
L 287.495772 196.94644 
L 287.496444 196.94972 
L 287.531476 197.120781 
L 287.227184 197.350646 
L 287.41449 197.528945 
L 287.239524 197.81408 
L 287.234203 197.823348 
L 287.133609 197.998582 
L 286.935594 198.302541 
L 286.814371 198.470875 
L 286.574446 198.704519 
L 286.245708 198.591831 
L 286.142362 198.550991 
L 286.051756 198.462359 
L 285.894672 198.312777 
L 285.620701 198.05189 
L 285.399495 197.836548 
L 285.023269 197.325143 
L 285.017009 197.316597 
L 284.833832 197.066517 
L 284.876381 196.90706 
L 284.879768 196.894366 
L 284.886455 196.869665 
L 284.943835 196.657694 
L 285.080404 196.277513 
L 285.155026 195.951449 
L 285.155845 195.947872 
L 285.15591 195.947875 
L 285.832294 195.977908 
L 286.169251 195.992541 
L 286.187588 195.993836 
L 286.329969 196.003891 
L 286.508108 196.008196 
L 286.698062 196.047183 
L 286.825532 196.088742 
L 286.921825 196.076899 
L 286.959166 195.929841 
L 287.410861 196.031668 
" style="fill:#08306b;stroke:#000000;stroke-width:0.25;"/>
    <path clip-path="url(#p7bc672c256)" d="M 297.573924 207.690333 
L 294.577966 208.168098 
L 294.228166 208.223881 
L 294.228232 208.007253 
L 294.22825 207.948155 
L 294.230736 207.941924 
L 294.348804 207.645955 
L 294.471125 207.634713 
L 294.531895 207.630649 
L 294.55584 207.629048 
L 294.77299 207.624612 
L 295.427949 207.696711 
L 296.205515 207.568763 
L 296.548371 207.205807 
L 296.579732 206.631371 
L 296.571913 206.364246 
L 296.563529 206.077578 
L 296.383102 205.85996 
L 296.117444 205.539523 
L 295.65674 204.969823 
L 295.530818 204.814195 
L 295.397917 204.656893 
L 295.031585 204.22355 
L 294.707881 203.87258 
L 294.630846 203.789069 
L 294.434396 203.576095 
L 294.42668 203.567693 
L 294.238833 203.364011 
L 294.036831 203.106476 
L 293.967679 203.018302 
L 293.90711 202.694019 
L 293.856761 202.424206 
L 293.731863 202.085738 
L 293.724967 202.070741 
L 293.536667 201.661247 
L 293.305652 201.310593 
L 293.298146 201.279491 
L 293.294853 201.24116 
L 293.291229 201.116417 
L 293.273899 200.989469 
L 293.41991 200.884405 
L 293.533598 200.802591 
L 293.78029 200.703219 
L 293.906335 200.608498 
L 294.018595 200.461705 
L 294.133086 200.402471 
L 294.223928 200.352419 
L 294.462606 200.220915 
L 294.893705 200.040986 
L 294.939548 200.00435 
L 295.144443 200.595099 
L 295.33842 201.041157 
L 295.457939 201.428585 
L 295.495477 201.550402 
L 295.86988 202.359995 
L 296.034209 202.715098 
L 296.090066 202.827083 
L 296.211789 203.093468 
L 296.435452 203.582774 
L 296.926271 205.189632 
L 297.034536 205.635008 
L 297.456955 207.372701 
L 297.573924 207.690333 
" style="fill:#08306b;stroke:#000000;stroke-width:0.25;"/>
    <path clip-path="url(#p7bc672c256)" d="M 293.291229 201.116417 
L 293.294853 201.24116 
L 293.298146 201.279491 
L 293.305652 201.310593 
L 293.006261 201.267297 
L 292.697322 201.220923 
L 292.697227 201.220909 
L 292.375036 201.304788 
L 292.094366 201.389195 
L 291.758904 201.496614 
L 291.651728 201.530934 
L 291.651467 201.531017 
L 291.342835 201.983806 
L 291.165325 202.269945 
L 291.227756 202.354291 
L 291.423263 202.618778 
L 291.423448 202.619157 
L 291.715497 203.21643 
L 291.712027 203.516633 
L 291.690034 203.704221 
L 291.639808 203.77225 
L 291.639764 203.772309 
L 291.564934 203.819375 
L 291.405413 203.937198 
L 291.225339 203.978056 
L 290.790742 204.070549 
L 290.177907 203.935033 
L 289.943654 203.747684 
L 290.179512 203.375378 
L 290.328637 203.139982 
L 290.381628 203.056423 
L 290.468581 202.884163 
L 290.642223 202.614505 
L 290.709168 202.534802 
L 290.917017 202.287343 
L 290.961343 202.214797 
L 290.9625 202.212905 
L 290.98394 202.177821 
L 291.047227 202.055217 
L 291.104222 201.952512 
L 291.151593 201.842288 
L 291.261937 201.698532 
L 291.407999 201.508209 
L 291.497215 201.414626 
L 291.583229 201.330556 
L 291.666682 201.249001 
L 292.011778 200.971065 
L 292.072906 200.920525 
L 292.279381 200.703007 
L 292.484008 200.505403 
L 292.525927 200.46482 
L 292.618303 200.375563 
L 292.734266 200.258854 
L 292.892921 200.098647 
L 292.979828 200.011655 
L 293.08343 199.907719 
L 293.207104 199.801826 
L 293.427315 199.613283 
L 293.626087 199.419846 
L 293.927739 199.219159 
L 294.083777 199.115908 
L 294.59722 198.776144 
L 294.701432 198.751134 
L 294.734465 198.746175 
L 294.81743 199.345375 
L 294.939548 200.00435 
L 294.893705 200.040986 
L 294.462606 200.220915 
L 294.223928 200.352419 
L 294.133086 200.402471 
L 294.018595 200.461705 
L 293.906335 200.608498 
L 293.78029 200.703219 
L 293.533598 200.802591 
L 293.41991 200.884405 
L 293.273899 200.989469 
L 293.291229 201.116417 
" style="fill:#08306b;stroke:#000000;stroke-width:0.25;"/>
    <path clip-path="url(#p7bc672c256)" d="M 170.052459 214.788219 
L 170.260353 215.4964 
L 169.490025 215.64684 
L 169.207182 216.505508 
L 168.491958 216.922708 
L 168.169126 217.438158 
L 167.848403 217.96846 
L 167.754476 218.225079 
L 167.959341 218.775917 
L 168.236663 219.263684 
L 168.306214 219.386102 
L 168.542745 219.997315 
L 168.709519 220.092652 
L 169.123586 220.011058 
L 169.694651 219.645651 
L 170.169589 218.676606 
L 171.284042 219.575734 
L 171.685558 221.004865 
L 171.606718 221.45693 
L 171.376312 222.504698 
L 170.780616 222.529093 
L 169.430926 222.644093 
L 169.157945 222.567432 
L 168.934548 222.584447 
L 168.676923 222.889239 
L 168.555677 223.075855 
L 168.412864 223.295387 
L 168.183261 223.64963 
L 168.190055 223.743925 
L 167.676814 223.753626 
L 167.271282 223.865066 
L 166.917591 224.269265 
L 166.729511 224.204942 
L 166.582522 224.154713 
L 166.385096 224.113451 
L 165.766015 223.727949 
L 164.554606 223.613387 
L 163.621837 223.515618 
L 163.316265 223.65518 
L 163.324844 223.595702 
L 163.424209 222.622484 
L 163.226076 222.37466 
L 163.24884 221.945628 
L 163.34323 221.739763 
L 163.364443 221.547103 
L 163.410942 220.968178 
L 163.442426 219.980775 
L 163.424032 219.63357 
L 163.422318 219.500467 
L 163.37721 218.749568 
L 163.39162 218.464643 
L 163.397465 218.349329 
L 163.360465 217.794232 
L 163.332131 216.810691 
L 163.312026 215.796472 
L 163.31155 215.368377 
L 163.951886 215.361125 
L 164.420762 215.369034 
L 165.015813 215.387007 
L 165.449908 215.430073 
L 165.742082 215.425847 
L 166.298041 215.401313 
L 167.130568 214.989197 
L 167.33966 214.884077 
L 167.540611 214.782991 
L 168.090068 214.538934 
L 168.554688 214.187252 
L 168.83745 213.770254 
L 169.358595 213.867665 
L 170.02889 214.584117 
L 170.052459 214.788219 
" style="fill:#c6dbef;stroke:#000000;stroke-width:0.25;"/>
   </g>
   <g id="patch_3">
    <path d="M 156.508684 233.497325 
L 156.508684 30.48 
" style="fill:none;stroke:#000000;stroke-linecap:square;stroke-linejoin:miter;stroke-width:0.8;"/>
   </g>
   <g id="patch_4">
    <path d="M 304.291316 233.497325 
L 304.291316 30.48 
" style="fill:none;stroke:#000000;stroke-linecap:square;stroke-linejoin:miter;stroke-width:0.8;"/>
   </g>
   <g id="patch_5">
    <path d="M 156.508684 233.497325 
L 304.291316 233.497325 
" style="fill:none;stroke:#000000;stroke-linecap:square;stroke-linejoin:miter;stroke-width:0.8;"/>
   </g>
   <g id="patch_6">
    <path d="M 156.508684 30.48 
L 304.291316 30.48 
" style="fill:none;stroke:#000000;stroke-linecap:square;stroke-linejoin:miter;stroke-width:0.8;"/>
   </g>
   <g id="text_1">
    <!-- Jakarta Floods in OCT 2013 -->
    <g transform="translate(93.238594 24.48)scale(0.18 -0.18)">
     <defs>
      <path d="M 9.1875 72.90625 
L 27.984375 72.90625 
L 27.984375 7.078125 
Q 27.984375 -6.546875 20.578125 -13.28125 
Q 13.1875 -20.015625 -1.8125 -20.015625 
L -5.609375 -20.015625 
L -5.609375 -5.8125 
L -2.6875 -5.8125 
Q 3.171875 -5.8125 6.171875 -2.53125 
Q 9.1875 0.734375 9.1875 7.078125 
z
" id="DejaVuSans-Bold-74"/>
      <path d="M 32.90625 24.609375 
Q 27.4375 24.609375 24.671875 22.75 
Q 21.921875 20.90625 21.921875 17.28125 
Q 21.921875 13.96875 24.140625 12.078125 
Q 26.375 10.203125 30.328125 10.203125 
Q 35.25 10.203125 38.625 13.734375 
Q 42 17.28125 42 22.609375 
L 42 24.609375 
z
M 59.625 31.203125 
L 59.625 0 
L 42 0 
L 42 8.109375 
Q 38.484375 3.125 34.078125 0.84375 
Q 29.6875 -1.421875 23.390625 -1.421875 
Q 14.890625 -1.421875 9.59375 3.53125 
Q 4.296875 8.5 4.296875 16.40625 
Q 4.296875 26.03125 10.90625 30.515625 
Q 17.53125 35.015625 31.6875 35.015625 
L 42 35.015625 
L 42 36.375 
Q 42 40.53125 38.71875 42.453125 
Q 35.453125 44.390625 28.515625 44.390625 
Q 22.90625 44.390625 18.0625 43.265625 
Q 13.234375 42.140625 9.078125 39.890625 
L 9.078125 53.21875 
Q 14.703125 54.59375 20.359375 55.296875 
Q 26.03125 56 31.6875 56 
Q 46.484375 56 53.046875 50.171875 
Q 59.625 44.34375 59.625 31.203125 
z
" id="DejaVuSans-Bold-97"/>
      <path d="M 8.40625 75.984375 
L 25.875 75.984375 
L 25.875 34.625 
L 46 54.6875 
L 66.3125 54.6875 
L 39.59375 29.59375 
L 68.40625 0 
L 47.21875 0 
L 25.875 22.796875 
L 25.875 0 
L 8.40625 0 
z
" id="DejaVuSans-Bold-107"/>
      <path d="M 49.03125 39.796875 
Q 46.734375 40.875 44.453125 41.375 
Q 42.1875 41.890625 39.890625 41.890625 
Q 33.15625 41.890625 29.515625 37.5625 
Q 25.875 33.25 25.875 25.203125 
L 25.875 0 
L 8.40625 0 
L 8.40625 54.6875 
L 25.875 54.6875 
L 25.875 45.703125 
Q 29.25 51.078125 33.609375 53.53125 
Q 37.984375 56 44.09375 56 
Q 44.96875 56 45.984375 55.921875 
Q 47.015625 55.859375 48.96875 55.609375 
z
" id="DejaVuSans-Bold-114"/>
      <path d="M 27.484375 70.21875 
L 27.484375 54.6875 
L 45.515625 54.6875 
L 45.515625 42.1875 
L 27.484375 42.1875 
L 27.484375 19 
Q 27.484375 15.1875 29 13.84375 
Q 30.515625 12.5 35.015625 12.5 
L 44 12.5 
L 44 0 
L 29 0 
Q 18.65625 0 14.328125 4.3125 
Q 10.015625 8.640625 10.015625 19 
L 10.015625 42.1875 
L 1.3125 42.1875 
L 1.3125 54.6875 
L 10.015625 54.6875 
L 10.015625 70.21875 
z
" id="DejaVuSans-Bold-116"/>
      <path id="DejaVuSans-Bold-32"/>
      <path d="M 9.1875 72.90625 
L 59.90625 72.90625 
L 59.90625 58.6875 
L 27.984375 58.6875 
L 27.984375 45.125 
L 58.015625 45.125 
L 58.015625 30.90625 
L 27.984375 30.90625 
L 27.984375 0 
L 9.1875 0 
z
" id="DejaVuSans-Bold-70"/>
      <path d="M 8.40625 75.984375 
L 25.875 75.984375 
L 25.875 0 
L 8.40625 0 
z
" id="DejaVuSans-Bold-108"/>
      <path d="M 34.421875 43.5 
Q 28.609375 43.5 25.5625 39.328125 
Q 22.515625 35.15625 22.515625 27.296875 
Q 22.515625 19.4375 25.5625 15.25 
Q 28.609375 11.078125 34.421875 11.078125 
Q 40.140625 11.078125 43.15625 15.25 
Q 46.1875 19.4375 46.1875 27.296875 
Q 46.1875 35.15625 43.15625 39.328125 
Q 40.140625 43.5 34.421875 43.5 
z
M 34.421875 56 
Q 48.53125 56 56.46875 48.375 
Q 64.40625 40.765625 64.40625 27.296875 
Q 64.40625 13.8125 56.46875 6.1875 
Q 48.53125 -1.421875 34.421875 -1.421875 
Q 20.265625 -1.421875 12.28125 6.1875 
Q 4.296875 13.8125 4.296875 27.296875 
Q 4.296875 40.765625 12.28125 48.375 
Q 20.265625 56 34.421875 56 
z
" id="DejaVuSans-Bold-111"/>
      <path d="M 45.609375 46.6875 
L 45.609375 75.984375 
L 63.1875 75.984375 
L 63.1875 0 
L 45.609375 0 
L 45.609375 7.90625 
Q 42 3.078125 37.640625 0.828125 
Q 33.296875 -1.421875 27.59375 -1.421875 
Q 17.484375 -1.421875 10.984375 6.609375 
Q 4.5 14.65625 4.5 27.296875 
Q 4.5 39.9375 10.984375 47.96875 
Q 17.484375 56 27.59375 56 
Q 33.25 56 37.625 53.734375 
Q 42 51.46875 45.609375 46.6875 
z
M 34.078125 11.28125 
Q 39.703125 11.28125 42.65625 15.375 
Q 45.609375 19.484375 45.609375 27.296875 
Q 45.609375 35.109375 42.65625 39.203125 
Q 39.703125 43.3125 34.078125 43.3125 
Q 28.515625 43.3125 25.5625 39.203125 
Q 22.609375 35.109375 22.609375 27.296875 
Q 22.609375 19.484375 25.5625 15.375 
Q 28.515625 11.28125 34.078125 11.28125 
z
" id="DejaVuSans-Bold-100"/>
      <path d="M 51.125 52.984375 
L 51.125 39.703125 
Q 45.515625 42.046875 40.28125 43.21875 
Q 35.0625 44.390625 30.421875 44.390625 
Q 25.4375 44.390625 23.015625 43.140625 
Q 20.609375 41.890625 20.609375 39.3125 
Q 20.609375 37.203125 22.4375 36.078125 
Q 24.265625 34.96875 29 34.421875 
L 32.078125 33.984375 
Q 45.515625 32.28125 50.140625 28.375 
Q 54.78125 24.46875 54.78125 16.109375 
Q 54.78125 7.375 48.328125 2.96875 
Q 41.890625 -1.421875 29.109375 -1.421875 
Q 23.6875 -1.421875 17.890625 -0.5625 
Q 12.109375 0.296875 6 2 
L 6 15.28125 
Q 11.234375 12.75 16.71875 11.46875 
Q 22.21875 10.203125 27.875 10.203125 
Q 33.015625 10.203125 35.59375 11.609375 
Q 38.1875 13.03125 38.1875 15.828125 
Q 38.1875 18.171875 36.40625 19.3125 
Q 34.625 20.453125 29.296875 21.09375 
L 26.21875 21.484375 
Q 14.546875 22.953125 9.859375 26.90625 
Q 5.171875 30.859375 5.171875 38.921875 
Q 5.171875 47.609375 11.125 51.796875 
Q 17.09375 56 29.390625 56 
Q 34.234375 56 39.546875 55.265625 
Q 44.875 54.546875 51.125 52.984375 
z
" id="DejaVuSans-Bold-115"/>
      <path d="M 8.40625 54.6875 
L 25.875 54.6875 
L 25.875 0 
L 8.40625 0 
z
M 8.40625 75.984375 
L 25.875 75.984375 
L 25.875 61.71875 
L 8.40625 61.71875 
z
" id="DejaVuSans-Bold-105"/>
      <path d="M 63.375 33.296875 
L 63.375 0 
L 45.796875 0 
L 45.796875 5.421875 
L 45.796875 25.484375 
Q 45.796875 32.5625 45.484375 35.25 
Q 45.171875 37.9375 44.390625 39.203125 
Q 43.359375 40.921875 41.59375 41.875 
Q 39.84375 42.828125 37.59375 42.828125 
Q 32.125 42.828125 29 38.59375 
Q 25.875 34.375 25.875 26.90625 
L 25.875 0 
L 8.40625 0 
L 8.40625 54.6875 
L 25.875 54.6875 
L 25.875 46.6875 
Q 29.828125 51.46875 34.265625 53.734375 
Q 38.71875 56 44.09375 56 
Q 53.5625 56 58.46875 50.1875 
Q 63.375 44.390625 63.375 33.296875 
z
" id="DejaVuSans-Bold-110"/>
      <path d="M 42.484375 60.59375 
Q 33.890625 60.59375 29.15625 54.25 
Q 24.421875 47.90625 24.421875 36.375 
Q 24.421875 24.90625 29.15625 18.546875 
Q 33.890625 12.203125 42.484375 12.203125 
Q 51.125 12.203125 55.859375 18.546875 
Q 60.59375 24.90625 60.59375 36.375 
Q 60.59375 47.90625 55.859375 54.25 
Q 51.125 60.59375 42.484375 60.59375 
z
M 42.484375 74.21875 
Q 60.0625 74.21875 70.015625 64.15625 
Q 79.984375 54.109375 79.984375 36.375 
Q 79.984375 18.703125 70.015625 8.640625 
Q 60.0625 -1.421875 42.484375 -1.421875 
Q 24.953125 -1.421875 14.96875 8.640625 
Q 4.984375 18.703125 4.984375 36.375 
Q 4.984375 54.109375 14.96875 64.15625 
Q 24.953125 74.21875 42.484375 74.21875 
z
" id="DejaVuSans-Bold-79"/>
      <path d="M 67 4 
Q 61.8125 1.3125 56.203125 -0.046875 
Q 50.59375 -1.421875 44.484375 -1.421875 
Q 26.265625 -1.421875 15.625 8.765625 
Q 4.984375 18.953125 4.984375 36.375 
Q 4.984375 53.859375 15.625 64.03125 
Q 26.265625 74.21875 44.484375 74.21875 
Q 50.59375 74.21875 56.203125 72.84375 
Q 61.8125 71.484375 67 68.796875 
L 67 53.71875 
Q 61.765625 57.28125 56.6875 58.9375 
Q 51.609375 60.59375 46 60.59375 
Q 35.9375 60.59375 30.171875 54.140625 
Q 24.421875 47.703125 24.421875 36.375 
Q 24.421875 25.09375 30.171875 18.640625 
Q 35.9375 12.203125 46 12.203125 
Q 51.609375 12.203125 56.6875 13.859375 
Q 61.765625 15.53125 67 19.09375 
z
" id="DejaVuSans-Bold-67"/>
      <path d="M 0.484375 72.90625 
L 67.671875 72.90625 
L 67.671875 58.6875 
L 43.5 58.6875 
L 43.5 0 
L 24.703125 0 
L 24.703125 58.6875 
L 0.484375 58.6875 
z
" id="DejaVuSans-Bold-84"/>
      <path d="M 28.8125 13.8125 
L 60.890625 13.8125 
L 60.890625 0 
L 7.90625 0 
L 7.90625 13.8125 
L 34.515625 37.3125 
Q 38.09375 40.53125 39.796875 43.609375 
Q 41.5 46.6875 41.5 50 
Q 41.5 55.125 38.0625 58.25 
Q 34.625 61.375 28.90625 61.375 
Q 24.515625 61.375 19.28125 59.5 
Q 14.0625 57.625 8.109375 53.90625 
L 8.109375 69.921875 
Q 14.453125 72.015625 20.65625 73.109375 
Q 26.859375 74.21875 32.8125 74.21875 
Q 45.90625 74.21875 53.15625 68.453125 
Q 60.40625 62.703125 60.40625 52.390625 
Q 60.40625 46.4375 57.328125 41.28125 
Q 54.25 36.140625 44.390625 27.484375 
z
" id="DejaVuSans-Bold-50"/>
      <path d="M 46 36.53125 
Q 46 50.203125 43.4375 55.78125 
Q 40.875 61.375 34.8125 61.375 
Q 28.765625 61.375 26.171875 55.78125 
Q 23.578125 50.203125 23.578125 36.53125 
Q 23.578125 22.703125 26.171875 17.03125 
Q 28.765625 11.375 34.8125 11.375 
Q 40.828125 11.375 43.40625 17.03125 
Q 46 22.703125 46 36.53125 
z
M 64.796875 36.375 
Q 64.796875 18.265625 56.984375 8.421875 
Q 49.171875 -1.421875 34.8125 -1.421875 
Q 20.40625 -1.421875 12.59375 8.421875 
Q 4.78125 18.265625 4.78125 36.375 
Q 4.78125 54.546875 12.59375 64.375 
Q 20.40625 74.21875 34.8125 74.21875 
Q 49.171875 74.21875 56.984375 64.375 
Q 64.796875 54.546875 64.796875 36.375 
z
" id="DejaVuSans-Bold-48"/>
      <path d="M 11.71875 12.984375 
L 28.328125 12.984375 
L 28.328125 60.109375 
L 11.28125 56.59375 
L 11.28125 69.390625 
L 28.21875 72.90625 
L 46.09375 72.90625 
L 46.09375 12.984375 
L 62.703125 12.984375 
L 62.703125 0 
L 11.71875 0 
z
" id="DejaVuSans-Bold-49"/>
      <path d="M 46.578125 39.3125 
Q 53.953125 37.40625 57.78125 32.6875 
Q 61.625 27.984375 61.625 20.703125 
Q 61.625 9.859375 53.3125 4.21875 
Q 45.015625 -1.421875 29.109375 -1.421875 
Q 23.484375 -1.421875 17.84375 -0.515625 
Q 12.203125 0.390625 6.6875 2.203125 
L 6.6875 16.703125 
Q 11.96875 14.0625 17.15625 12.71875 
Q 22.359375 11.375 27.390625 11.375 
Q 34.859375 11.375 38.84375 13.953125 
Q 42.828125 16.546875 42.828125 21.390625 
Q 42.828125 26.375 38.75 28.9375 
Q 34.671875 31.5 26.703125 31.5 
L 19.1875 31.5 
L 19.1875 43.609375 
L 27.09375 43.609375 
Q 34.1875 43.609375 37.640625 45.828125 
Q 41.109375 48.046875 41.109375 52.59375 
Q 41.109375 56.78125 37.734375 59.078125 
Q 34.375 61.375 28.21875 61.375 
Q 23.6875 61.375 19.046875 60.34375 
Q 14.40625 59.328125 9.8125 57.328125 
L 9.8125 71.09375 
Q 15.375 72.65625 20.84375 73.4375 
Q 26.3125 74.21875 31.59375 74.21875 
Q 45.796875 74.21875 52.84375 69.546875 
Q 59.90625 64.890625 59.90625 55.515625 
Q 59.90625 49.125 56.53125 45.046875 
Q 53.171875 40.96875 46.578125 39.3125 
z
" id="DejaVuSans-Bold-51"/>
     </defs>
     <use xlink:href="#DejaVuSans-Bold-74"/>
     <use x="37.207031" xlink:href="#DejaVuSans-Bold-97"/>
     <use x="104.6875" xlink:href="#DejaVuSans-Bold-107"/>
     <use x="171.191406" xlink:href="#DejaVuSans-Bold-97"/>
     <use x="238.671875" xlink:href="#DejaVuSans-Bold-114"/>
     <use x="287.988281" xlink:href="#DejaVuSans-Bold-116"/>
     <use x="335.791016" xlink:href="#DejaVuSans-Bold-97"/>
     <use x="403.271484" xlink:href="#DejaVuSans-Bold-32"/>
     <use x="438.085938" xlink:href="#DejaVuSans-Bold-70"/>
     <use x="506.396484" xlink:href="#DejaVuSans-Bold-108"/>
     <use x="540.673828" xlink:href="#DejaVuSans-Bold-111"/>
     <use x="609.375" xlink:href="#DejaVuSans-Bold-111"/>
     <use x="678.076172" xlink:href="#DejaVuSans-Bold-100"/>
     <use x="749.658203" xlink:href="#DejaVuSans-Bold-115"/>
     <use x="809.179688" xlink:href="#DejaVuSans-Bold-32"/>
     <use x="843.994141" xlink:href="#DejaVuSans-Bold-105"/>
     <use x="878.271484" xlink:href="#DejaVuSans-Bold-110"/>
     <use x="949.462891" xlink:href="#DejaVuSans-Bold-32"/>
     <use x="984.277344" xlink:href="#DejaVuSans-Bold-79"/>
     <use x="1069.287109" xlink:href="#DejaVuSans-Bold-67"/>
     <use x="1142.675781" xlink:href="#DejaVuSans-Bold-84"/>
     <use x="1210.888672" xlink:href="#DejaVuSans-Bold-32"/>
     <use x="1245.703125" xlink:href="#DejaVuSans-Bold-50"/>
     <use x="1315.283203" xlink:href="#DejaVuSans-Bold-48"/>
     <use x="1384.863281" xlink:href="#DejaVuSans-Bold-49"/>
     <use x="1454.443359" xlink:href="#DejaVuSans-Bold-51"/>
    </g>
   </g>
  </g>
  <g id="axes_2">
   <g id="patch_7">
    <path clip-path="url(#p4356f29f5a)" d="M 10.8 298.961037 
L 120.6 298.961037 
L 340.2 298.961037 
L 450 298.961037 
L 450 277.001037 
L 340.2 277.001037 
L 120.6 277.001037 
L 10.8 277.001037 
z
" style="fill:#ffffff;stroke:#ffffff;stroke-linejoin:miter;stroke-width:0.01;"/>
   </g>
   <g id="QuadMesh_1">
    <path clip-path="url(#p4356f29f5a)" d="M 10.8 298.961037 
L 120.6 298.961037 
L 120.6 277.001037 
L 10.8 277.001037 
L 10.8 298.961037 
" style="fill:#f7fbff;"/>
    <path clip-path="url(#p4356f29f5a)" d="M 120.6 298.961037 
L 230.4 298.961037 
L 230.4 277.001037 
L 120.6 277.001037 
L 120.6 298.961037 
" style="fill:#c6dbef;"/>
    <path clip-path="url(#p4356f29f5a)" d="M 230.4 298.961037 
L 340.2 298.961037 
L 340.2 277.001037 
L 230.4 277.001037 
L 230.4 298.961037 
" style="fill:#6baed6;"/>
    <path clip-path="url(#p4356f29f5a)" d="M 340.2 298.961037 
L 450 298.961037 
L 450 277.001037 
L 340.2 277.001037 
L 340.2 298.961037 
" style="fill:#08306b;"/>
   </g>
   <g id="matplotlib.axis_1">
    <g id="xtick_1">
     <g id="line2d_1"/>
     <g id="text_2">
      <!-- 1 -->
      <g transform="translate(62.51875 310.059475)scale(0.1 -0.1)">
       <defs>
        <path d="M 12.40625 8.296875 
L 28.515625 8.296875 
L 28.515625 63.921875 
L 10.984375 60.40625 
L 10.984375 69.390625 
L 28.421875 72.90625 
L 38.28125 72.90625 
L 38.28125 8.296875 
L 54.390625 8.296875 
L 54.390625 0 
L 12.40625 0 
z
" id="DejaVuSans-49"/>
       </defs>
       <use xlink:href="#DejaVuSans-49"/>
      </g>
     </g>
    </g>
    <g id="xtick_2">
     <g id="line2d_2"/>
     <g id="text_3">
      <!-- 2 -->
      <g transform="translate(172.31875 310.059475)scale(0.1 -0.1)">
       <defs>
        <path d="M 19.1875 8.296875 
L 53.609375 8.296875 
L 53.609375 0 
L 7.328125 0 
L 7.328125 8.296875 
Q 12.9375 14.109375 22.625 23.890625 
Q 32.328125 33.6875 34.8125 36.53125 
Q 39.546875 41.84375 41.421875 45.53125 
Q 43.3125 49.21875 43.3125 52.78125 
Q 43.3125 58.59375 39.234375 62.25 
Q 35.15625 65.921875 28.609375 65.921875 
Q 23.96875 65.921875 18.8125 64.3125 
Q 13.671875 62.703125 7.8125 59.421875 
L 7.8125 69.390625 
Q 13.765625 71.78125 18.9375 73 
Q 24.125 74.21875 28.421875 74.21875 
Q 39.75 74.21875 46.484375 68.546875 
Q 53.21875 62.890625 53.21875 53.421875 
Q 53.21875 48.921875 51.53125 44.890625 
Q 49.859375 40.875 45.40625 35.40625 
Q 44.1875 33.984375 37.640625 27.21875 
Q 31.109375 20.453125 19.1875 8.296875 
z
" id="DejaVuSans-50"/>
       </defs>
       <use xlink:href="#DejaVuSans-50"/>
      </g>
     </g>
    </g>
    <g id="xtick_3">
     <g id="line2d_3"/>
     <g id="text_4">
      <!-- 3 -->
      <g transform="translate(282.11875 310.059475)scale(0.1 -0.1)">
       <defs>
        <path d="M 40.578125 39.3125 
Q 47.65625 37.796875 51.625 33 
Q 55.609375 28.21875 55.609375 21.1875 
Q 55.609375 10.40625 48.1875 4.484375 
Q 40.765625 -1.421875 27.09375 -1.421875 
Q 22.515625 -1.421875 17.65625 -0.515625 
Q 12.796875 0.390625 7.625 2.203125 
L 7.625 11.71875 
Q 11.71875 9.328125 16.59375 8.109375 
Q 21.484375 6.890625 26.8125 6.890625 
Q 36.078125 6.890625 40.9375 10.546875 
Q 45.796875 14.203125 45.796875 21.1875 
Q 45.796875 27.640625 41.28125 31.265625 
Q 36.765625 34.90625 28.71875 34.90625 
L 20.21875 34.90625 
L 20.21875 43.015625 
L 29.109375 43.015625 
Q 36.375 43.015625 40.234375 45.921875 
Q 44.09375 48.828125 44.09375 54.296875 
Q 44.09375 59.90625 40.109375 62.90625 
Q 36.140625 65.921875 28.71875 65.921875 
Q 24.65625 65.921875 20.015625 65.03125 
Q 15.375 64.15625 9.8125 62.3125 
L 9.8125 71.09375 
Q 15.4375 72.65625 20.34375 73.4375 
Q 25.25 74.21875 29.59375 74.21875 
Q 40.828125 74.21875 47.359375 69.109375 
Q 53.90625 64.015625 53.90625 55.328125 
Q 53.90625 49.265625 50.4375 45.09375 
Q 46.96875 40.921875 40.578125 39.3125 
z
" id="DejaVuSans-51"/>
       </defs>
       <use xlink:href="#DejaVuSans-51"/>
      </g>
     </g>
    </g>
    <g id="xtick_4">
     <g id="line2d_4"/>
     <g id="text_5">
      <!-- 4 -->
      <g transform="translate(391.91875 310.059475)scale(0.1 -0.1)">
       <defs>
        <path d="M 37.796875 64.3125 
L 12.890625 25.390625 
L 37.796875 25.390625 
z
M 35.203125 72.90625 
L 47.609375 72.90625 
L 47.609375 25.390625 
L 58.015625 25.390625 
L 58.015625 17.1875 
L 47.609375 17.1875 
L 47.609375 0 
L 37.796875 0 
L 37.796875 17.1875 
L 4.890625 17.1875 
L 4.890625 26.703125 
z
" id="DejaVuSans-52"/>
       </defs>
       <use xlink:href="#DejaVuSans-52"/>
      </g>
     </g>
    </g>
    <g id="text_6">
     <!-- Flood Depth  -->
     <g transform="translate(198.434375 323.7376)scale(0.1 -0.1)">
      <defs>
       <path d="M 9.8125 72.90625 
L 51.703125 72.90625 
L 51.703125 64.59375 
L 19.671875 64.59375 
L 19.671875 43.109375 
L 48.578125 43.109375 
L 48.578125 34.8125 
L 19.671875 34.8125 
L 19.671875 0 
L 9.8125 0 
z
" id="DejaVuSans-70"/>
       <path d="M 9.421875 75.984375 
L 18.40625 75.984375 
L 18.40625 0 
L 9.421875 0 
z
" id="DejaVuSans-108"/>
       <path d="M 30.609375 48.390625 
Q 23.390625 48.390625 19.1875 42.75 
Q 14.984375 37.109375 14.984375 27.296875 
Q 14.984375 17.484375 19.15625 11.84375 
Q 23.34375 6.203125 30.609375 6.203125 
Q 37.796875 6.203125 41.984375 11.859375 
Q 46.1875 17.53125 46.1875 27.296875 
Q 46.1875 37.015625 41.984375 42.703125 
Q 37.796875 48.390625 30.609375 48.390625 
z
M 30.609375 56 
Q 42.328125 56 49.015625 48.375 
Q 55.71875 40.765625 55.71875 27.296875 
Q 55.71875 13.875 49.015625 6.21875 
Q 42.328125 -1.421875 30.609375 -1.421875 
Q 18.84375 -1.421875 12.171875 6.21875 
Q 5.515625 13.875 5.515625 27.296875 
Q 5.515625 40.765625 12.171875 48.375 
Q 18.84375 56 30.609375 56 
z
" id="DejaVuSans-111"/>
       <path d="M 45.40625 46.390625 
L 45.40625 75.984375 
L 54.390625 75.984375 
L 54.390625 0 
L 45.40625 0 
L 45.40625 8.203125 
Q 42.578125 3.328125 38.25 0.953125 
Q 33.9375 -1.421875 27.875 -1.421875 
Q 17.96875 -1.421875 11.734375 6.484375 
Q 5.515625 14.40625 5.515625 27.296875 
Q 5.515625 40.1875 11.734375 48.09375 
Q 17.96875 56 27.875 56 
Q 33.9375 56 38.25 53.625 
Q 42.578125 51.265625 45.40625 46.390625 
z
M 14.796875 27.296875 
Q 14.796875 17.390625 18.875 11.75 
Q 22.953125 6.109375 30.078125 6.109375 
Q 37.203125 6.109375 41.296875 11.75 
Q 45.40625 17.390625 45.40625 27.296875 
Q 45.40625 37.203125 41.296875 42.84375 
Q 37.203125 48.484375 30.078125 48.484375 
Q 22.953125 48.484375 18.875 42.84375 
Q 14.796875 37.203125 14.796875 27.296875 
z
" id="DejaVuSans-100"/>
       <path id="DejaVuSans-32"/>
       <path d="M 19.671875 64.796875 
L 19.671875 8.109375 
L 31.59375 8.109375 
Q 46.6875 8.109375 53.6875 14.9375 
Q 60.6875 21.78125 60.6875 36.53125 
Q 60.6875 51.171875 53.6875 57.984375 
Q 46.6875 64.796875 31.59375 64.796875 
z
M 9.8125 72.90625 
L 30.078125 72.90625 
Q 51.265625 72.90625 61.171875 64.09375 
Q 71.09375 55.28125 71.09375 36.53125 
Q 71.09375 17.671875 61.125 8.828125 
Q 51.171875 0 30.078125 0 
L 9.8125 0 
z
" id="DejaVuSans-68"/>
       <path d="M 56.203125 29.59375 
L 56.203125 25.203125 
L 14.890625 25.203125 
Q 15.484375 15.921875 20.484375 11.0625 
Q 25.484375 6.203125 34.421875 6.203125 
Q 39.59375 6.203125 44.453125 7.46875 
Q 49.3125 8.734375 54.109375 11.28125 
L 54.109375 2.78125 
Q 49.265625 0.734375 44.1875 -0.34375 
Q 39.109375 -1.421875 33.890625 -1.421875 
Q 20.796875 -1.421875 13.15625 6.1875 
Q 5.515625 13.8125 5.515625 26.8125 
Q 5.515625 40.234375 12.765625 48.109375 
Q 20.015625 56 32.328125 56 
Q 43.359375 56 49.78125 48.890625 
Q 56.203125 41.796875 56.203125 29.59375 
z
M 47.21875 32.234375 
Q 47.125 39.59375 43.09375 43.984375 
Q 39.0625 48.390625 32.421875 48.390625 
Q 24.90625 48.390625 20.390625 44.140625 
Q 15.875 39.890625 15.1875 32.171875 
z
" id="DejaVuSans-101"/>
       <path d="M 18.109375 8.203125 
L 18.109375 -20.796875 
L 9.078125 -20.796875 
L 9.078125 54.6875 
L 18.109375 54.6875 
L 18.109375 46.390625 
Q 20.953125 51.265625 25.265625 53.625 
Q 29.59375 56 35.59375 56 
Q 45.5625 56 51.78125 48.09375 
Q 58.015625 40.1875 58.015625 27.296875 
Q 58.015625 14.40625 51.78125 6.484375 
Q 45.5625 -1.421875 35.59375 -1.421875 
Q 29.59375 -1.421875 25.265625 0.953125 
Q 20.953125 3.328125 18.109375 8.203125 
z
M 48.6875 27.296875 
Q 48.6875 37.203125 44.609375 42.84375 
Q 40.53125 48.484375 33.40625 48.484375 
Q 26.265625 48.484375 22.1875 42.84375 
Q 18.109375 37.203125 18.109375 27.296875 
Q 18.109375 17.390625 22.1875 11.75 
Q 26.265625 6.109375 33.40625 6.109375 
Q 40.53125 6.109375 44.609375 11.75 
Q 48.6875 17.390625 48.6875 27.296875 
z
" id="DejaVuSans-112"/>
       <path d="M 18.3125 70.21875 
L 18.3125 54.6875 
L 36.8125 54.6875 
L 36.8125 47.703125 
L 18.3125 47.703125 
L 18.3125 18.015625 
Q 18.3125 11.328125 20.140625 9.421875 
Q 21.96875 7.515625 27.59375 7.515625 
L 36.8125 7.515625 
L 36.8125 0 
L 27.59375 0 
Q 17.1875 0 13.234375 3.875 
Q 9.28125 7.765625 9.28125 18.015625 
L 9.28125 47.703125 
L 2.6875 47.703125 
L 2.6875 54.6875 
L 9.28125 54.6875 
L 9.28125 70.21875 
z
" id="DejaVuSans-116"/>
       <path d="M 54.890625 33.015625 
L 54.890625 0 
L 45.90625 0 
L 45.90625 32.71875 
Q 45.90625 40.484375 42.875 44.328125 
Q 39.84375 48.1875 33.796875 48.1875 
Q 26.515625 48.1875 22.3125 43.546875 
Q 18.109375 38.921875 18.109375 30.90625 
L 18.109375 0 
L 9.078125 0 
L 9.078125 75.984375 
L 18.109375 75.984375 
L 18.109375 46.1875 
Q 21.34375 51.125 25.703125 53.5625 
Q 30.078125 56 35.796875 56 
Q 45.21875 56 50.046875 50.171875 
Q 54.890625 44.34375 54.890625 33.015625 
z
" id="DejaVuSans-104"/>
      </defs>
      <use xlink:href="#DejaVuSans-70"/>
      <use x="57.519531" xlink:href="#DejaVuSans-108"/>
      <use x="85.302734" xlink:href="#DejaVuSans-111"/>
      <use x="146.484375" xlink:href="#DejaVuSans-111"/>
      <use x="207.666016" xlink:href="#DejaVuSans-100"/>
      <use x="271.142578" xlink:href="#DejaVuSans-32"/>
      <use x="302.929688" xlink:href="#DejaVuSans-68"/>
      <use x="379.931641" xlink:href="#DejaVuSans-101"/>
      <use x="441.455078" xlink:href="#DejaVuSans-112"/>
      <use x="504.931641" xlink:href="#DejaVuSans-116"/>
      <use x="544.140625" xlink:href="#DejaVuSans-104"/>
      <use x="607.519531" xlink:href="#DejaVuSans-32"/>
     </g>
     <!--  Codes: 1 = 10-30 cm, 2 = 31-70cm, 3 = 71-50cm, 4 = 150+cm -->
     <g transform="translate(69.0125 334.935412)scale(0.1 -0.1)">
      <defs>
       <path d="M 64.40625 67.28125 
L 64.40625 56.890625 
Q 59.421875 61.53125 53.78125 63.8125 
Q 48.140625 66.109375 41.796875 66.109375 
Q 29.296875 66.109375 22.65625 58.46875 
Q 16.015625 50.828125 16.015625 36.375 
Q 16.015625 21.96875 22.65625 14.328125 
Q 29.296875 6.6875 41.796875 6.6875 
Q 48.140625 6.6875 53.78125 8.984375 
Q 59.421875 11.28125 64.40625 15.921875 
L 64.40625 5.609375 
Q 59.234375 2.09375 53.4375 0.328125 
Q 47.65625 -1.421875 41.21875 -1.421875 
Q 24.65625 -1.421875 15.125 8.703125 
Q 5.609375 18.84375 5.609375 36.375 
Q 5.609375 53.953125 15.125 64.078125 
Q 24.65625 74.21875 41.21875 74.21875 
Q 47.75 74.21875 53.53125 72.484375 
Q 59.328125 70.75 64.40625 67.28125 
z
" id="DejaVuSans-67"/>
       <path d="M 44.28125 53.078125 
L 44.28125 44.578125 
Q 40.484375 46.53125 36.375 47.5 
Q 32.28125 48.484375 27.875 48.484375 
Q 21.1875 48.484375 17.84375 46.4375 
Q 14.5 44.390625 14.5 40.28125 
Q 14.5 37.15625 16.890625 35.375 
Q 19.28125 33.59375 26.515625 31.984375 
L 29.59375 31.296875 
Q 39.15625 29.25 43.1875 25.515625 
Q 47.21875 21.78125 47.21875 15.09375 
Q 47.21875 7.46875 41.1875 3.015625 
Q 35.15625 -1.421875 24.609375 -1.421875 
Q 20.21875 -1.421875 15.453125 -0.5625 
Q 10.6875 0.296875 5.421875 2 
L 5.421875 11.28125 
Q 10.40625 8.6875 15.234375 7.390625 
Q 20.0625 6.109375 24.8125 6.109375 
Q 31.15625 6.109375 34.5625 8.28125 
Q 37.984375 10.453125 37.984375 14.40625 
Q 37.984375 18.0625 35.515625 20.015625 
Q 33.0625 21.96875 24.703125 23.78125 
L 21.578125 24.515625 
Q 13.234375 26.265625 9.515625 29.90625 
Q 5.8125 33.546875 5.8125 39.890625 
Q 5.8125 47.609375 11.28125 51.796875 
Q 16.75 56 26.8125 56 
Q 31.78125 56 36.171875 55.265625 
Q 40.578125 54.546875 44.28125 53.078125 
z
" id="DejaVuSans-115"/>
       <path d="M 11.71875 12.40625 
L 22.015625 12.40625 
L 22.015625 0 
L 11.71875 0 
z
M 11.71875 51.703125 
L 22.015625 51.703125 
L 22.015625 39.3125 
L 11.71875 39.3125 
z
" id="DejaVuSans-58"/>
       <path d="M 10.59375 45.40625 
L 73.1875 45.40625 
L 73.1875 37.203125 
L 10.59375 37.203125 
z
M 10.59375 25.484375 
L 73.1875 25.484375 
L 73.1875 17.1875 
L 10.59375 17.1875 
z
" id="DejaVuSans-61"/>
       <path d="M 31.78125 66.40625 
Q 24.171875 66.40625 20.328125 58.90625 
Q 16.5 51.421875 16.5 36.375 
Q 16.5 21.390625 20.328125 13.890625 
Q 24.171875 6.390625 31.78125 6.390625 
Q 39.453125 6.390625 43.28125 13.890625 
Q 47.125 21.390625 47.125 36.375 
Q 47.125 51.421875 43.28125 58.90625 
Q 39.453125 66.40625 31.78125 66.40625 
z
M 31.78125 74.21875 
Q 44.046875 74.21875 50.515625 64.515625 
Q 56.984375 54.828125 56.984375 36.375 
Q 56.984375 17.96875 50.515625 8.265625 
Q 44.046875 -1.421875 31.78125 -1.421875 
Q 19.53125 -1.421875 13.0625 8.265625 
Q 6.59375 17.96875 6.59375 36.375 
Q 6.59375 54.828125 13.0625 64.515625 
Q 19.53125 74.21875 31.78125 74.21875 
z
" id="DejaVuSans-48"/>
       <path d="M 4.890625 31.390625 
L 31.203125 31.390625 
L 31.203125 23.390625 
L 4.890625 23.390625 
z
" id="DejaVuSans-45"/>
       <path d="M 48.78125 52.59375 
L 48.78125 44.1875 
Q 44.96875 46.296875 41.140625 47.34375 
Q 37.3125 48.390625 33.40625 48.390625 
Q 24.65625 48.390625 19.8125 42.84375 
Q 14.984375 37.3125 14.984375 27.296875 
Q 14.984375 17.28125 19.8125 11.734375 
Q 24.65625 6.203125 33.40625 6.203125 
Q 37.3125 6.203125 41.140625 7.25 
Q 44.96875 8.296875 48.78125 10.40625 
L 48.78125 2.09375 
Q 45.015625 0.34375 40.984375 -0.53125 
Q 36.96875 -1.421875 32.421875 -1.421875 
Q 20.0625 -1.421875 12.78125 6.34375 
Q 5.515625 14.109375 5.515625 27.296875 
Q 5.515625 40.671875 12.859375 48.328125 
Q 20.21875 56 33.015625 56 
Q 37.15625 56 41.109375 55.140625 
Q 45.0625 54.296875 48.78125 52.59375 
z
" id="DejaVuSans-99"/>
       <path d="M 52 44.1875 
Q 55.375 50.25 60.0625 53.125 
Q 64.75 56 71.09375 56 
Q 79.640625 56 84.28125 50.015625 
Q 88.921875 44.046875 88.921875 33.015625 
L 88.921875 0 
L 79.890625 0 
L 79.890625 32.71875 
Q 79.890625 40.578125 77.09375 44.375 
Q 74.3125 48.1875 68.609375 48.1875 
Q 61.625 48.1875 57.5625 43.546875 
Q 53.515625 38.921875 53.515625 30.90625 
L 53.515625 0 
L 44.484375 0 
L 44.484375 32.71875 
Q 44.484375 40.625 41.703125 44.40625 
Q 38.921875 48.1875 33.109375 48.1875 
Q 26.21875 48.1875 22.15625 43.53125 
Q 18.109375 38.875 18.109375 30.90625 
L 18.109375 0 
L 9.078125 0 
L 9.078125 54.6875 
L 18.109375 54.6875 
L 18.109375 46.1875 
Q 21.1875 51.21875 25.484375 53.609375 
Q 29.78125 56 35.6875 56 
Q 41.65625 56 45.828125 52.96875 
Q 50 49.953125 52 44.1875 
z
" id="DejaVuSans-109"/>
       <path d="M 11.71875 12.40625 
L 22.015625 12.40625 
L 22.015625 4 
L 14.015625 -11.625 
L 7.71875 -11.625 
L 11.71875 4 
z
" id="DejaVuSans-44"/>
       <path d="M 8.203125 72.90625 
L 55.078125 72.90625 
L 55.078125 68.703125 
L 28.609375 0 
L 18.3125 0 
L 43.21875 64.59375 
L 8.203125 64.59375 
z
" id="DejaVuSans-55"/>
       <path d="M 10.796875 72.90625 
L 49.515625 72.90625 
L 49.515625 64.59375 
L 19.828125 64.59375 
L 19.828125 46.734375 
Q 21.96875 47.46875 24.109375 47.828125 
Q 26.265625 48.1875 28.421875 48.1875 
Q 40.625 48.1875 47.75 41.5 
Q 54.890625 34.8125 54.890625 23.390625 
Q 54.890625 11.625 47.5625 5.09375 
Q 40.234375 -1.421875 26.90625 -1.421875 
Q 22.3125 -1.421875 17.546875 -0.640625 
Q 12.796875 0.140625 7.71875 1.703125 
L 7.71875 11.625 
Q 12.109375 9.234375 16.796875 8.0625 
Q 21.484375 6.890625 26.703125 6.890625 
Q 35.15625 6.890625 40.078125 11.328125 
Q 45.015625 15.765625 45.015625 23.390625 
Q 45.015625 31 40.078125 35.4375 
Q 35.15625 39.890625 26.703125 39.890625 
Q 22.75 39.890625 18.8125 39.015625 
Q 14.890625 38.140625 10.796875 36.28125 
z
" id="DejaVuSans-53"/>
       <path d="M 46 62.703125 
L 46 35.5 
L 73.1875 35.5 
L 73.1875 27.203125 
L 46 27.203125 
L 46 0 
L 37.796875 0 
L 37.796875 27.203125 
L 10.59375 27.203125 
L 10.59375 35.5 
L 37.796875 35.5 
L 37.796875 62.703125 
z
" id="DejaVuSans-43"/>
      </defs>
      <use xlink:href="#DejaVuSans-32"/>
      <use x="31.787109" xlink:href="#DejaVuSans-67"/>
      <use x="101.611328" xlink:href="#DejaVuSans-111"/>
      <use x="162.792969" xlink:href="#DejaVuSans-100"/>
      <use x="226.269531" xlink:href="#DejaVuSans-101"/>
      <use x="287.792969" xlink:href="#DejaVuSans-115"/>
      <use x="339.892578" xlink:href="#DejaVuSans-58"/>
      <use x="373.583984" xlink:href="#DejaVuSans-32"/>
      <use x="405.371094" xlink:href="#DejaVuSans-49"/>
      <use x="468.994141" xlink:href="#DejaVuSans-32"/>
      <use x="500.78125" xlink:href="#DejaVuSans-61"/>
      <use x="584.570312" xlink:href="#DejaVuSans-32"/>
      <use x="616.357422" xlink:href="#DejaVuSans-49"/>
      <use x="679.980469" xlink:href="#DejaVuSans-48"/>
      <use x="743.603516" xlink:href="#DejaVuSans-45"/>
      <use x="779.6875" xlink:href="#DejaVuSans-51"/>
      <use x="843.310547" xlink:href="#DejaVuSans-48"/>
      <use x="906.933594" xlink:href="#DejaVuSans-32"/>
      <use x="938.720703" xlink:href="#DejaVuSans-99"/>
      <use x="993.701172" xlink:href="#DejaVuSans-109"/>
      <use x="1091.113281" xlink:href="#DejaVuSans-44"/>
      <use x="1122.900391" xlink:href="#DejaVuSans-32"/>
      <use x="1154.6875" xlink:href="#DejaVuSans-50"/>
      <use x="1218.310547" xlink:href="#DejaVuSans-32"/>
      <use x="1250.097656" xlink:href="#DejaVuSans-61"/>
      <use x="1333.886719" xlink:href="#DejaVuSans-32"/>
      <use x="1365.673828" xlink:href="#DejaVuSans-51"/>
      <use x="1429.296875" xlink:href="#DejaVuSans-49"/>
      <use x="1492.919922" xlink:href="#DejaVuSans-45"/>
      <use x="1529.003906" xlink:href="#DejaVuSans-55"/>
      <use x="1592.626953" xlink:href="#DejaVuSans-48"/>
      <use x="1656.25" xlink:href="#DejaVuSans-99"/>
      <use x="1711.230469" xlink:href="#DejaVuSans-109"/>
      <use x="1808.642578" xlink:href="#DejaVuSans-44"/>
      <use x="1840.429688" xlink:href="#DejaVuSans-32"/>
      <use x="1872.216797" xlink:href="#DejaVuSans-51"/>
      <use x="1935.839844" xlink:href="#DejaVuSans-32"/>
      <use x="1967.626953" xlink:href="#DejaVuSans-61"/>
      <use x="2051.416016" xlink:href="#DejaVuSans-32"/>
      <use x="2083.203125" xlink:href="#DejaVuSans-55"/>
      <use x="2146.826172" xlink:href="#DejaVuSans-49"/>
      <use x="2210.449219" xlink:href="#DejaVuSans-45"/>
      <use x="2246.533203" xlink:href="#DejaVuSans-53"/>
      <use x="2310.15625" xlink:href="#DejaVuSans-48"/>
      <use x="2373.779297" xlink:href="#DejaVuSans-99"/>
      <use x="2428.759766" xlink:href="#DejaVuSans-109"/>
      <use x="2526.171875" xlink:href="#DejaVuSans-44"/>
      <use x="2557.958984" xlink:href="#DejaVuSans-32"/>
      <use x="2589.746094" xlink:href="#DejaVuSans-52"/>
      <use x="2653.369141" xlink:href="#DejaVuSans-32"/>
      <use x="2685.15625" xlink:href="#DejaVuSans-61"/>
      <use x="2768.945312" xlink:href="#DejaVuSans-32"/>
      <use x="2800.732422" xlink:href="#DejaVuSans-49"/>
      <use x="2864.355469" xlink:href="#DejaVuSans-53"/>
      <use x="2927.978516" xlink:href="#DejaVuSans-48"/>
      <use x="2991.601562" xlink:href="#DejaVuSans-43"/>
      <use x="3075.390625" xlink:href="#DejaVuSans-99"/>
      <use x="3130.371094" xlink:href="#DejaVuSans-109"/>
     </g>
    </g>
   </g>
   <g id="matplotlib.axis_2"/>
   <g id="patch_8">
    <path d="M 10.8 298.961037 
L 120.6 298.961037 
L 340.2 298.961037 
L 450 298.961037 
L 450 277.001037 
L 340.2 277.001037 
L 120.6 277.001037 
L 10.8 277.001037 
z
" style="fill:none;stroke:#000000;stroke-linejoin:miter;stroke-width:0.8;"/>
   </g>
  </g>
 </g>
 <defs>
  <clipPath id="p7bc672c256">
   <rect height="203.017325" width="147.782632" x="156.508684" y="30.48"/>
  </clipPath>
  <clipPath id="p4356f29f5a">
   <rect height="21.96" width="439.2" x="10.8" y="277.001037"/>
  </clipPath>
 </defs>
</svg>
